<svg xmlns="http://www.w3.org/2000/svg" id="Layer_1" enable-background="new 0 0 32 32" viewBox="0 0 32 32"><style>.st2{fill:#fff}</style><g id="Tutorials_x2F_Navigation_x2F_Next"><path fill="none" stroke="#000" stroke-opacity=".1" d="M22.6 16.3zM16.2 19l-5.6-.8a2.5 2.5 0 0 1-2.1-2.4v-.3c.2-1.1 1-1.9 2-2l5.6-.8v-1.1c0-.7.4-1.3 1-1.6s1.3-.1 1.8.4l4.3 4.3c.3.3.5.7.5 1.2 0 .4-.2.9-.5 1.2L19 21.4c-.5.5-1.2.6-1.8.3s-1-.9-1-1.5z"/><defs><filter id="Adobe_OpacityMaskFilter" width="20" height="20" x="6" y="6" filterUnits="userSpaceOnUse"><feColorMatrix values="1 0 0 0 0 0 1 0 0 0 0 0 1 0 0 0 0 0 1 0"/></filter></defs><mask id="mask-2_1_" width="20" height="20" x="6" y="6" maskUnits="userSpaceOnUse"><g filter="url(#Adobe_OpacityMaskFilter)"><path id="path-1_1_" d="M23 16.7 18.7 21c-.4.3-.9.4-1.3.2s-.7-.6-.7-1.1v-1.6l-6-.8c-1-.1-1.7-.9-1.7-1.9v-.2c.1-.9.8-1.5 1.6-1.6l6-.9v-1.6c0-.5.3-.9.7-1.1s.9-.1 1.3.3L23 15c.2.2.3.5.3.8z" class="st2"/></g></mask><g id="Color_x2F_White" mask="url(#mask-2_1_)"><path id="Color" d="M6 6h20v20H6z" class="st2"/></g></g></svg>