<svg xmlns="http://www.w3.org/2000/svg" viewBox="0 0 40 40"><path d="M34.75 23v.35a13.62 13.62 0 0 1-1 4.69 14.19 14.19 0 0 1-2.33 3.8 15.36 15.36 0 0 1-3 2.57h-.05a14.25 14.25 0 0 1-3 1.4 8.62 8.62 0 0 1-1.32.37 9.2 9.2 0 0 1-1.22.21h-.26c-.28 0-.54.07-.78.08h-1a3 3 0 0 1-.28-6s.18 0 .5 0h.51a.59.59 0 0 0 .19 0 1.57 1.57 0 0 1 .25 0h.08a1.9 1.9 0 0 0 .44-.12h.06a3.28 3.28 0 0 0 .61-.35h.07a7.69 7.69 0 0 0 1.52-.86 8.7 8.7 0 0 0 1.46-1.45 7.69 7.69 0 0 0 1.08-2 6.34 6.34 0 0 0 .37-2.34v-.91a.62.62 0 0 1 0-.13l-.13-.31a.15.15 0 0 1 0-.07c0-.13-.06-.29-.12-.48l-.07-.22a2.28 2.28 0 0 0-.1-.31v-.08a6.75 6.75 0 0 0-3-3.47 6.24 6.24 0 0 0-2-.7h-.25a5.73 5.73 0 0 0-.67-.06h-4.84v3A2.06 2.06 0 0 1 13 21.1L5.9 14a2.05 2.05 0 0 1 0-2.91L13 4a2 2 0 0 1 1.45-.62 2.06 2.06 0 0 1 2.06 2.06v3H20.82l.87.16a13.63 13.63 0 0 1 2.14.4 14.36 14.36 0 0 1 10.24 9.5 8.29 8.29 0 0 1 .3 1.07v.15a11.73 11.73 0 0 1 .27 1.28l.07.64V23.03Z" fill="#cf8b17"/><path d="M33.75 23.08v.29a12.59 12.59 0 0 1-1 4.34 13.32 13.32 0 0 1-2.15 3.52 14.17 14.17 0 0 1-2.78 2.4A12.88 12.88 0 0 1 25 34.94a8.25 8.25 0 0 1-1.23.35 7.56 7.56 0 0 1-1.11.19c-.34 0-.69.09-.92.1h-1a2 2 0 0 1-.2-4h.45l.54-.05a5 5 0 0 0 .53-.11 3.21 3.21 0 0 0 .66-.17 5.22 5.22 0 0 0 .8-.29 8.57 8.57 0 0 0 1.76-1 10.06 10.06 0 0 0 1.72-1.7A8.42 8.42 0 0 0 28.22 26a7.44 7.44 0 0 0 .43-2.71v-.76a2.62 2.62 0 0 0 0-.43l-.07-.29a3.92 3.92 0 0 0-.15-.62 5.11 5.11 0 0 0-.22-.66 7.72 7.72 0 0 0-3.5-4 7.4 7.4 0 0 0-2.29-.81 7.21 7.21 0 0 0-1.12-.11h-5.77v4.05a1.05 1.05 0 0 1-1.8.74L6.6 13.31a1 1 0 0 1 0-1.49l7.08-7.09a1.05 1.05 0 0 1 1.8.74v4h5.2l1 .06a12.86 12.86 0 0 1 2 .33 13 13 0 0 1 4 1.68 13.22 13.22 0 0 1 5.56 7.17 9 9 0 0 1 .31 1.13 10 10 0 0 1 .21 1.22l.07.63V23.01Z" fill="#fff"/></svg>