<svg xmlns="http://www.w3.org/2000/svg" viewBox="0 0 40 40"><path fill="#cf8b17" d="M34.75 23v.35a13.6 13.6 0 0 1-1 4.69 14.2 14.2 0 0 1-2.33 3.8 15.4 15.4 0 0 1-3 2.57h-.05a14.3 14.3 0 0 1-3 1.4 8.6 8.6 0 0 1-1.32.37 9 9 0 0 1-1.22.21h-.26c-.28 0-.54.07-.78.08h-1a3 3 0 0 1-.28-6s.18 0 .5 0h.51a.6.6 0 0 0 .19 0 1.6 1.6 0 0 1 .25 0h.08a2 2 0 0 0 .44-.12h.06a3.3 3.3 0 0 0 .61-.35h.07a7.7 7.7 0 0 0 1.52-.86 8.7 8.7 0 0 0 1.46-1.45 7.7 7.7 0 0 0 1.08-2 6.3 6.3 0 0 0 .37-2.34v-.91a.6.6 0 0 1 0-.13l-.13-.31a.15.15 0 0 1 0-.07c0-.13-.06-.29-.12-.48l-.07-.22a2 2 0 0 0-.1-.31v-.08a6.75 6.75 0 0 0-3-3.47 6.2 6.2 0 0 0-2-.7h-.25a6 6 0 0 0-.67-.06h-4.84v3A2.06 2.06 0 0 1 13 21.1L5.9 14a2.05 2.05 0 0 1 0-2.91L13 4a2 2 0 0 1 1.45-.62 2.06 2.06 0 0 1 2.06 2.06v3h4.31l.87.16a13.6 13.6 0 0 1 2.14.4 14.36 14.36 0 0 1 10.24 9.5 8 8 0 0 1 .3 1.07v.15a12 12 0 0 1 .27 1.28l.07.64v1.39Z"/><path fill="#fff" d="M33.75 23.08v.29a12.6 12.6 0 0 1-1 4.34 13.3 13.3 0 0 1-2.15 3.52 14.2 14.2 0 0 1-2.78 2.4A13 13 0 0 1 25 34.94a8 8 0 0 1-1.23.35 7.6 7.6 0 0 1-1.11.19c-.34 0-.69.09-.92.1h-1a2 2 0 0 1-.2-4h.45l.54-.05a5 5 0 0 0 .53-.11 3.2 3.2 0 0 0 .66-.17 5 5 0 0 0 .8-.29 8.6 8.6 0 0 0 1.76-1 10 10 0 0 0 1.72-1.7A8.4 8.4 0 0 0 28.22 26a7.4 7.4 0 0 0 .43-2.71v-.76a2.6 2.6 0 0 0 0-.43l-.07-.29a4 4 0 0 0-.15-.62 5 5 0 0 0-.22-.66 7.72 7.72 0 0 0-3.5-4 7.4 7.4 0 0 0-2.29-.81 7 7 0 0 0-1.12-.11h-5.77v4.05a1.05 1.05 0 0 1-1.8.74L6.6 13.31a1 1 0 0 1 0-1.49l7.08-7.09a1.05 1.05 0 0 1 1.8.74v4h5.2l1 .06a13 13 0 0 1 2 .33 13 13 0 0 1 4 1.68 13.22 13.22 0 0 1 5.56 7.17 9 9 0 0 1 .31 1.13 10 10 0 0 1 .21 1.22l.07.63v1.32Z"/></svg>