<svg xmlns="http://www.w3.org/2000/svg" viewBox="0 0 40 40"><rect x="17.29" y="1.22" width="5.6" height="3.29" rx="1.39" ry="1.39" fill="#cf8b17"/><path fill="#cf8b17" d="M18.64 4.1h2.8v1.79h-2.8z"/><ellipse cx="19.86" cy="19.99" rx="14.07" ry="14.1" fill="#fff" stroke="#cf8b17" stroke-miterlimit="10"/><path d="M33.93 20A14.07 14.07 0 1 1 5.8 20a14.6 14.6 0 0 1 .14-2 14.06 14.06 0 0 0 27.85 0 14.6 14.6 0 0 1 .14 2Z" fill="#070707" opacity=".1"/><path d="m31.686 6.939 1.147 1.143a.6.6 0 0 1 .002.849l-1.271 1.275a1.19 1.19 0 0 1-1.683.002l-.311-.31A1.19 1.19 0 0 1 29.58 8.2l1.27-1.275a.6.6 0 0 1 .835.013Z" fill="#cf8b17"/><path d="M20 8.59v12.83L30.06 15S28 8.66 20 8.59Z" fill="#ffab19" opacity=".5"/><rect x="18.43" y="16.5" width="13.2" height="1.98" rx=".88" ry=".88" transform="rotate(-29.05 25.024 17.48)" fill="#cf8b17"/><ellipse cx="19.86" cy="19.99" rx="14.07" ry="14.1" fill="none" stroke="#cf8b17" stroke-miterlimit="10" stroke-width="1.5"/><circle cx="20.39" cy="19.75" r="1.75" fill="#ffab19" stroke="#cf8b17" stroke-miterlimit="10"/></svg>