<svg xmlns="http://www.w3.org/2000/svg" viewBox="0 0 40 40"><path fill="#fff" d="M20.09 35.49h-1.24a14 14 0 0 1-1.74-.25 9 9 0 0 1-1-.25l-.53-.15A14.9 14.9 0 0 1 10 31.49 14.6 14.6 0 0 1 6.75 27 17 17 0 0 1 6 24.89c-.15-.64-.27-1.2-.33-1.7a7 7 0 0 1-.08-.82v-.53a1.82 1.82 0 0 1 1.67-1.94h.11a1.8 1.8 0 0 1 1.78 1.48s0 .14.06.35v.25a4 4 0 0 0 .12.53c.09.33.22.73.39 1.18a11 11 0 0 0 .68 1.4 10 10 0 0 0 2.6 2.84 9.6 9.6 0 0 0 3.89 1.74l.42.06a5 5 0 0 0 .61.08H19a9.6 9.6 0 0 0 2-.3A9 9 0 0 0 24.15 28c.2-.16.39-.31.57-.48l-2-2a1.43 1.43 0 0 1 1-2.44h8.84A1.43 1.43 0 0 1 34 24.52v8.83a1.44 1.44 0 0 1-1.44 1.43 1.4 1.4 0 0 1-1-.42l-2.14-2.15a16 16 0 0 1-1.7 1.17 15.5 15.5 0 0 1-5.58 2 13 13 0 0 1-2.05.11"/><path fill="#cf8b17" d="M7.37 20.4a1.31 1.31 0 0 1 1.29 1.07s0 .12.06.33.09.56.19.86.22.72.39 1.19a12 12 0 0 0 .7 1.48 10.4 10.4 0 0 0 2.69 3 10.1 10.1 0 0 0 4.09 1.83c.24 0 .86.15 1.13.15H19a10 10 0 0 0 2.1-.32 9.6 9.6 0 0 0 3.31-1.63 9 9 0 0 0 1-.87l-2.34-2.34a.93.93 0 0 1 .65-1.59h8.84a.93.93 0 0 1 .92.93v8.83a.93.93 0 0 1-.94.93.9.9 0 0 1-.63-.25l-2.46-2.47-.09.08a16.4 16.4 0 0 1-1.9 1.39 15 15 0 0 1-5.39 1.89 13 13 0 0 1-2 .14h-1.21a13 13 0 0 1-1.66-.24 16 16 0 0 1-1.53-.39 14.3 14.3 0 0 1-5.39-3.19 14.1 14.1 0 0 1-3.09-4.38 16 16 0 0 1-.71-2c-.14-.61-.26-1.15-.32-1.63a9 9 0 0 1-.09-1v-.33a1.32 1.32 0 0 1 1.23-1.4h.07m0-1h-.14a2.31 2.31 0 0 0-2.17 2.45v.54a7 7 0 0 0 .09.89c.06.49.19 1.06.33 1.7a17 17 0 0 0 .75 2.12 15.1 15.1 0 0 0 3.32 4.71 15.35 15.35 0 0 0 5.77 3.42h.06l.62.13a9 9 0 0 0 1.09.26 14 14 0 0 0 1.74.25h1.31a14 14 0 0 0 2.13-.15 16 16 0 0 0 5.74-2q.72-.44 1.41-.95l1.83 1.84a1.9 1.9 0 0 0 1.36.57 1.94 1.94 0 0 0 1.94-1.93v-8.8a1.93 1.93 0 0 0-1.92-1.93h-8.89a1.93 1.93 0 0 0-1.36 3.3l1.6 1.6-.14.11a8.5 8.5 0 0 1-3 1.46 9.2 9.2 0 0 1-1.88.29H17.9l-.5-.08-.4-.1a9.2 9.2 0 0 1-3.64-1.64 9.5 9.5 0 0 1-2.44-2.72 11 11 0 0 1-.65-1.34c-.12-.32-.27-.76-.35-1.07v-.07a4 4 0 0 1-.1-.46c0-.1 0-.19-.05-.27s-.05-.29-.06-.35a2.3 2.3 0 0 0-2.34-1.85Z"/><path fill="#fff" d="M32.63 20.11a1.81 1.81 0 0 1-1.78-1.48l-.1-.54a4 4 0 0 0-.13-.59c-.09-.33-.22-.73-.39-1.18a13 13 0 0 0-.68-1.4A10 10 0 0 0 27 12.08a9.56 9.56 0 0 0-3.9-1.74l-.4-.06a5 5 0 0 0-.62-.08H21a10 10 0 0 0-2 .3 9.2 9.2 0 0 0-3.14 1.5c-.19.15-.37.3-.55.47l2 2a1.43 1.43 0 0 1-1 2.44H7.44A1.43 1.43 0 0 1 6 15.49V6.66a1.43 1.43 0 0 1 2.44-1l2.17 2.14a17 17 0 0 1 1.7-1.18 15.5 15.5 0 0 1 5.57-2 13.4 13.4 0 0 1 2-.15h1.24a14 14 0 0 1 1.75.25 9 9 0 0 1 1 .25l.53.15a14.9 14.9 0 0 1 5.61 3.31 14.6 14.6 0 0 1 3.2 4.54 15 15 0 0 1 .79 2.17 14 14 0 0 1 .34 1.69 7 7 0 0 1 .08.82v.55a1.81 1.81 0 0 1-1.69 1.9h-.1Z"/><path fill="#cf8b17" d="M19.92 5h1.21a13 13 0 0 1 1.67.24 16 16 0 0 1 1.53.39 14.3 14.3 0 0 1 5.39 3.19 14.1 14.1 0 0 1 3.09 4.38 14 14 0 0 1 .7 2 14 14 0 0 1 .33 1.62 9 9 0 0 1 .09 1v.33a1.31 1.31 0 0 1-1.22 1.4h-.1a1.32 1.32 0 0 1-1.28-1.07s0-.12-.06-.33a7 7 0 0 0-.18-.86c-.09-.29-.2-.66-.37-1.13a13 13 0 0 0-.72-1.48 10.6 10.6 0 0 0-2.69-3 10.1 10.1 0 0 0-4.1-1.83c-.23 0-.85-.15-1.12-.15H21a10.3 10.3 0 0 0-2.11.32 9.8 9.8 0 0 0-3.31 1.63 11 11 0 0 0-1 .86l2.34 2.35a.93.93 0 0 1-.66 1.59H7.44a.93.93 0 0 1-.93-.93V6.66A.93.93 0 0 1 8.11 6l2.46 2.47.09-.08A16.4 16.4 0 0 1 12.56 7a14.9 14.9 0 0 1 5.38-1.89 13 13 0 0 1 2-.14m0-1a14 14 0 0 0-2.13.15 16 16 0 0 0-5.73 2q-.72.44-1.41.95L8.82 5.29a1.93 1.93 0 0 0-3.3 1.37v8.83a1.93 1.93 0 0 0 1.93 1.93h8.83a1.93 1.93 0 0 0 1.37-3.3L16 12.53l.14-.11A8.7 8.7 0 0 1 19.12 11a9.4 9.4 0 0 1 1.88-.32h1.11l.5.08.43.07a9 9 0 0 1 3.65 1.64 9.6 9.6 0 0 1 2.44 2.72 12 12 0 0 1 .65 1.33c.13.35.28.78.35 1.07v.07a4 4 0 0 1 .11.51v.23l.05.3a2.32 2.32 0 0 0 2.27 1.91h.24a2.32 2.32 0 0 0 2.15-2.43v-.55a7 7 0 0 0-.09-.89 15 15 0 0 0-.35-1.7 15 15 0 0 0-.75-2.16 15.1 15.1 0 0 0-3.32-4.71 15.35 15.35 0 0 0-5.77-3.42h-.06l-.52-.14A9 9 0 0 0 23 4.32a14 14 0 0 0-1.75-.25h-1.3Z"/></svg>