<svg xmlns="http://www.w3.org/2000/svg" viewBox="0 0 40 40"><path d="M35.75 30.52H11.13a1.75 1.75 0 0 1-1.75-1.76l.1-17.3a1.75 1.75 0 0 1 1.75-1.74h24.52a1.75 1.75 0 0 1 1.75 1.75v17.3a1.75 1.75 0 0 1-1.75 1.75Z" fill="#4cbf56"/><path fill="none" stroke="#45993d" stroke-linecap="round" stroke-linejoin="round" d="M10.36 29.64 23.5 18.72l13.13 10.92"/><path d="M37.87 12.81 26 25.14a3.49 3.49 0 0 1-5.05 0L9.12 12.8a.49.49 0 0 1-.12-.54.51.51 0 0 1 .48-.26h28a.51.51 0 0 1 .46.3.53.53 0 0 1-.07.51Z" fill="#231f20" opacity=".1"/><path d="M37.51 11.47 25.45 21.83a3 3 0 0 1-3.91 0L9.49 11.46" fill="#4cbf56" stroke="#45993d" stroke-linecap="round" stroke-linejoin="round"/><path fill="none" stroke="#fff" stroke-linecap="round" stroke-linejoin="round" stroke-width="1.5" d="M7 12H4.53M7 20.03H4.53M7 28H4.53M7 24H1M7 16H1"/><path d="M35.75 30.52H11.13a1.75 1.75 0 0 1-1.75-1.76l.1-17.3a1.75 1.75 0 0 1 1.75-1.74h24.52a1.75 1.75 0 0 1 1.75 1.75v17.3a1.75 1.75 0 0 1-1.75 1.75Z" fill="none" stroke="#45993d" stroke-linecap="round" stroke-linejoin="round"/></svg>