<svg xmlns="http://www.w3.org/2000/svg" viewBox="0 0 40 40"><path d="M33.47 10.64v13.7a.9.9 0 0 1-.33.69 10.27 10.27 0 0 1-13 0 8.35 8.35 0 0 0-5.26-1.88A8.19 8.19 0 0 0 10 24.77v9.09a1 1 0 0 1-2 0V10.64a.92.92 0 0 1 .61-.87 10.25 10.25 0 0 1 12.77.18 8.34 8.34 0 0 0 10.52 0 1 1 0 0 1 1-.14.9.9 0 0 1 .57.83Z" fill="#4cbf56" stroke="#45993d" stroke-linecap="round" stroke-linejoin="round" stroke-width=".9"/><rect x="8" y="6.91" width="1.88" height="27.88" rx=".94" ry=".94" fill="#45993d" stroke="#45993d" stroke-linecap="round" stroke-linejoin="round" stroke-width=".9"/></svg>