<svg xmlns="http://www.w3.org/2000/svg" viewBox="0 0 40 40"><path fill="#ef4d70" d="M26.93 13.19H13.26a8.75 8.75 0 0 1 6.85-3.29 9 9 0 0 1 1 .06 8.68 8.68 0 0 1 5.82 3.23"/><path fill="#ffab19" d="M28.59 16.48h-17a8.55 8.55 0 0 1 1.63-3.29h13.71a8.6 8.6 0 0 1 1.66 3.29"/><path fill="#fff200" d="M28.79 19.81H11.44a7.5 7.5 0 0 1-.09-1.16 9 9 0 0 1 .27-2.17h17a9 9 0 0 1 .23 1.3 9 9 0 0 1-.06 2.03"/><path fill="#4cbf56" d="M28.79 19.81a8.65 8.65 0 0 1-1.14 3.29H12.58a8.5 8.5 0 0 1-1.14-3.29z"/><path fill="#4c97ff" d="M27.65 23.1a7 7 0 0 1-.65.9 12.8 12.8 0 0 0-1.6 2.37H14.8a1 1 0 0 0-.08-.19A14 14 0 0 0 13.21 24a7.3 7.3 0 0 1-.63-.94h15.07Z"/><path fill="#c453ea" d="M25.43 26.27a6.4 6.4 0 0 0-.45 2.3 2.4 2.4 0 0 1-.13.82.8.8 0 0 0-.53-.1l-1.18.17c-.76.1-1.51.18-2.27.21h-1.52c-.76 0-1.51-.11-2.27-.21l-1.18-.17a.84.84 0 0 0-.52.09 2.3 2.3 0 0 1-.11-.69 6.3 6.3 0 0 0-.47-2.42z"/><path fill="none" stroke="#774dcb" stroke-linecap="round" stroke-linejoin="round" d="M28.75 17.79A8.75 8.75 0 0 1 27 24c-1.26 1.63-2.05 2.6-2.05 4.66v-.09a2.36 2.36 0 0 1-1.31 2.2h0a8.11 8.11 0 0 1-7.06 0h0a2.31 2.31 0 0 1-1.3-2.08h0c0-2.06-.8-3-2.07-4.65a8.76 8.76 0 1 1 15.54-6.25"/><circle cx="20.03" cy="34.16" r="2.96" fill="#e6e7e8" stroke="#774dcb" stroke-linecap="round" stroke-linejoin="round"/><path fill="#e6e7e8" stroke="#774dcb" stroke-linecap="round" stroke-linejoin="round" d="M25.21 31.91a2.17 2.17 0 0 1-1.34 2h-.09a9.77 9.77 0 0 1-7.54 0h0A2.13 2.13 0 0 1 14.85 32v-1.86a.85.85 0 0 1 1-.85l1.15.18a21.2 21.2 0 0 0 6.06 0l1.18-.17a.85.85 0 0 1 1 .85v1.77Z"/><path fill="none" stroke="#fff" stroke-linecap="round" stroke-linejoin="round" stroke-width="1.5" d="M7.84 18.2h-3M35.22 18.2h-3"/><path fill="#e6e7e8" stroke="#774dcb" stroke-linecap="round" stroke-linejoin="round" d="M14.85 31.21a7 7 0 0 0 1.62.61M25.21 31.21a7 7 0 0 1-1.62.61"/><path fill="none" stroke="#fff" stroke-linecap="round" stroke-linejoin="round" stroke-width="1.5" d="m11.41 26.82-2.12 2.12M30.77 7.47l-2.12 2.12M28.65 26.82l2.12 2.12M9.29 7.47l2.12 2.12M20.03 3.02v3"/></svg>