<svg xmlns="http://www.w3.org/2000/svg" viewBox="0 0 40 40"><path d="M28.75 17.79A8.75 8.75 0 0 1 27 24c-1.26 1.63-2.05 2.6-2.05 4.66v-.09a2.36 2.36 0 0 1-1.31 2.2h0a8.11 8.11 0 0 1-7.06 0h0a2.31 2.31 0 0 1-1.3-2.08h0c0-2.06-.8-3-2.07-4.65a8.76 8.76 0 1 1 15.54-6.25Z" fill="#ffab19" stroke="#774dcb" stroke-linecap="round" stroke-linejoin="round"/><circle cx="20.03" cy="34.16" r="2.96" fill="#e6e7e8" stroke="#774dcb" stroke-linecap="round" stroke-linejoin="round"/><path d="M25.21 31.91a2.17 2.17 0 0 1-1.34 2h-.09a9.77 9.77 0 0 1-7.54 0h0A2.13 2.13 0 0 1 14.85 32v-1.86a.85.85 0 0 1 1-.85l1.15.18a21.15 21.15 0 0 0 6.06 0l1.18-.17a.85.85 0 0 1 1 .85v1.77Z" fill="#e6e7e8" stroke="#774dcb" stroke-linecap="round" stroke-linejoin="round"/><path fill="none" stroke="#fff" stroke-linecap="round" stroke-linejoin="round" stroke-width="1.5" d="M7.84 18.2h-3M35.22 18.2h-3"/><path d="M14.85 31.21a6.89 6.89 0 0 0 1.62.61M25.21 31.21a6.89 6.89 0 0 1-1.62.61" fill="#e6e7e8" stroke="#774dcb" stroke-linecap="round" stroke-linejoin="round"/><path fill="none" stroke="#fff" stroke-linecap="round" stroke-linejoin="round" stroke-width="1.5" d="m11.41 26.82-2.12 2.12M30.77 7.47l-2.12 2.12M28.65 26.82l2.12 2.12M9.29 7.47l2.12 2.12M20.03 3.02v3"/></svg>