<svg xmlns="http://www.w3.org/2000/svg" viewBox="0 0 40 40"><rect width="22.79" height="13.29" x="8.46" y="4.35" fill="#fff" stroke="#7c87a5" stroke-linecap="round" stroke-linejoin="round" rx="1" ry="1"/><path fill="#fff" d="M11.36.54h5.82a1 1 0 0 1 1 1v2.81h-7.82V1.54a1 1 0 0 1 1-1"/><path fill="#231f20" d="M18.69 1.49v2.86a.5.5 0 0 1-.5.5H15.5a.5.5 0 0 1-.5-.5V.54a.5.5 0 0 1 .5-.54h1.74a1.46 1.46 0 0 1 1.45 1.49" opacity=".1"/><path fill="none" stroke="#7c87a5" stroke-linecap="round" stroke-linejoin="round" d="M11.36.54h5.82a1 1 0 0 1 1 1v2.81h0-7.82 0V1.54a1 1 0 0 1 1-1"/><path fill="#fff" d="M22.53.54h5.82a1 1 0 0 1 1 1v2.81h-7.82V1.54a1 1 0 0 1 1-1"/><path fill="#231f20" d="M29.85 1.49v2.86a.5.5 0 0 1-.5.5h-2.68a.5.5 0 0 1-.5-.5V.54a.5.5 0 0 1 .5-.5h1.73a1.45 1.45 0 0 1 1.45 1.45" opacity=".1"/><path fill="none" stroke="#7c87a5" stroke-linecap="round" stroke-linejoin="round" d="M22.53.54h5.82a1 1 0 0 1 1 1v2.81h0-7.82 0V1.54a1 1 0 0 1 1-1"/><path fill="#fff" d="M8.46 10.85h1.9V7.71a4.18 4.18 0 0 1 3.24-4.15 4.09 4.09 0 0 1 4.87 3.34 1.58 1.58 0 0 0 .7 1.1 1.58 1.58 0 0 0 1.72 0 1.58 1.58 0 0 0 .7-1.08 4.09 4.09 0 0 1 4.87-3.33 4.18 4.18 0 0 1 3.24 4.15v3.14h1.56"/><path fill="#e6e7e8" stroke="#7c87a5" stroke-linecap="round" stroke-linejoin="round" d="M30.38 12.6h-5.15a3.18 3.18 0 0 1-2.94-2h0a1 1 0 0 0-1.23-.52l-.5.2a1.4 1.4 0 0 1-1.07 0l-.37-.16a1 1 0 0 0-1.32.53h0a3.18 3.18 0 0 1-2.93 1.94H9.34a.87.87 0 0 0-.87.87v3.3a.87.87 0 0 0 .87.87h21a.87.87 0 0 0 .87-.87v-3.3a.87.87 0 0 0-.83-.86"/><circle cx="14.44" cy="7.69" r="2.17" fill="#7c87a5" stroke="#7c87a5" stroke-linecap="round" stroke-linejoin="round"/><circle cx="25.72" cy="7.69" r="2.17" fill="#e6e7e8" stroke="#7c87a5" stroke-linecap="round" stroke-linejoin="round"/><path fill="#fff" stroke="#7c87a5" stroke-linecap="round" stroke-linejoin="round" d="M18.47 6.9a1.58 1.58 0 0 0 .7 1.1h0a1.58 1.58 0 0 0 1.72 0h0a1.58 1.58 0 0 0 .7-1.08"/><path fill="none" stroke="#7c87a5" stroke-linecap="round" stroke-linejoin="round" d="M8.46 10.85h1.9V7.71a4.18 4.18 0 0 1 3.24-4.15 4.09 4.09 0 0 1 4.87 3.34 1.58 1.58 0 0 0 .7 1.1h0a1.58 1.58 0 0 0 1.72 0h0a1.58 1.58 0 0 0 .7-1.08 4.09 4.09 0 0 1 4.87-3.33 4.18 4.18 0 0 1 3.24 4.15v3.14h1.56"/><path fill="#231f20" d="M31.75 5.3v11.4a1.45 1.45 0 0 1-1.45 1.45H9.41A1.45 1.45 0 0 1 8 16.7v-1a.5.5 0 0 1 .5-.5h17.04a3.3 3.3 0 0 0 3.3-3.3V4.35a.51.51 0 0 1 .5-.5h1a1.45 1.45 0 0 1 1.41 1.45" opacity=".1"/><path fill="none" stroke="#fff" stroke-linecap="round" stroke-linejoin="round" stroke-width="1.5" d="M34.15 4.43A24 24 0 0 0 32.94 2M33.5 23.13a22.34 22.34 0 0 0 1.64-15.88M38.62 8.59c-.15-.94-.34-1.9-.62-2.88M35.91 27.38A29.86 29.86 0 0 0 39 12.93M32.31 10.38q-.1-.77-.24-1.6"/><path fill="#fff" d="m22.19 25.18 8.08 2.41a1.73 1.73 0 0 0 2.41-1c.59-1.82-1.48-2.36-1.48-2.36l-6.77-2s-5.74-2-6.25-3.43a9.34 9.34 0 0 0 4-1.32c1.91-1.21 3.53-.67 3.85-3.31s-2.36-1.55-3.28-1.33-5.48.68-7.22.82-6.01 1.34-6.6 2.08a9.4 9.4 0 0 0-.87 1.33L6.23 17s-1.35-.55-3.52 4.81-.61 6.37-.61 6.37a13.8 13.8 0 0 1 3.38 1.37c.65.6.79 2.06 3.08 3.21S20.5 38.6 20.5 38.6s1.87 1.21 2.71-.31-1-2.27-1.53-2.47-5.25-2.57-5.25-2.57l.73-.83 8.54 3.85s1.95 1.29 3-.54-1.5-2.68-1.5-2.68l-7.95-3.66.23-.3 10.15 3.77s2.27 1.14 3.06-.66-1.76-2.45-1.76-2.45l-9.18-3.66Z"/><path fill="none" stroke="#fff" stroke-linecap="round" stroke-linejoin="round" stroke-width="1.5" d="M30.16 21.93s2.56-2.58 2.35-9.1"/><path fill="none" stroke="#7c87a5" stroke-linecap="round" stroke-linejoin="round" d="m22.19 25.18 8.08 2.41a1.73 1.73 0 0 0 2.41-1c.59-1.82-1.48-2.36-1.48-2.36l-6.77-2s-5.74-2-6.25-3.43a9.34 9.34 0 0 0 4-1.32c1.91-1.21 3.53-.67 3.85-3.31s-2.36-1.55-3.28-1.33-5.48.68-7.22.82-6.01 1.34-6.6 2.08a9.4 9.4 0 0 0-.87 1.33L6.23 17s-1.35-.55-3.52 4.81-.61 6.37-.61 6.37a13.8 13.8 0 0 1 3.38 1.37c.65.6.79 2.06 3.08 3.21S20.5 38.6 20.5 38.6s1.87 1.21 2.71-.31-1-2.27-1.53-2.47-5.25-2.57-5.25-2.57l.73-.83 8.54 3.85s1.95 1.29 3-.54-1.5-2.68-1.5-2.68l-7.95-3.66.23-.3 10.15 3.77s2.27 1.14 3.06-.66-1.76-2.45-1.76-2.45l-9.18-3.66Z"/></svg>