<svg xmlns="http://www.w3.org/2000/svg" viewBox="0 0 40 40"><path d="M11.51.76h5.87a1 1 0 0 1 1 1v3h-7.87v-3a1 1 0 0 1 1-1Z" fill="#e6e7e8"/><path d="M15.68.76v4h2.71V1.52a.88.88 0 0 0-1-.76h-1.71Z" fill="#231f20" stroke="#231f20" stroke-linecap="round" stroke-linejoin="round" opacity=".1"/><path d="M11.51.76h5.87a1 1 0 0 1 1 1v3h0-7.87 0v-3a1 1 0 0 1 1-1Z" fill="none" stroke="#3d79cc" stroke-linecap="round" stroke-linejoin="round"/><path d="M29.65 3.8h-7.89v-2a1 1 0 0 1 1-1h5.87a1 1 0 0 1 1 1v2Z" fill="#e6e7e8"/><path d="M26.94.76v4h2.71V1.52a.88.88 0 0 0-1-.76h-1.71Z" fill="#231f20" stroke="#231f20" stroke-linecap="round" stroke-linejoin="round" opacity=".1"/><path d="M7.17 37.33a1.59 1.59 0 0 1-1.59-1.59v-6.12a17.46 17.46 0 0 1 0-19.51v-4A1.84 1.84 0 0 1 7.42 4.3h25.3a1.84 1.84 0 0 1 1.84 1.84v3.94a17.46 17.46 0 0 1 0 19.55v6.1a1.6 1.6 0 0 1-1.56 1.6H7.17Z" fill="#e6e7e8"/><path d="M32.73 4.8a1.34 1.34 0 0 1 1.34 1.34v4.1a17 17 0 0 1 0 19.24v6.26A1.1 1.1 0 0 1 33 36.83H7.17a1.1 1.1 0 0 1-1.09-1.09v-6.27a17 17 0 0 1-3-9.61 16.78 16.78 0 0 1 3-9.59V6.14A1.35 1.35 0 0 1 7.42 4.8h25.3m0-1H7.42a2.34 2.34 0 0 0-2.34 2.34V10a18 18 0 0 0 0 19.81v6a2.1 2.1 0 0 0 2.09 2.09H33a2.1 2.1 0 0 0 2.09-2.09v-6a18 18 0 0 0 0-19.86V6.14a2.34 2.34 0 0 0-2.36-2.34Z" fill="#3d79cc"/><path d="M37.06 19.86a16.88 16.88 0 0 1-3 9.62v6.26a1.11 1.11 0 0 1-1.1 1.1H7.17a1.1 1.1 0 0 1-1.09-1.1v-1.8h24a1.11 1.11 0 0 0 1.1-1.1v-6.25a17 17 0 0 0 0-19.24V4.8h1.55a1.34 1.34 0 0 1 1.34 1.35v4.09a16.88 16.88 0 0 1 2.99 9.62Z" fill="#231f20" opacity=".1"/><path d="M22.68.76h6.06a.91.91 0 0 1 .91.91v2.54h0-7.89 0V1.67a.91.91 0 0 1 .92-.91Z" fill="none" stroke="#3d79cc" stroke-linecap="round" stroke-linejoin="round"/><path d="M20.09 32.53A11.93 11.93 0 1 1 32 20.6a11.94 11.94 0 0 1-11.91 11.93Z" fill="#e6e7e8"/><path d="M20.09 9.05A11.55 11.55 0 1 1 8.54 20.6 11.55 11.55 0 0 1 20.09 9.05m0-.75a12.3 12.3 0 1 0 12.3 12.3 12.31 12.31 0 0 0-12.3-12.3Z" fill="#8e9bba"/><path d="M35.67 19.81A5.15 5.15 0 0 1 30.49 25h-5.26v6a5.17 5.17 0 0 1-10.34 0v-6H9.63a5.16 5.16 0 1 1 0-10.33h7.14a5.17 5.17 0 0 1 6.58 0h7.13a5.17 5.17 0 0 1 5.19 5.14Z" fill="#e6e7e8" stroke="#8e9bba" stroke-linecap="round" stroke-linejoin="round" stroke-width=".75"/><circle cx="9.7" cy="19.89" r="2.64" fill="#231f20" opacity=".15"/><circle cx="30.46" cy="19.89" r="2.64" fill="#231f20" opacity=".15"/><circle cx="20.08" cy="30.99" r="2.64" fill="#231f20" opacity=".15"/><circle cx="20.08" cy="20.61" r="4.45" transform="rotate(-45 20.087 20.61)" fill="#e57055" stroke="#d65b56" stroke-linecap="round" stroke-linejoin="round"/><path fill="#e57055" stroke="#58595b" stroke-linecap="round" stroke-linejoin="round" d="m18.62 22.08 2.93-2.93M18.62 19.15l2.93 2.93"/><path d="M26 8.57h10.64a2.24 2.24 0 0 1 2.21 2.63l-3.36 19.5a2.24 2.24 0 0 1-2.21 1.86h-4.07A2.24 2.24 0 0 1 27 30.69l-3.26-19.51A2.24 2.24 0 0 1 26 8.57Z" fill="#fff"/><path d="m38.81 11.37-.92 5.35H24.68l-.89-5.36A2.23 2.23 0 0 1 26 8.76h10.61a2.23 2.23 0 0 1 2.2 2.61Z" fill="#2ff42f" stroke="#fff" stroke-linecap="round" stroke-linejoin="round" opacity=".2"/><path fill="#2ff42f" stroke="#fff" stroke-linecap="round" stroke-linejoin="round" d="m37.89 16.71-1.37 7.95H26.01l-1.33-7.95h13.21zM36.52 24.67l-1 6.1a2.22 2.22 0 0 1-2.2 1.85h-4A2.23 2.23 0 0 1 27 30.75l-1-6.08h10.52Z"/><path d="M36.64 9.57A1.24 1.24 0 0 1 37.87 11l-3.36 19.53a1.24 1.24 0 0 1-1.23 1h-4.07a1.24 1.24 0 0 1-1.23-1L24.73 11A1.24 1.24 0 0 1 26 9.57h10.64m0-1H26a2.24 2.24 0 0 0-2.21 2.61L27 30.69a2.24 2.24 0 0 0 2.21 1.88h4.07a2.24 2.24 0 0 0 2.21-1.86l3.36-19.51a2.24 2.24 0 0 0-2.21-2.63Z" fill="#fff"/><path d="M36.64 8.57a2.24 2.24 0 0 1 2.21 2.63l-3.36 19.5a2.24 2.24 0 0 1-2.21 1.86h-4.07A2.24 2.24 0 0 1 27 30.69l-3.26-19.51A2.24 2.24 0 0 1 26 8.57h10.64m0-1H26a3.24 3.24 0 0 0-3.2 3.78L26 30.86a3.23 3.23 0 0 0 3.2 2.71h4.07a3.24 3.24 0 0 0 3.2-2.69l3.36-19.51a3.24 3.24 0 0 0-3.2-3.8Z" fill="#3d79cc"/></svg>