<svg xmlns="http://www.w3.org/2000/svg" viewBox="0 0 40 40"><rect width="16.77" height="32.6" x="11.7" y="3.71" fill="#fff" stroke="#7c87a5" stroke-linecap="round" stroke-linejoin="round" rx=".85" ry=".85"/><path fill="#231f20" stroke="#231f20" stroke-linecap="round" stroke-linejoin="round" d="M11.7 34.61h11.68a3.38 3.38 0 0 0 3.38-3.38V3.81h.85a.84.84 0 0 1 .84.84v30.8a.84.84 0 0 1-.84.84H12.54a.84.84 0 0 1-.84-.84z" opacity=".1"/><circle cx="24" cy="31.62" r="2.59" fill="#fff" stroke="#7c87a5" stroke-linecap="round" stroke-linejoin="round"/><circle cx="16.16" cy="31.62" r="2.59" fill="#fff" stroke="#7c87a5" stroke-linecap="round" stroke-linejoin="round"/><circle cx="24" cy="23.88" r="2.59" fill="#fff" stroke="#7c87a5" stroke-linecap="round" stroke-linejoin="round"/><circle cx="16.16" cy="23.88" r="2.59" fill="#fff" stroke="#7c87a5" stroke-linecap="round" stroke-linejoin="round"/><circle cx="24" cy="16.13" r="2.59" fill="#fff" stroke="#7c87a5" stroke-linecap="round" stroke-linejoin="round"/><circle cx="16.16" cy="16.13" r="2.59" fill="#fff" stroke="#7c87a5" stroke-linecap="round" stroke-linejoin="round"/><circle cx="24" cy="8.39" r="2.59" fill="#fff" stroke="#7c87a5" stroke-linecap="round" stroke-linejoin="round"/><circle cx="16.16" cy="8.39" r="2.59" fill="#fff" stroke="#7c87a5" stroke-linecap="round" stroke-linejoin="round"/><path fill="#4c97ff" d="M34.34 25.12a1.1 1.1 0 0 1-1.1-1.1v-1.14L27 21.58a1.64 1.64 0 0 1-1-.7 1.6 1.6 0 0 1-.23-1.23A1.65 1.65 0 0 1 27 18.38l6.21-1.3V16a1.11 1.11 0 0 1 1.11-1.1 1.08 1.08 0 0 1 .77.32l4 4a1.08 1.08 0 0 1 0 1.55l-4 4a1.07 1.07 0 0 1-.75.35"/><path fill="#3d79cc" d="M34.34 15.38a.58.58 0 0 1 .41.17l4 4a.58.58 0 0 1 0 .84l-4 4a.57.57 0 0 1-.42.18.6.6 0 0 1-.6-.6v-1.5l-6.61-1.38a1.14 1.14 0 0 1-.88-1.34 1.15 1.15 0 0 1 .88-.88l6.61-1.38V16a.6.6 0 0 1 .61-.6m0-1a1.61 1.61 0 0 0-1.6 1.6v.7l-5.81 1.21a2.15 2.15 0 0 0-1.65 1.65 2.1 2.1 0 0 0 .3 1.61 2.13 2.13 0 0 0 1.34.92l5.82 1.21v.7a1.6 1.6 0 0 0 1.6 1.6 1.57 1.57 0 0 0 1.13-.48l4-4a1.58 1.58 0 0 0 0-2.27l-4-4a1.58 1.58 0 0 0-1.12-.47Z"/><path fill="#4c97ff" d="M5.63 25.12a1.08 1.08 0 0 1-.77-.32l-4-4a1.08 1.08 0 0 1 0-1.55l4-4a1.07 1.07 0 0 1 .77-.32A1.1 1.1 0 0 1 6.74 16v1.14l6.21 1.3a1.63 1.63 0 0 1 0 3.2l-6.21 1.3V24a1.11 1.11 0 0 1-1.11 1.12"/><path fill="#3d79cc" d="M5.63 15.38a.6.6 0 0 1 .6.6v1.55l6.61 1.38a1.14 1.14 0 0 1 .88 1.34 1.15 1.15 0 0 1-.88.88l-6.6 1.38V24a.6.6 0 0 1-.61.6.58.58 0 0 1-.41-.17l-4-4a.58.58 0 0 1 0-.84l4-4a.57.57 0 0 1 .42-.18m0-1a1.57 1.57 0 0 0-1.13.48l-4 4a1.58 1.58 0 0 0 0 2.27l4 4a1.58 1.58 0 0 0 1.12.47A1.61 1.61 0 0 0 7.24 24v-.7l5.81-1.21a2.15 2.15 0 0 0 1.65-1.65 2.1 2.1 0 0 0-.3-1.61 2.13 2.13 0 0 0-1.34-.92l-5.82-1.2V16a1.6 1.6 0 0 0-1.6-1.6Z"/><path fill="#4c97ff" d="M20 39.47a1.07 1.07 0 0 1-.78-.33l-4-4a1.08 1.08 0 0 1-.24-1.19 1.09 1.09 0 0 1 1-.69h1.14L18.4 27a1.65 1.65 0 0 1 1.6-1.3 1.6 1.6 0 0 1 .34 0A1.65 1.65 0 0 1 21.6 27l1.3 6.21H24a1.1 1.1 0 0 1 .78 1.87l-4 4a1.06 1.06 0 0 1-.78.39"/><path fill="#3d79cc" d="M20 26.24h.23a1.15 1.15 0 0 1 .88.88l1.38 6.61H24a.6.6 0 0 1 .43 1l-4 4a.58.58 0 0 1-.84 0l-4-4a.6.6 0 0 1 .42-1h1.55l1.38-6.61a1.14 1.14 0 0 1 1.11-.9m0-1a2.15 2.15 0 0 0-2.09 1.7l-1.26 5.83H16a1.6 1.6 0 0 0-1.12 2.74l4 4a1.58 1.58 0 0 0 2.27 0l4-4A1.6 1.6 0 0 0 24 32.75h-.7l-1.21-5.81a2.15 2.15 0 0 0-1.65-1.65 2 2 0 0 0-.44 0Z"/><path fill="#4c97ff" d="M20 14.26a1.6 1.6 0 0 1-.34 0A1.65 1.65 0 0 1 18.37 13l-1.3-6.21H16a1.1 1.1 0 0 1-.78-1.87l4-4a1.08 1.08 0 0 1 1.55 0l4 4A1.1 1.1 0 0 1 24 6.75h-1.14L21.57 13A1.64 1.64 0 0 1 20 14.26"/><path fill="#3d79cc" d="M20 1a.58.58 0 0 1 .42.18l4 4a.6.6 0 0 1-.42 1h-1.54l-1.38 6.61a1.14 1.14 0 0 1-1.11.9h-.23a1.15 1.15 0 0 1-.88-.88l-1.38-6.56H16a.6.6 0 0 1-.43-1l4-4A.58.58 0 0 1 20 1m0-1a1.6 1.6 0 0 0-1.14.49l-4 4A1.6 1.6 0 0 0 16 7.25h.7l1.21 5.81a2.15 2.15 0 0 0 1.65 1.65 2.13 2.13 0 0 0 2.53-1.65l1.21-5.82h.7a1.6 1.6 0 0 0 1.12-2.74l-4-4A1.58 1.58 0 0 0 20 0"/></svg>