<svg xmlns="http://www.w3.org/2000/svg" viewBox="0 0 40 40"><path d="M11.43.58h5.87a1 1 0 0 1 1 1v3h-7.88v-3a1 1 0 0 1 1.01-1Z" fill="#e6e7e8"/><path d="M15.59.58v4h2.71V1.34a.88.88 0 0 0-1-.76h-1.71Z" fill="#231f20" stroke="#231f20" stroke-linecap="round" stroke-linejoin="round" opacity=".1"/><path d="M11.43.58h5.87a1 1 0 0 1 1 1v3h0-7.88 0v-3a1 1 0 0 1 1.01-1Z" fill="none" stroke="#3d79cc" stroke-linecap="round" stroke-linejoin="round"/><path d="M29.56 3.62h-7.89v-2a1 1 0 0 1 1-1h5.87a1 1 0 0 1 1 1v2Z" fill="#e6e7e8"/><path d="M26.85.58v4h2.71V1.34a.88.88 0 0 0-1-.76h-1.71Z" fill="#231f20" stroke="#231f20" stroke-linecap="round" stroke-linejoin="round" opacity=".1"/><path d="M7.09 37.15a1.59 1.59 0 0 1-1.59-1.59v-6.12a17.46 17.46 0 0 1 0-19.51V6a1.84 1.84 0 0 1 1.83-1.88h25.3A1.84 1.84 0 0 1 34.48 6v3.91a17.46 17.46 0 0 1 0 19.55v6.1a1.59 1.59 0 0 1-1.59 1.59H7.09Z" fill="#e6e7e8"/><path d="M32.64 4.62A1.34 1.34 0 0 1 34 6v4.1a17 17 0 0 1 0 19.2v6.26a1.1 1.1 0 0 1-1.09 1.09H7.09A1.1 1.1 0 0 1 6 35.56v-6.27a17 17 0 0 1-3-9.61 16.78 16.78 0 0 1 3-9.59V6a1.35 1.35 0 0 1 1.33-1.38h25.3m0-1H7.33A2.34 2.34 0 0 0 5 6v3.78a18 18 0 0 0 0 19.81v6a2.1 2.1 0 0 0 2.09 2.09h25.8A2.1 2.1 0 0 0 35 35.56v-6a18 18 0 0 0 0-19.81V6a2.34 2.34 0 0 0-2.34-2.34Z" fill="#3d79cc"/><path d="M37 19.68a16.88 16.88 0 0 1-3 9.62v6.26a1.11 1.11 0 0 1-1.1 1.1H7.08A1.1 1.1 0 0 1 6 35.56v-1.79h24a1.11 1.11 0 0 0 1.1-1.1v-6.26a17 17 0 0 0 0-19.24V4.62h1.55A1.34 1.34 0 0 1 34 6v4.09a16.88 16.88 0 0 1 3 9.59Z" fill="#231f20" opacity=".1"/><path d="M22.59.58h6.06a.91.91 0 0 1 .91.91V4h0-7.89 0V1.49a.91.91 0 0 1 .92-.91Z" fill="none" stroke="#3d79cc" stroke-linecap="round" stroke-linejoin="round"/><path d="M20 32.35a11.93 11.93 0 1 1 11.93-11.93A11.94 11.94 0 0 1 20 32.35Z" fill="#e6e7e8"/><path d="M20 8.87A11.55 11.55 0 1 1 8.45 20.42 11.55 11.55 0 0 1 20 8.87m0-.75a12.3 12.3 0 1 0 12.3 12.3A12.31 12.31 0 0 0 20 8.12Z" fill="#8e9bba"/><path d="M35.58 19.63a5.15 5.15 0 0 1-5.18 5.16h-5.26v6a5.17 5.17 0 0 1-10.34 0v-6H9.54a5.16 5.16 0 1 1 0-10.33h7.14a5.17 5.17 0 0 1 6.58 0h7.14a5.17 5.17 0 0 1 5.18 5.17Z" fill="#e6e7e8" stroke="#8e9bba" stroke-linecap="round" stroke-linejoin="round" stroke-width=".75"/><circle cx="9.61" cy="19.71" r="2.64" fill="#231f20" opacity=".15"/><circle cx="30.37" cy="19.71" r="2.64" fill="#231f20" opacity=".15"/><circle cx="20" cy="30.81" r="2.64" fill="#231f20" opacity=".15"/><circle cx="19.99" cy="20.43" r="4.45" transform="rotate(-45 19.992 20.429)" fill="#e57055" stroke="#d65b56" stroke-linecap="round" stroke-linejoin="round"/><path fill="#e57055" stroke="#58595b" stroke-linecap="round" stroke-linejoin="round" d="m18.53 21.9 2.93-2.93M18.53 18.97l2.93 2.93"/><path d="M31 10.26A15 15 0 1 1 8.52 30.07" fill="none" stroke="#3d79cc" stroke-linecap="round" stroke-linejoin="round" stroke-width="7"/><path d="M25.42 14.7a1.61 1.61 0 0 1-1.6-1.34L22 2.65A1.61 1.61 0 0 1 23.6.77h.26L34.58 2.5a1.61 1.61 0 0 1 .89 2.73l-8.91 9a1.6 1.6 0 0 1-1.14.48Z" fill="#fff"/><path d="M23.6 1.27h.18L34.5 3a1.11 1.11 0 0 1 .61 1.88l-8.91 9a1.09 1.09 0 0 1-.78.33 1.11 1.11 0 0 1-1.1-.93L22.51 2.56a1.11 1.11 0 0 1 1.09-1.3m0-1a2.11 2.11 0 0 0-2.08 2.46l1.81 10.71a2.11 2.11 0 0 0 3.58 1.13l8.91-9A2.11 2.11 0 0 0 34.66 2L23.94.29h-.34Z" fill="#3d79cc"/><path d="M31 10.26A15 15 0 1 1 8.52 30.07" fill="none" stroke="#fff" stroke-linecap="round" stroke-linejoin="round" stroke-width="5"/></svg>