<svg xmlns="http://www.w3.org/2000/svg" viewBox="0 0 40 40"><path d="M5.66 5.61h0a5.65 5.65 0 0 1-1.66-4v-.5" fill="none" stroke="#7c87a5" stroke-linecap="round" stroke-linejoin="round" stroke-width="2"/><path d="m39.46 14.5-4 4a1.58 1.58 0 0 1-1.13.46 1.65 1.65 0 0 1-1.14-.46l-4-4a1.6 1.6 0 0 1 1.15-2.72h.63a6.37 6.37 0 0 0 0-.81 6 6 0 0 0-.47-1.69 6.43 6.43 0 0 0-.51-.92 7.39 7.39 0 0 0-.74-.91 6.72 6.72 0 0 0-1.95-1.36 6.83 6.83 0 0 0-2-.63 6.37 6.37 0 0 0-1.17-.1h-.41a2.73 2.73 0 0 0-.31 0h-.49a1.37 1.37 0 0 1-1.38-1.16 1.39 1.39 0 0 1 .83-1.44l.2-.08.58-.2A11.43 11.43 0 0 1 25.37 2h1a11.71 11.71 0 0 1 2.2.21 11.28 11.28 0 0 1 3.59 1.39 10.87 10.87 0 0 1 1.59 1.15 12 12 0 0 1 1.4 1.43 12.25 12.25 0 0 1 2.54 5.54h.64a1.6 1.6 0 0 1 1.13 2.78Z" fill="#3d79cc"/><rect x="12.98" y="1.01" width="11.83" height="40.55" rx=".84" ry=".84" transform="rotate(-45 18.887 21.287)" fill="#fff" stroke="#7c87a5" stroke-linecap="round" stroke-linejoin="round"/><path d="m33.84 33.84-7.52-7.52a.84.84 0 0 0-.6-.25h-4.08a.84.84 0 0 1-.6-.25l-6.68-6.68a.84.84 0 0 1-.25-.6v-4.07a.84.84 0 0 0-.25-.6L6.35 6.35a.84.84 0 0 0-1.19 0L1 10.53a.84.84 0 0 0 0 1.19l27.46 27.49a.84.84 0 0 0 1.19 0L33.84 35a.84.84 0 0 0 0-1.16Z" fill="#e6e7e8" stroke="#7c87a5" stroke-linecap="round" stroke-linejoin="round"/><path d="M17.89 17.24a5.07 5.07 0 0 1 5.12 5" fill="none" stroke="#7c87a5" stroke-linecap="round" stroke-linejoin="round" stroke-width=".75"/><path fill="none" stroke="#7c87a5" stroke-linecap="round" stroke-linejoin="round" stroke-width=".75" d="m18.74 18.72-1.38-1.36 1.36-1.39M24.24 21.4l-1.36 1.38-1.38-1.36"/><path d="m13.03 2.272 3.535 3.536a1 1 0 0 1 0 1.414l-1.69 1.69-4.95-4.95 1.69-1.69a1 1 0 0 1 1.415 0Z" fill="#fff"/><path d="m15.56 4.79-2.4 2.4 1.69 1.69 1.8-1.8a.84.84 0 0 0 0-1.19Z" fill="#231f20" stroke="#231f20" stroke-linecap="round" stroke-linejoin="round" opacity=".1"/><path d="m13.03 2.272 3.535 3.536a1 1 0 0 1 0 1.414l-1.69 1.69h0l-4.95-4.95h0l1.69-1.69a1 1 0 0 1 1.415 0Z" fill="none" stroke="#7c87a5" stroke-linecap="round" stroke-linejoin="round"/><path d="m20.067 9.297 3.535 3.535a1 1 0 0 1 0 1.415l-1.69 1.69-4.95-4.95 1.69-1.69a1 1 0 0 1 1.415 0Z" fill="#fff"/><path d="m22.59 11.82-2.4 2.4 1.69 1.69 1.8-1.8a.84.84 0 0 0 0-1.19Z" fill="#231f20" stroke="#231f20" stroke-linecap="round" stroke-linejoin="round" opacity=".1"/><path d="m20.067 9.297 3.535 3.535a1 1 0 0 1 0 1.415l-1.69 1.69h0l-4.95-4.95h0l1.69-1.69a1 1 0 0 1 1.415 0Z" fill="none" stroke="#7c87a5" stroke-linecap="round" stroke-linejoin="round"/><path d="m27.377 16.605 3.535 3.535a1 1 0 0 1 0 1.415l-1.69 1.69-4.95-4.95 1.69-1.69a1 1 0 0 1 1.415 0Z" fill="#fff"/><path d="m29.9 19.13-2.4 2.4 1.69 1.69 1.8-1.8a.84.84 0 0 0 0-1.19Z" fill="#231f20" stroke="#231f20" stroke-linecap="round" stroke-linejoin="round" opacity=".1"/><path d="m27.377 16.605 3.535 3.535a1 1 0 0 1 0 1.415l-1.69 1.69h0l-4.95-4.95h0l1.69-1.69a1 1 0 0 1 1.415 0Z" fill="none" stroke="#7c87a5" stroke-linecap="round" stroke-linejoin="round"/><path d="m34.39 23.63 3.535 3.535a1 1 0 0 1 0 1.414l-1.69 1.69-4.95-4.95 1.69-1.69a1 1 0 0 1 1.415 0Z" fill="#fff"/><path d="m36.92 26.15-2.4 2.4 1.69 1.69 1.8-1.8a.84.84 0 0 0 0-1.19Z" fill="#231f20" stroke="#231f20" stroke-linecap="round" stroke-linejoin="round" opacity=".1"/><path d="m34.39 23.63 3.535 3.535a1 1 0 0 1 0 1.414l-1.69 1.69h0l-4.95-4.95h0l1.69-1.69a1 1 0 0 1 1.415 0Z" fill="none" stroke="#7c87a5" stroke-linecap="round" stroke-linejoin="round"/><path d="M1.57 9.93 26.65 35a3.38 3.38 0 0 0 4.78 0l4.78-4.78.6.6a.84.84 0 0 1 0 1.19l-7.17 7.17a.84.84 0 0 1-1.19 0L1 11.73a.84.84 0 0 1 0-1.19Z" fill="#231f20" stroke="#231f20" stroke-linecap="round" stroke-linejoin="round" opacity=".1"/><path d="m38.75 13.79-4 4a.61.61 0 0 1-.85 0l-4-4a.6.6 0 0 1 .43-1h1.55v-.5a6.31 6.31 0 0 0 0-1.43 7.05 7.05 0 0 0-.56-2 8.57 8.57 0 0 0-.59-1.06 10.47 10.47 0 0 0-.84-1 7.76 7.76 0 0 0-2.14-1.55 8.16 8.16 0 0 0-2.31-.72 8.29 8.29 0 0 0-1.76-.1h-.52l-.16.01a.39.39 0 0 1-.43-.35.4.4 0 0 1 .24-.41s.23-.1.69-.25a10 10 0 0 1 2-.41 10 10 0 0 1 6.18 1.43 10.49 10.49 0 0 1 1.42 1.06 11.1 11.1 0 0 1 1.27 1.3A11.29 11.29 0 0 1 36 9.62a11.67 11.67 0 0 1 .66 2.27c.08.47.12.78.13.88h1.5a.6.6 0 0 1 .46 1.02Z" fill="#4c97ff"/></svg>