<svg xmlns="http://www.w3.org/2000/svg" viewBox="0 0 40 40"><path d="m39.46 14.5-4 4a1.58 1.58 0 0 1-1.13.46 1.65 1.65 0 0 1-1.14-.46l-4-4a1.6 1.6 0 0 1 1.15-2.72h.63a6.37 6.37 0 0 0 0-.81 6 6 0 0 0-.47-1.69 6.43 6.43 0 0 0-.51-.92 7.39 7.39 0 0 0-.74-.91 6.72 6.72 0 0 0-1.95-1.36 6.83 6.83 0 0 0-2-.63 6.37 6.37 0 0 0-1.17-.1h-.41a2.73 2.73 0 0 0-.31 0h-.49a1.37 1.37 0 0 1-1.38-1.16 1.39 1.39 0 0 1 .83-1.44l.2-.08.58-.2A11.43 11.43 0 0 1 25.37 2h1a11.71 11.71 0 0 1 2.2.21 11.28 11.28 0 0 1 3.59 1.39 10.87 10.87 0 0 1 1.59 1.15 12 12 0 0 1 1.4 1.43 12.25 12.25 0 0 1 2.54 5.54h.64a1.6 1.6 0 0 1 1.13 2.78Z" fill="#3d79cc"/><rect x="8.64" y="15.3" width="20.28" height="11.83" rx="1" ry="1" transform="rotate(45 18.784 21.21)" fill="#fff" stroke="#7c87a5" stroke-linecap="round" stroke-linejoin="round"/><path d="m20.092 9.375 3.535 3.535a1 1 0 0 1 0 1.414L21.951 16l-4.95-4.95 1.676-1.675a1 1 0 0 1 1.415 0Z" fill="#fff"/><path d="M26.55 26.59 25 25a.84.84 0 0 0-.6-.25h-4.07a.84.84 0 0 1-.6-.25l-4.28-4.28a.84.84 0 0 1-.25-.6v-4.03A.84.84 0 0 0 15 15l-1.54-1.54a.84.84 0 0 0-1.19 0L8 17.63a.84.84 0 0 0 0 1.19L21.17 32a.84.84 0 0 0 1.19 0l4.18-4.18a.84.84 0 0 0 .01-1.23Z" fill="#e6e7e8" stroke="#7c87a5" stroke-linecap="round" stroke-linejoin="round"/><path d="M17.77 17.17a5.07 5.07 0 0 1 5.12 5" fill="none" stroke="#7c87a5" stroke-linecap="round" stroke-linejoin="round" stroke-width=".75"/><path fill="none" stroke="#7c87a5" stroke-linecap="round" stroke-linejoin="round" stroke-width=".75" d="m18.63 18.65-1.38-1.36 1.36-1.38M24.13 21.33l-1.36 1.39-1.39-1.36"/><path d="m22.62 11.9-2.4 2.4 1.69 1.7 1.8-1.8a.84.84 0 0 0 0-1.19Z" fill="#231f20" stroke="#231f20" stroke-linecap="round" stroke-linejoin="round" opacity=".1"/><path d="m20.092 9.375 3.535 3.535a1 1 0 0 1 0 1.414L21.951 16h0l-4.95-4.95h0l1.676-1.675a1 1 0 0 1 1.415 0Z" fill="none" stroke="#7c87a5" stroke-linecap="round" stroke-linejoin="round"/><path d="m27.129 16.4 3.535 3.535a1 1 0 0 1 0 1.414l-1.662 1.662-4.95-4.95 1.662-1.661a1 1 0 0 1 1.415 0Z" fill="#fff"/><path d="m29.64 18.92-2.4 2.4 1.7 1.68 1.8-1.8a.84.84 0 0 0 0-1.19Z" fill="#231f20" stroke="#231f20" stroke-linecap="round" stroke-linejoin="round" opacity=".1"/><path d="m27.129 16.4 3.535 3.535a1 1 0 0 1 0 1.414l-1.662 1.662h0l-4.95-4.95h0l1.662-1.661a1 1 0 0 1 1.415 0Z" fill="none" stroke="#7c87a5" stroke-linecap="round" stroke-linejoin="round"/><path d="m8.63 17 10.74 10.78a3.38 3.38 0 0 0 4.78 0L28.93 23l.6.6a.84.84 0 0 1 0 1.19L22.37 32a.84.84 0 0 1-1.19 0L8 18.83a.84.84 0 0 1 0-1.19Z" fill="#231f20" stroke="#231f20" stroke-linecap="round" stroke-linejoin="round" opacity=".1"/><path d="m38.75 13.79-4 4a.61.61 0 0 1-.85 0l-4-4a.6.6 0 0 1 .43-1h1.55v-.5a6.31 6.31 0 0 0 0-1.43 7.05 7.05 0 0 0-.56-2 8.57 8.57 0 0 0-.59-1.06 10.47 10.47 0 0 0-.84-1 7.76 7.76 0 0 0-2.14-1.55 8.16 8.16 0 0 0-2.31-.72 8.29 8.29 0 0 0-1.76-.1h-.52l-.16.01a.39.39 0 0 1-.43-.35.4.4 0 0 1 .24-.41s.23-.1.69-.25a10 10 0 0 1 2-.41 10 10 0 0 1 6.18 1.43 10.49 10.49 0 0 1 1.42 1.06 11.1 11.1 0 0 1 1.27 1.3A11.29 11.29 0 0 1 36 9.62a11.67 11.67 0 0 1 .66 2.27c.08.47.12.78.13.88h1.5a.6.6 0 0 1 .46 1.02Z" fill="#4c97ff"/></svg>