<svg xmlns="http://www.w3.org/2000/svg" viewBox="0 0 40 40"><path fill="none" stroke="#7c87a5" stroke-linecap="round" stroke-linejoin="round" stroke-width="2" d="M5.57 34.45a5.65 5.65 0 0 1-4 1.66h-.5"/><path fill="#3d79cc" d="M18.54 4.18a1.37 1.37 0 0 1-1.38 1.26h-.5a2 2 0 0 0-.3 0H16a7 7 0 0 0-1.19.1 7 7 0 0 0-2 .63 7.2 7.2 0 0 0-1.84 1.32 10 10 0 0 0-.74.91 8 8 0 0 0-.51.92A6.2 6.2 0 0 0 9.2 11a5 5 0 0 0 0 .81h.59a1.59 1.59 0 0 1 1.47 1 1.61 1.61 0 0 1-.34 1.75l-4 4a1.62 1.62 0 0 1-1.15.44 1.58 1.58 0 0 1-1.13-.46l-4-4a1.6 1.6 0 0 1 1.13-2.73h.61a13 13 0 0 1 .72-2.48 11.9 11.9 0 0 1 3.2-4.48 12.4 12.4 0 0 1 1.62-1.26 11.4 11.4 0 0 1 3.58-1.4A11.5 11.5 0 0 1 13.69 2a9 9 0 0 1 1 0 11 11 0 0 1 2.2.45l.57.2.19.08a1.39 1.39 0 0 1 .89 1.45"/><rect width="40.55" height="11.83" x=".91" y="15.37" fill="#fff" stroke="#7c87a5" stroke-linecap="round" stroke-linejoin="round" rx=".84" ry=".84" transform="rotate(-45 21.178 21.288)"/><path fill="#e6e7e8" stroke="#7c87a5" stroke-linecap="round" stroke-linejoin="round" d="m6.24 33.84 7.52-7.52a.84.84 0 0 1 .6-.25h4.08a.84.84 0 0 0 .6-.25l6.68-6.68a.84.84 0 0 0 .25-.6v-4.07a.84.84 0 0 1 .25-.6l7.52-7.52a.84.84 0 0 1 1.19 0l4.18 4.18a.84.84 0 0 1 0 1.19l-27.5 27.49a.84.84 0 0 1-1.19 0L6.24 35a.84.84 0 0 1 0-1.16"/><path fill="none" stroke="#7c87a5" stroke-linecap="round" stroke-linejoin="round" stroke-width=".75" d="M22.19 17.24a5.07 5.07 0 0 0-5.12 5"/><path fill="none" stroke="#7c87a5" stroke-linecap="round" stroke-linejoin="round" stroke-width=".75" d="m21.33 18.72 1.39-1.36-1.36-1.39M15.84 21.4l1.36 1.38 1.38-1.36"/><path fill="#fff" d="m30.14 3.957-4.95 4.95-1.69-1.69a1 1 0 0 1 0-1.414l3.536-3.536a1 1 0 0 1 1.414 0z"/><path fill="#231f20" stroke="#231f20" stroke-linecap="round" stroke-linejoin="round" d="m24.52 4.79 2.4 2.4-1.7 1.69-1.8-1.8a.84.84 0 0 1 0-1.19Z" opacity=".1"/><path fill="none" stroke="#7c87a5" stroke-linecap="round" stroke-linejoin="round" d="m30.14 3.957-4.95 4.95h0l-1.69-1.69a1 1 0 0 1 0-1.414l3.536-3.536a1 1 0 0 1 1.414 0z"/><path fill="#fff" d="m23.106 11.004-4.95 4.95-1.69-1.69a1 1 0 0 1 0-1.415l3.536-3.535a1 1 0 0 1 1.414 0z"/><path fill="#231f20" stroke="#231f20" stroke-linecap="round" stroke-linejoin="round" d="m17.49 11.82 2.4 2.4-1.69 1.69-1.8-1.8a.84.84 0 0 1 0-1.19Z" opacity=".1"/><path fill="none" stroke="#7c87a5" stroke-linecap="round" stroke-linejoin="round" d="m23.106 11.004-4.95 4.95h0l-1.69-1.69a1 1 0 0 1 0-1.415l3.536-3.535a1 1 0 0 1 1.414 0z"/><path fill="#fff" d="m15.81 18.302-4.95 4.95-1.69-1.69a1 1 0 0 1 0-1.415l3.536-3.535a1 1 0 0 1 1.414 0z"/><path fill="#231f20" stroke="#231f20" stroke-linecap="round" stroke-linejoin="round" d="m10.18 19.13 2.4 2.4-1.69 1.69-1.8-1.8a.84.84 0 0 1 0-1.19Z" opacity=".1"/><path fill="none" stroke="#7c87a5" stroke-linecap="round" stroke-linejoin="round" d="m15.81 18.302-4.95 4.95h0l-1.69-1.69a1 1 0 0 1 0-1.415l3.536-3.535a1 1 0 0 1 1.414 0z"/><path fill="#fff" d="m8.78 25.32-4.95 4.95-1.69-1.69a1 1 0 0 1 0-1.415l3.536-3.535a1 1 0 0 1 1.414 0z"/><path fill="#231f20" stroke="#231f20" stroke-linecap="round" stroke-linejoin="round" d="m3.15 26.15 2.4 2.4-1.69 1.69-1.8-1.8a.84.84 0 0 1 0-1.19Z" opacity=".1"/><path fill="none" stroke="#7c87a5" stroke-linecap="round" stroke-linejoin="round" d="m8.78 25.32-4.95 4.95h0l-1.69-1.69a1 1 0 0 1 0-1.415l3.536-3.535a1 1 0 0 1 1.414 0z"/><path fill="#231f20" stroke="#231f20" stroke-linecap="round" stroke-linejoin="round" d="M38.51 9.93 13.42 35a3.38 3.38 0 0 1-4.78 0l-4.77-4.76-.6.6a.84.84 0 0 0 0 1.19l7.17 7.17a.84.84 0 0 0 1.19 0L39.1 11.73a.84.84 0 0 0 0-1.19Z" opacity=".1"/><path fill="#4c97ff" d="m1.33 13.79 4 4a.61.61 0 0 0 .85 0l4-4a.6.6 0 0 0-.43-1H8.24v-.5a6.3 6.3 0 0 1 0-1.43 7 7 0 0 1 .56-2 8.6 8.6 0 0 1 .59-1.06 11 11 0 0 1 .84-1 7.8 7.8 0 0 1 2.14-1.55 8.2 8.2 0 0 1 2.31-.72 8.3 8.3 0 0 1 1.76-.1h.71a.39.39 0 0 0 .43-.35.4.4 0 0 0-.24-.41s-.23-.1-.69-.25a10 10 0 0 0-2-.41 10 10 0 0 0-6.21 1.44A10.5 10.5 0 0 0 7 5.51a11 11 0 0 0-1.27 1.3A11.3 11.3 0 0 0 4 9.62a11.7 11.7 0 0 0-.66 2.27c-.08.47-.12.78-.13.88H1.75a.6.6 0 0 0-.42 1.02"/></svg>