<svg xmlns="http://www.w3.org/2000/svg" viewBox="0 0 40 40"><rect x="11.06" y="15.3" width="20.28" height="11.83" rx="1" ry="1" transform="rotate(135 21.203 21.219)" fill="#fff" stroke="#7c87a5" stroke-linecap="round" stroke-linejoin="round"/><path d="m22.996 11.061-4.95 4.95-1.676-1.676a1 1 0 0 1 0-1.414l3.536-3.536a1 1 0 0 1 1.414 0l1.676 1.676Z" fill="#fff"/><path d="M13.43 26.59 15 25a.84.84 0 0 1 .6-.25h4.08a.84.84 0 0 0 .6-.25l4.28-4.28a.84.84 0 0 0 .25-.6v-4.03A.84.84 0 0 1 25 15l1.54-1.54a.84.84 0 0 1 1.19 0L32 17.63a.84.84 0 0 1 0 1.19L18.81 32a.84.84 0 0 1-1.19 0l-4.18-4.18a.84.84 0 0 1-.01-1.23Z" fill="#e6e7e8" stroke="#7c87a5" stroke-linecap="round" stroke-linejoin="round"/><path d="M22.21 17.17a5.07 5.07 0 0 0-5.12 5" fill="none" stroke="#7c87a5" stroke-linecap="round" stroke-linejoin="round" stroke-width=".75"/><path fill="none" stroke="#7c87a5" stroke-linecap="round" stroke-linejoin="round" stroke-width=".75" d="m21.35 18.65 1.39-1.36-1.36-1.38M15.86 21.33l1.36 1.39 1.38-1.36"/><path d="m17.36 11.9 2.4 2.4-1.69 1.7-1.8-1.8a.84.84 0 0 1 0-1.19Z" fill="#231f20" stroke="#231f20" stroke-linecap="round" stroke-linejoin="round" opacity=".1"/><path d="m22.996 11.061-4.95 4.95h0l-1.676-1.676a1 1 0 0 1 0-1.414l3.536-3.536a1 1 0 0 1 1.414 0l1.676 1.676h0Z" fill="none" stroke="#7c87a5" stroke-linecap="round" stroke-linejoin="round"/><path d="m15.966 18.093-4.95 4.95-1.662-1.662a1 1 0 0 1 0-1.414l3.536-3.535a1 1 0 0 1 1.414 0l1.662 1.661Z" fill="#fff"/><path d="m10.34 18.92 2.4 2.4L11 23l-1.8-1.8a.84.84 0 0 1 0-1.19Z" fill="#231f20" stroke="#231f20" stroke-linecap="round" stroke-linejoin="round" opacity=".1"/><path d="m15.966 18.093-4.95 4.95h0l-1.662-1.662a1 1 0 0 1 0-1.414l3.536-3.535a1 1 0 0 1 1.414 0l1.662 1.661h0Z" fill="none" stroke="#7c87a5" stroke-linecap="round" stroke-linejoin="round"/><path d="M31.36 17 20.61 27.78a3.38 3.38 0 0 1-4.78 0L11.05 23l-.6.6a.84.84 0 0 0 0 1.19L17.62 32a.84.84 0 0 0 1.19 0L32 18.83a.84.84 0 0 0 0-1.19Z" fill="#231f20" stroke="#231f20" stroke-linecap="round" stroke-linejoin="round" opacity=".1"/><path d="M18.54 4.18a1.37 1.37 0 0 1-1.38 1.26h-.5a2.34 2.34 0 0 0-.3 0H16a6.75 6.75 0 0 0-1.19.1 7 7 0 0 0-2 .63 7.18 7.18 0 0 0-1.84 1.32 9.61 9.61 0 0 0-.74.91 8.08 8.08 0 0 0-.51.92A6.15 6.15 0 0 0 9.2 11a4.84 4.84 0 0 0 0 .81h.59a1.59 1.59 0 0 1 1.47 1 1.61 1.61 0 0 1-.34 1.75l-4 4a1.62 1.62 0 0 1-1.15.44 1.58 1.58 0 0 1-1.13-.46l-4-4a1.6 1.6 0 0 1 1.13-2.73h.61a12.91 12.91 0 0 1 .72-2.48 11.9 11.9 0 0 1 3.2-4.48 12.39 12.39 0 0 1 1.62-1.26 11.37 11.37 0 0 1 3.58-1.4A11.52 11.52 0 0 1 13.69 2a8.88 8.88 0 0 1 1 0 11 11 0 0 1 2.2.45l.57.2.19.08a1.39 1.39 0 0 1 .89 1.45Z" fill="#3d79cc"/><path d="m1.33 13.79 4 4a.61.61 0 0 0 .85 0l4-4a.6.6 0 0 0-.43-1H8.24v-.5a6.31 6.31 0 0 1 0-1.43 7.05 7.05 0 0 1 .56-2 8.57 8.57 0 0 1 .59-1.06 10.47 10.47 0 0 1 .84-1 7.76 7.76 0 0 1 2.14-1.55 8.16 8.16 0 0 1 2.31-.72 8.29 8.29 0 0 1 1.76-.1h.71a.39.39 0 0 0 .43-.35.4.4 0 0 0-.24-.41s-.23-.1-.69-.25a10 10 0 0 0-2-.41 10 10 0 0 0-6.21 1.44A10.49 10.49 0 0 0 7 5.51a11.1 11.1 0 0 0-1.27 1.3A11.29 11.29 0 0 0 4 9.62a11.67 11.67 0 0 0-.66 2.27c-.08.47-.12.78-.13.88H1.75a.6.6 0 0 0-.42 1.02Z" fill="#4c97ff"/></svg>