<svg width="24" height="24" xmlns="http://www.w3.org/2000/svg"><g fill="none" fill-rule="evenodd"><g stroke="#575E75" stroke-width="1.5" stroke-linecap="round" stroke-linejoin="round"><path d="M16.227 10.8h1.44c.733 0 1.333.664 1.333 1.477v8.046c0 .813-.6 1.477-1.333 1.477H6.333C5.6 21.8 5 21.136 5 20.323v-8.046c0-.813.6-1.477 1.333-1.477h4.952"/><path d="m18.934 18.46-2.787-2.749a1.135 1.135 0 0 0-1.526-.065l-3.45 2.683c-.531.393-1.261.328-1.66-.196l-.33-.393c-.399-.523-1.195-.589-1.66-.196L5 19.573v.589c0 .655.53 1.178 1.194 1.178h11.612c.663 0 1.194-.523 1.194-1.178V18.46h-.066Z" fill="#575E75"/></g><path d="m11.05 13.6-.317-.316c-.175-.173-.19-.479-.04-.8l.77-1.649c.17-.368.529-.685.894-.797.452-.136.873-.577.976-1.024l.031-.134a1.4 1.4 0 0 1 .385-.657l4.301-4.304c.415-.413.966-.532 1.233-.264l1.397 1.397c.267.267.148.817-.266 1.23l-4.302 4.303a1.415 1.415 0 0 1-.658.386l-.134.031c-.446.103-.89.523-1.023.974-.112.367-.429.723-.797.895l-1.649.77c-.321.149-.628.135-.802-.04Z" stroke="#575E75" stroke-width="1.2" stroke-linecap="round" stroke-linejoin="round"/><path d="m20.102 7.3-3.068-3.068a.818.818 0 0 1 0-1.155l.6-.6a.818.818 0 0 1 1.156 0l3.068 3.068a.818.818 0 0 1 0 1.155l-.602.6a.813.813 0 0 1-1.154 0" fill="#575E75"/><path d="m18.66 3.918 2.16-2.16a1.24 1.24 0 1 1 1.756 1.755l-2.16 2.16a1.24 1.24 0 1 1-1.755-1.755" fill="#575E75"/></g></svg>