<svg xmlns="http://www.w3.org/2000/svg" viewBox="0 0 24 24"><path d="M20.34 18.21a10.24 10.24 0 0 1-8.1 4.22 2.26 2.26 0 0 1-.16-4.52 5.58 5.58 0 0 0 4.25-2.53 5.06 5.06 0 0 0 .54-4.62A4.25 4.25 0 0 0 15.55 9a4.3 4.3 0 0 0-2-.8 4.82 4.82 0 0 0-3.15.8l1.12 1.41A1.59 1.59 0 0 1 10.36 13H2.67a1.56 1.56 0 0 1-1.26-.63A1.54 1.54 0 0 1 1.13 11l1.72-7.43A1.59 1.59 0 0 1 4.38 2.4a1.57 1.57 0 0 1 1.24.6L6.7 4.35a10.66 10.66 0 0 1 7.72-1.68A9.9 9.9 0 0 1 19 4.81 9.6 9.6 0 0 1 21.83 9a10.08 10.08 0 0 1-1.49 9.21" style="fill:#3d79cc"/><path d="M19.56 17.65a9.29 9.29 0 0 1-7.35 3.83 1.31 1.31 0 0 1-.08-2.62 6.53 6.53 0 0 0 5-2.92 6.05 6.05 0 0 0 .67-5.51 5.3 5.3 0 0 0-1.64-2.16 5.2 5.2 0 0 0-2.48-1A5.86 5.86 0 0 0 9 8.84L10.74 11a.59.59 0 0 1-.43 1H2.7a.6.6 0 0 1-.6-.75l1.71-7.42a.59.59 0 0 1 1-.21l1.67 2.1a9.7 9.7 0 0 1 7.75-2.07 8.84 8.84 0 0 1 4.12 1.92 8.7 8.7 0 0 1 2.54 3.72 9.14 9.14 0 0 1-1.33 8.36" style="fill:#fff"/></svg>