<svg width="40" height="40" xmlns="http://www.w3.org/2000/svg"><path fill="#4D4D4D" style="stroke:none;fill-rule:nonzero;fill-opacity:1" d="M11.738 1.559C2.793 1.516.805 16.008 13.344 18.133c-2.305.043-4.324.633-7.168 2.027C-1.5 23.93.05 36.168 7.879 34.844c2.695-.457 4.004-3.93.07-5.11 1.29 2.317-2.183 3.68-3.273.153-.88-2.852 1.652-5.852 4.097-6.64 2.383-.767 4.317-.849 6.446-.458-2.86 2.676-4.418 6.29-3.313 9.66 3.48 10.594 15.012 6.446 12.723-.527-.809-2.461-3.234-3.633-5.313-.793 2.747-.692 3.942 3.027 1.422 3.855-2.058.676-4.707-1.054-5.16-3.23-.61-2.918 1.547-6.031 4.281-7.442 1.73 2.766 3.032 3.805 6.5 5.641 6.707 3.55 16.637-2.855 11.243-8.637-1.766-1.89-4.262-2.343-5.274 1.028 2.36-1.57 4.746 2.093 2.649 3.715-1.715 1.324-4.805 1.496-6.754.43-2.407-1.317-4.203-2.954-5.485-5.196 4.461 1.066 9.344-.086 11.172-3.543 3.574-6.754-.55-11.914-4.617-11.984-1.594-.028-3.176.722-4.29 2.46-1.394 2.184-.765 4.81 2.747 4.622-2.273-1.692-.148-4.973 2.09-3.543 1.824 1.164 1.758 4.05.762 6.035-1.188 2.363-4.735 3.965-7.43 1.93-.235-.45-.434-.915-.606-1.395a2.783 2.783 0 0 0 1.16-2.258 2.794 2.794 0 0 0-2.37-2.75c-.762-3.683-1.82-7.238-6.626-8.797-1.066-.343-2.066-.504-2.992-.511Zm9.207 10.738c.739 0 1.325.582 1.325 1.32 0 .742-.586 1.324-1.325 1.324a1.31 1.31 0 0 1-1.32-1.324c0-.738.582-1.32 1.32-1.32Zm-5.11.82c.74 0 1.321.582 1.321 1.32a1.31 1.31 0 0 1-1.32 1.325 1.31 1.31 0 0 1-1.324-1.325c0-.738.582-1.32 1.324-1.32Zm0 0"/></svg>