<svg width="20" height="20" xmlns="http://www.w3.org/2000/svg"><g fill="#4C97FF" fill-rule="evenodd"><path d="m5.694 4.007 4.263.658c.488.07.833.58.76 1.13-.055.446-.375.793-.76.846l-4.263.66v1.496c0 .427-.456.631-.721.338L2.12 5.974a.524.524 0 0 1 0-.668l2.853-3.17c.265-.294.721-.08.721.338v1.533Zm8.612 8.727v-1.533c0-.418.456-.631.721-.338l2.853 3.17c.16.178.16.482 0 .668l-2.853 3.161c-.265.294-.721.09-.721-.338v-1.495l-4.263-.66c-.385-.054-.705-.4-.76-.846-.073-.552.272-1.06.76-1.13l4.263-.659Z"/><path d="M13.273 3.455h2.182c.602 0 1.09.488 1.09 1.09v2.182a1.09 1.09 0 0 1-1.09 1.091h-2.182a1.09 1.09 0 0 1-1.091-1.09V4.544c0-.602.489-1.09 1.09-1.09M4.545 12.182h2.182c.602 0 1.091.489 1.091 1.09v2.183a1.09 1.09 0 0 1-1.09 1.09H4.544a1.09 1.09 0 0 1-1.09-1.09v-2.182c0-.602.488-1.091 1.09-1.091" fill-opacity=".5"/></g></svg>