<svg width="20" height="20" xmlns="http://www.w3.org/2000/svg" xmlns:xlink="http://www.w3.org/1999/xlink"><defs><path d="M4.5 2h11A2.5 2.5 0 0 1 18 4.5v1a.5.5 0 0 1-.5.5h-15a.5.5 0 0 1-.5-.5v-1A2.5 2.5 0 0 1 4.5 2Zm-2 5h15a.5.5 0 0 1 .5.5v8a2.5 2.5 0 0 1-2.5 2.5h-11A2.5 2.5 0 0 1 2 15.5v-8a.5.5 0 0 1 .5-.5Zm7.155 8.164c.09.09.212.14.342.14.13 0 .252-.05.342-.14l1.818-1.818a.48.48 0 0 0 .109-.53.49.49 0 0 0-.456-.3h-.66l-.36-2.528a.8.8 0 0 0-.78-.685.79.79 0 0 0-.785.682l-.351 2.53h-.69a.479.479 0 0 0-.447.292c-.078.18-.04.39.1.539l1.818 1.818Z" id="a"/></defs><g fill="none" fill-rule="evenodd"><mask id="b" fill="#fff"><use xlink:href="#a"/></mask><g mask="url(#b)" fill="#FFF"><path d="M0 0h20v20H0z"/></g></g></svg>