<svg xmlns="http://www.w3.org/2000/svg" xml:space="preserve" id="Layer_1" width="52" height="52" x="0" y="0" version="1.1"><style>.st1{fill:#fff}</style><g id="_x35_2x52-for-the-dialog"><g id="Group"><path id="bg" d="M41.4 5c3.1 0 5.6 2.5 5.6 5.6v30.8c0 3.1-2.5 5.6-5.6 5.6H10.6C7.5 47 5 44.5 5 41.4V10.6C5 7.5 7.5 5 10.6 5z" style="fill:#0fbd8c"/><path id="scratch-outline-2" d="M28.8 28.9c0 2.7-1.1 5.4-3.2 7.2a9.6 9.6 0 0 1-5.9 2.4c-1 .8-2.2 1.3-3.5 1.4h-.4c-3.3 0-6.1-2.7-6.4-6.2v-.3c-.1-1.5 0-2.7 0-3.4s.1-2 .1-2.3c0-1 .3-2 .7-2.9-.1-1-.1-2.1 0-3.2v-.4c.1-1 .3-2.5 1.1-4.2 1.4-2.7 4-4.3 7-4.3h.1c.9-.5 2-.8 3.1-.8h.1c3.5.1 6.3 3.1 6.3 6.7 0 0-.1 4.4-.3 5.9.8 1.4 1.1 2.9 1.2 4.4" class="st1"/><path id="scratch-outline-1" d="M25.8 29c0 1.8-.8 3.6-2.2 4.8-1.2 1.1-2.8 1.7-4.3 1.7-.3 0-.5 0-.8-.1-.1.1-.1.2-.2.2-.6.7-1.5 1.1-2.4 1.2h-.2c-1.8 0-3.3-1.5-3.4-3.3v-.1c-.1-1.3 0-2.4 0-3.1 0-.8.1-2.1.1-2.4q0-1.35.9-2.4c-.3-1-.4-2.1-.2-3.5v-.2c.1-.8.2-2 .8-3.1.9-1.7 2.5-2.7 4.4-2.7h.3c.2 0 .4 0 .6.1.6-.6 1.5-.9 2.4-.9 1.9 0 3.4 1.6 3.4 3.6 0 0-.2 5.2-.2 5.7 0 .3-.1.5-.2.8.7.9 1.2 2.2 1.2 3.7" style="fill:#f9a83a"/><path id="scratch-fill" d="M18.3 25.3c-.9-.1-1.4-.8-1.1-2.7v-.2c.2-1.7.4-2 1.1-2 .2 0 .5.2.7.4.2.3.8.7 1.1 1.4.2.5.3.9.3 1.3v.5c.1.3.3.6.6.6.4.1.8-.2.9-.6 0-.1.2-5.1.2-5.2 0-.4-.3-.8-.8-.8-.4 0-.8.4-.8.8v1.4c-.6-.7-1.4-1.3-2.3-1.4-2.3-.1-2.6 2.1-2.8 3.4v.2c-.3 2.5.5 4.2 2.4 4.5 2.1.3 3.5.8 3.5 2.2 0 .5-.3 1.1-.7 1.5-.6.5-1.3.7-2 .6-.2 0-.4-.1-.6-.2-.3-.2-1-.6-1.3-1.1-.3-.4-.4-1.1-.4-1.5v-.3c0-.4-.3-.8-.8-.8-.4 0-.8.3-.8.8 0 0 0 1.6-.1 2.5-.1 1.5 0 2.8 0 2.9 0 .4.4.8.8.8s.8-.4.7-.9v-1.5c.6.4 1.3.7 2.2.9 1.2.2 2.3-.1 3.3-1 .8-.7 1.3-1.7 1.3-2.7.2-3.1-3-3.6-4.6-3.8" class="st1"/><path id="signal" d="M37.7 36.9c-.2 0-.4-.1-.5-.2-.3-.3-.3-.8 0-1.1 2.6-2.6 4-6 4-9.6s-1.4-7.1-4-9.7c-.3-.3-.3-.8 0-1.1s.8-.3 1 0c2.8 2.9 4.4 6.7 4.4 10.7s-1.6 7.9-4.4 10.7c-.1.3-.3.3-.5.3M35 33.5c-.2 0-.4-.1-.5-.2-.3-.3-.3-.8 0-1.1 1.7-1.7 2.6-3.9 2.6-6.3s-.9-4.6-2.6-6.3c-.3-.3-.3-.8 0-1.1s.8-.3 1 0c1.9 2 3 4.6 3 7.3 0 2.8-1.1 5.4-3 7.3-.1.4-.3.4-.5.4m-2.7-3.4c-.2 0-.4-.1-.5-.2-.3-.3-.3-.8 0-1.1.8-.8 1.2-1.8 1.2-2.9s-.4-2.1-1.2-2.9c-.3-.3-.3-.8 0-1.1s.8-.3 1 0c1 1 1.6 2.4 1.6 3.9s-.6 2.9-1.6 3.9c-.1.4-.3.4-.5.4" class="st1"/></g></g></svg>