<svg xmlns="http://www.w3.org/2000/svg" xmlns:xlink="http://www.w3.org/1999/xlink" width="40" height="40"><defs><path id="a" d="M0 18.903h31.059V.424H0z"/></defs><g fill="none" fill-rule="evenodd" transform="translate(4 10)"><path fill="#7C87A5" d="M19.513 1.17h-.73c-.319 0-.576.213-.576.478v1.08h1.882v-1.08c0-.265-.258-.479-.576-.479"/><path d="M20.91 1.17h-.73c-.319 0-.576.213-.576.478v1.08h1.882v-1.08c0-.265-.258-.479-.576-.479"/><path fill="#7C87A5" d="M5.54 1.17h-.728c-.32 0-.576.213-.576.478v1.08h1.882v-1.08c0-.265-.257-.479-.577-.479"/><path d="M6.938 1.17h-.729c-.32 0-.576.213-.576.478v1.08h1.882v-1.08c0-.265-.257-.479-.577-.479"/><path fill="#7C87A5" d="M22.305 1.17h-.73c-.318 0-.574.213-.574.478v1.08h1.882v-1.08c0-.265-.26-.479-.578-.479"/><path d="M23.702 1.17h-.73c-.318 0-.574.213-.574.478v1.08h1.882v-1.08c0-.265-.26-.479-.578-.479"/><path fill="#7C87A5" d="M25.101 1.17h-.73c-.318 0-.576.213-.576.478v1.08h1.882v-1.08c0-.265-.258-.479-.576-.479"/><path d="M26.498 1.17h-.73c-.318 0-.576.213-.576.478v1.08h1.882v-1.08c0-.265-.258-.479-.576-.479"/><path fill="#7C87A5" d="M13.925 1.17h-.73c-.319 0-.577.213-.577.478v1.08h1.883v-1.08c0-.265-.258-.479-.576-.479"/><path d="M15.322 1.17h-.73c-.319 0-.577.213-.577.478v1.08h1.883v-1.08c0-.265-.258-.479-.576-.479"/><path fill="#7C87A5" d="M16.717 1.17h-.73c-.319 0-.575.213-.575.478v1.08h1.883v-1.08c0-.265-.26-.479-.578-.479"/><path d="M18.114 1.17h-.73c-.319 0-.575.213-.575.478v1.08h1.883v-1.08c0-.265-.26-.479-.578-.479"/><path fill="#7C87A5" d="M11.129 1.17H10.4c-.32 0-.576.213-.576.478v1.08h1.883v-1.08c0-.265-.258-.479-.578-.479"/><path d="M12.526 1.17h-.729c-.32 0-.576.213-.576.478v1.08h1.883v-1.08c0-.265-.258-.479-.578-.479"/><path fill="#7C87A5" d="M8.335 1.17h-.73c-.319 0-.575.213-.575.478v1.08h1.882v-1.08c0-.265-.26-.479-.577-.479"/><path d="M9.732 1.17h-.73c-.319 0-.575.213-.575.478v1.08h1.883v-1.08c0-.265-.26-.479-.578-.479"/><path fill="#7C87A5" d="M27.893 1.17h-.73c-.318 0-.574.213-.574.478v1.08h1.882v-1.08c0-.265-.26-.479-.578-.479"/><path d="M29.29 1.17h-.73c-.318 0-.574.213-.574.478v1.08h1.882v-1.08c0-.265-.26-.479-.578-.479"/><path fill="#FFF" d="M29.647 18.407H11.765V2.533h17.882c.52 0 .941.445.941.992v13.89c0 .547-.421.992-.94.992"/><path stroke="#7C87A5" stroke-linecap="round" stroke-linejoin="round" stroke-width=".893" d="M29.647 18.407H11.765V2.533h17.882c.52 0 .941.445.941.992v13.89c0 .547-.421.992-.94.992"/><path fill="#FFF" d="M11.765 18.407H1.412c-.52 0-.941-.445-.941-.993V6.502c0-2.19 1.686-3.969 3.764-3.969h15.06-3.766c-2.078 0-3.764 1.778-3.764 3.969z"/><path stroke="#7C87A5" stroke-linecap="round" stroke-linejoin="round" stroke-width=".893" d="M11.765 18.407H1.412c-.52 0-.941-.445-.941-.993V6.502c0-2.19 1.686-3.969 3.764-3.969h15.06-3.766c-2.078 0-3.764 1.778-3.764 3.969z"/><path fill="#4C97FF" d="M8.941 2.533H7.06c-1.559 0-2.824 1.334-2.824 2.977v1.986c0 .547.422.992.941.992H8c.52 0 .941-.445.941-.992V5.51c0-1.643 1.265-2.977 2.824-2.977h.94z"/><path stroke="#3D79CC" stroke-linecap="round" stroke-linejoin="round" stroke-width=".893" d="M8.941 2.533H7.06c-1.559 0-2.824 1.334-2.824 2.977v1.986c0 .547.422.992.941.992H8c.52 0 .941-.445.941-.992V5.51c0-1.643 1.265-2.977 2.824-2.977h.94z"/><path stroke="#7C87A5" stroke-linecap="round" stroke-linejoin="round" stroke-width=".893" d="M.47 10.474h27.961l2.157 2.974"/><path stroke="#7C87A5" stroke-linecap="round" stroke-linejoin="round" stroke-width=".893" d="M11.765 18.407H1.412c-.52 0-.941-.445-.941-.993V6.502c0-2.19 1.686-3.969 3.764-3.969h15.06-3.766c-2.078 0-3.764 1.778-3.764 3.969z"/><path fill="#7C87A5" d="M17.307 8.964h-.73c-.319 0-.576.214-.576.479v1.08h1.882v-1.08c0-.265-.258-.479-.576-.479"/><path d="M17.307 8.964h-.73c-.319 0-.576.214-.576.479v1.08h1.882v-1.08c0-.265-.258-.479-.576-.479"/><path fill="#7C87A5" d="M20.178 8.964h-.728c-.32 0-.576.214-.576.479v1.08h1.882v-1.08c0-.265-.258-.479-.578-.479"/><path d="M20.178 8.964h-.728c-.32 0-.576.214-.576.479v1.08h1.882v-1.08c0-.265-.258-.479-.578-.479"/><path fill="#7C87A5" d="M23.051 8.964h-.73c-.318 0-.576.214-.576.479v1.08h1.882v-1.08c0-.265-.257-.479-.576-.479"/><path d="M23.051 8.964h-.73c-.318 0-.576.214-.576.479v1.08h1.882v-1.08c0-.265-.257-.479-.576-.479"/><path fill="#7C87A5" d="M25.923 8.964h-.729c-.32 0-.576.214-.576.479v1.08h1.883v-1.08c0-.265-.258-.479-.578-.479"/><path d="M25.923 8.964h-.729c-.32 0-.576.214-.576.479v1.08h1.883v-1.08c0-.265-.258-.479-.578-.479"/><path fill="#E6E7E8" d="M29.647 18.407H11.765V10.47H28.43l2.157 2.978v3.966c0 .548-.421.993-.94.993"/><path stroke="#7C87A5" stroke-linecap="round" stroke-linejoin="round" stroke-width=".893" d="M29.647 18.407H11.765V10.47H28.43l2.157 2.978v3.966c0 .548-.421.993-.94.993"/><path fill="#E6E7E8" d="M11.765 18.407H1.412c-.52 0-.941-.445-.941-.993V10.47h11.294z"/><path stroke="#7C87A5" stroke-linecap="round" stroke-linejoin="round" stroke-width=".893" d="M11.765 18.407H1.412c-.52 0-.941-.445-.941-.993V10.47h11.294z"/><mask id="b" fill="#fff"><use xlink:href="#a"/></mask><path fill="#E6E7E8" d="M15.53 14.438h11.294V10.47H15.529z" mask="url(#b)"/><path stroke="#7C87A5" stroke-linecap="round" stroke-linejoin="round" stroke-width=".893" d="M15.53 14.438h11.294V10.47H15.529zM28.432 10.474l2.157-2.794" mask="url(#b)"/></g></svg>