<svg xmlns="http://www.w3.org/2000/svg" width="20" height="20"><g fill="none" fill-rule="evenodd" stroke="#FFF" stroke-linecap="round" stroke-linejoin="round" stroke-width="1.25"><path d="M17.635 10.113a7.523 7.523 0 0 1-7.523 7.523 7.523 7.523 0 1 1 0-15.047 7.524 7.524 0 0 1 7.523 7.524"/><path d="M13.98 10.117c0 1.633-.265 3.143-.726 4.375-.698 1.901-1.846 3.143-3.143 3.143s-2.442-1.242-3.144-3.143c-.456-1.232-.723-2.742-.723-4.375s.267-3.144.723-4.376c.702-1.911 1.847-3.153 3.144-3.153s2.445 1.242 3.143 3.153c.461 1.232.727 2.742.727 4.376M2.955 12.281h14.313M2.955 7.947h14.313M10.112 2.59v15.048"/></g></svg>