<svg width="20" height="20" xmlns="http://www.w3.org/2000/svg"><g fill="none" fill-rule="evenodd"><path d="M2 6.417v7.19c0 .475.577.714.914.377l3.595-3.595a.536.536 0 0 0 0-.756L2.914 6.038A.535.535 0 0 0 2 6.417" fill="#4D97FF"/><path d="M9.875 15.757a.65.65 0 0 1-.466-.199.868.868 0 0 1-.147-.215c-.025-.078-.053-.16-.053-.253 0-.08.028-.173.053-.252a.68.68 0 0 1 .88-.361c.081.04.148.081.213.146a.882.882 0 0 1 .148.215.887.887 0 0 1 .054.252c0 .093-.028.175-.054.253-.04.08-.08.162-.148.215a.633.633 0 0 1-.48.199Zm-.652-8.48a.66.66 0 0 1 .667-.666c.36 0 .666.293.666.667 0 .36-.306.666-.666.666a.669.669 0 0 1-.667-.666Zm0 2.6a.66.66 0 0 1 .667-.666c.36 0 .666.293.666.667a.67.67 0 0 1-.666.666.661.661 0 0 1-.667-.666Zm0 2.614a.66.66 0 0 1 .667-.667c.36 0 .666.294.666.667 0 .36-.306.667-.666.667a.669.669 0 0 1-.667-.667Zm.652-7.16a.822.822 0 0 1-.252-.04c-.08-.041-.148-.095-.214-.148a1.225 1.225 0 0 1-.147-.227c-.025-.078-.053-.16-.053-.252 0-.081.028-.173.053-.253a.868.868 0 0 1 .147-.215.679.679 0 0 1 .733-.145.686.686 0 0 1 .415.613c0 .092-.028.174-.054.252-.04.082-.08.162-.148.227a.689.689 0 0 1-.48.188Z" fill-opacity=".25" fill="#575E75"/><path d="M17.767 13.606v-7.19a.536.536 0 0 0-.915-.378L13.26 9.634a.534.534 0 0 0 0 .756l3.593 3.593a.536.536 0 0 0 .915-.377" fill="#4D97FF"/></g></svg>