<svg xmlns="http://www.w3.org/2000/svg" width="20" height="20"><g fill="none" fill-rule="evenodd"><path fill="#4D97FF" d="M2 6.417v7.19c0 .475.577.714.914.377l3.595-3.595a.536.536 0 0 0 0-.756L2.914 6.038A.535.535 0 0 0 2 6.417"/><path fill="#575E75" fill-opacity=".25" d="M9.875 15.757a.65.65 0 0 1-.466-.199.9.9 0 0 1-.147-.215c-.025-.078-.053-.16-.053-.253 0-.08.028-.173.053-.252a.68.68 0 0 1 .88-.361c.081.04.148.081.213.146a.9.9 0 0 1 .148.215.9.9 0 0 1 .054.252c0 .093-.028.175-.054.253-.04.08-.08.162-.148.215a.63.63 0 0 1-.48.199m-.652-8.48a.66.66 0 0 1 .667-.666c.36 0 .666.293.666.667 0 .36-.306.666-.666.666a.67.67 0 0 1-.667-.666m0 2.6a.66.66 0 0 1 .667-.666c.36 0 .666.293.666.667a.67.67 0 0 1-.666.666.66.66 0 0 1-.667-.666m0 2.614a.66.66 0 0 1 .667-.667c.36 0 .666.294.666.667 0 .36-.306.667-.666.667a.67.67 0 0 1-.667-.667m.652-7.16a.8.8 0 0 1-.252-.04c-.08-.041-.148-.095-.214-.148a1.2 1.2 0 0 1-.147-.227c-.025-.078-.053-.16-.053-.252 0-.081.028-.173.053-.253a.9.9 0 0 1 .147-.215.68.68 0 0 1 .733-.145.686.686 0 0 1 .415.613c0 .092-.028.174-.054.252-.04.082-.08.162-.148.227a.7.7 0 0 1-.48.188"/><path fill="#4D97FF" d="M17.767 13.606v-7.19a.536.536 0 0 0-.915-.378L13.26 9.634a.534.534 0 0 0 0 .756l3.593 3.593a.536.536 0 0 0 .915-.377"/></g></svg>