<svg xmlns="http://www.w3.org/2000/svg" width="20" height="20"><g fill="none" fill-rule="evenodd"><path fill="#CF63CF" d="M12.855 9.536H7.156a1.27 1.27 0 0 1-1.273-1.273V6.136c0-.702.57-1.272 1.273-1.272h5.7c.703 0 1.272.57 1.272 1.272v2.127c0 .704-.569 1.273-1.273 1.273"/><path fill="#CF63CF" d="M12.363 14.578H7.65c-.628 0-1.137-.509-1.137-1.138v-.927a3.494 3.494 0 0 1 6.988 0v.927c0 .63-.51 1.138-1.137 1.138M11.027 17.022a1.021 1.021 0 1 1-2.043-.002 1.021 1.021 0 0 1 2.043.002M11.28 2.775a1.274 1.274 0 1 1-2.547.002 1.274 1.274 0 0 1 2.548-.002"/><path stroke="#CF63CF" stroke-width=".75" d="M10.007 17.022V2.77"/><path stroke="#CF63CF" stroke-linecap="round" stroke-linejoin="round" d="M4.762 14.78a5.245 5.245 0 1 1 10.488 0"/><path stroke="#CF63CF" stroke-linecap="round" stroke-linejoin="round" d="M14.216 15.815a1.033 1.033 0 1 1 2.069 0M3.728 15.815a1.034 1.034 0 0 1 2.068 0"/><path fill="#FFF" d="M12.006 7.904H8.005a.703.703 0 0 1 0-1.408h4.001a.705.705 0 1 1 0 1.408"/></g></svg>