<svg xmlns="http://www.w3.org/2000/svg" xmlns:xlink="http://www.w3.org/1999/xlink" width="20" height="20"><defs><path id="a" d="M14.259 9.823a1.154 1.154 0 0 1-.78 2.001c-.28 0-.56-.11-.78-.311-1.472-1.37-3.922-1.39-5.413-.059-.48.42-1.201.38-1.631-.1-.42-.47-.38-1.2.1-1.62a6.32 6.32 0 0 1 4.202-1.602c1.6 0 3.131.6 4.302 1.691m-2.221 4.592c0 1.062-.87 1.931-1.93 1.931a1.94 1.94 0 0 1-1.942-1.93c0-1.071.87-1.94 1.941-1.94 1.06 0 1.931.869 1.931 1.94m5.612-8.304c.451.44.471 1.161.03 1.621-.229.24-.53.35-.83.35-.29 0-.58-.1-.8-.32A8.76 8.76 0 0 0 9.956 5.3a8.76 8.76 0 0 0-6.022 2.392c-.462.43-1.19.41-1.622-.05-.44-.46-.41-1.19.05-1.632A11.04 11.04 0 0 1 9.958 3c2.88 0 5.612 1.11 7.693 3.111"/></defs><g fill="none" fill-rule="evenodd"><mask id="b" fill="#fff"><use xlink:href="#a"/></mask><use xlink:href="#a" fill="#4C97FF"/><g fill="#575E75" mask="url(#b)"><path d="M0 0h20v20H0z"/></g></g></svg>