<svg xmlns="http://www.w3.org/2000/svg" width="18" height="8"><path fill="#4C97FF" fill-rule="evenodd" d="m.711 1.539-.004 4.51A1.29 1.29 0 0 0 1.98 7.322l4.51-.004a1.267 1.267 0 0 0 .9-2.164l-.811-.81a3.5 3.5 0 0 1 1.116-.59c.123-.03.14-.056.297-.085.254-.051.462-.072.704-.093.467-.018.946.046 1.387.182.446.14.845.352 1.167.573.314.22.564.462.709.606.076.068.152.179.195.23.047.055.072.089.072.089a.78.78 0 0 0 1.315-.807s-.017-.042-.046-.106c-.039-.072-.06-.152-.145-.305a6.6 6.6 0 0 0-.746-1.12 6.7 6.7 0 0 0-1.435-1.282A7.1 7.1 0 0 0 9.074.73 8 8 0 0 0 7.915.555a5 5 0 0 0-.61-.017c-.2.004-.39.017-.586.033a7.2 7.2 0 0 0-2.062.535c-.335.14-.628.297-.874.441L2.875.64a1.267 1.267 0 0 0-2.164.9"/></svg>