<svg xmlns="http://www.w3.org/2000/svg" width="20" height="20"><path fill="#FFF" fill-rule="evenodd" d="M14.301 11.18a3.66 3.66 0 0 0-.897-3.069l-.99.992a.618.618 0 0 1-1.05-.44V4.618c0-.34.28-.619.62-.619h4.036c.55 0 .82.661.44 1.051l-.846.848c.601.771 1.033 1.67 1.236 2.61a6.5 6.5 0 0 1-.128 3.272c-.635 2.103-2.395 3.73-4.41 4.196a.91.91 0 0 1-1.083-.678.9.9 0 0 1 .559-1.05h.008c1.347-.518 2.312-1.764 2.505-3.07M5.698 8.82a3.66 3.66 0 0 0 .898 3.069l.99-.992a.617.617 0 0 1 1.05.44v4.043c0 .34-.28.62-.618.62H3.98c-.55 0-.82-.662-.44-1.052l.847-.848a6.5 6.5 0 0 1-1.236-2.61 6.5 6.5 0 0 1 .127-3.271c.635-2.103 2.395-3.73 4.41-4.196A.91.91 0 0 1 8.77 4.7c.11.45-.144.889-.559 1.05h-.008c-1.346.517-2.31 1.764-2.506 3.07"/></svg>