<svg width="20" height="20" xmlns="http://www.w3.org/2000/svg"><path d="M6.994 8.653a2.348 2.348 0 0 0 1.66-1.66l.494-1.84c.235-.87 1.47-.87 1.704 0l.496 1.84c.217.81.85 1.443 1.658 1.66l1.841.495c.87.235.87 1.47 0 1.705l-1.84.495c-.81.217-1.442.85-1.659 1.658l-.496 1.841c-.234.87-1.469.87-1.704 0l-.495-1.84a2.348 2.348 0 0 0-1.66-1.659l-1.84-.495c-.87-.235-.87-1.47 0-1.705l1.84-.495ZM3.906 14.51a.856.856 0 0 0 .604-.604l.18-.669c.084-.316.533-.316.62 0l.179.67c.08.294.309.523.603.603l.671.18c.316.084.316.533 0 .62l-.67.179a.858.858 0 0 0-.604.603l-.18.67c-.086.317-.535.317-.619 0l-.18-.67a.856.856 0 0 0-.604-.603l-.669-.18c-.316-.086-.316-.535 0-.619l.67-.18Zm10-10a.852.852 0 0 0 .603-.604l.182-.669c.084-.316.533-.316.618 0l.18.67c.08.294.31.522.605.602l.669.182c.316.084.316.533 0 .618l-.67.18a.854.854 0 0 0-.604.603l-.18.67c-.085.317-.534.317-.618 0l-.182-.67a.852.852 0 0 0-.603-.603l-.669-.18c-.316-.085-.316-.534 0-.618l.67-.182ZM5.75 5.75a.75.75 0 1 1-1.5 0 .75.75 0 0 1 1.5 0ZM16 14.25a1.25 1.25 0 1 1-2.499.001A1.25 1.25 0 0 1 16 14.25Z" fill="#FFF" fill-rule="evenodd"/></svg>