<svg xmlns="http://www.w3.org/2000/svg" width="40" height="40"><g fill="none" fill-rule="nonzero" transform="translate(5.5 3.5)"><rect width="28" height="25.81" x=".5" y="3.59" fill="#FFF" stroke="#7C87A5" stroke-linecap="round" stroke-linejoin="round" rx="1"/><rect width="24" height="32" x="2.5" y=".5" fill="#E6E7E8" stroke="#7C87A5" stroke-linecap="round" stroke-linejoin="round" rx="1"/><path fill="#FFF" stroke="#7C87A5" stroke-linecap="round" stroke-linejoin="round" d="M2.5 14.5h24v13h-24z"/><path fill="#E6E7E8" stroke="#7C87A5" stroke-linecap="round" stroke-linejoin="round" d="M14.5 10.5v4"/><rect width="20" height="10" x="4.5" y="2.5" fill="#414757" rx="1"/><rect width="2" height="2" x="13.5" y="20.13" fill="#7C87A5" opacity=".5" rx=".5"/><path fill="#7C87A5" d="M9.06 20.13h1.5a.5.5 0 0 1 .5.5v1a.5.5 0 0 1-.5.5h-1.5a1 1 0 0 1 0-2M19.93 22.13h-1.51a.5.5 0 0 1-.5-.5v-1a.5.5 0 0 1 .5-.5h1.5a1 1 0 0 1 .01 2M8.23 17.5H5a.5.5 0 0 1-.5-.5v-2.5h6l-1.85 2.78a.51.51 0 0 1-.42.22M18.15 18.85l-.5.5a.5.5 0 0 0-.15.36V20a.5.5 0 0 1-.5.5h-.5a.5.5 0 0 1-.5-.5.5.5 0 0 0-.5-.5h-2a.5.5 0 0 0-.5.5.5.5 0 0 1-.5.5H12a.5.5 0 0 1-.5-.5v-.29a.5.5 0 0 0-.15-.36l-.5-.5a.51.51 0 0 1 0-.71l1.51-1.49a.47.47 0 0 1 .35-.15h3.58a.47.47 0 0 1 .35.15l1.51 1.49a.51.51 0 0 1 0 .71M10.85 23.45l.5-.5a.5.5 0 0 0 .15-.36v-.29a.5.5 0 0 1 .5-.5h.5a.5.5 0 0 1 .5.5.5.5 0 0 0 .5.5h2a.5.5 0 0 0 .5-.5.5.5 0 0 1 .5-.5h.5a.5.5 0 0 1 .5.5v.29a.5.5 0 0 0 .15.36l.5.5a.5.5 0 0 1 0 .7l-1.51 1.5a.47.47 0 0 1-.35.15h-3.58a.47.47 0 0 1-.35-.15l-1.51-1.5a.5.5 0 0 1 0-.7" opacity=".5"/><path fill="#F15A29" stroke="#CC4C23" stroke-linecap="round" stroke-linejoin="round" d="M21.5 27.5h5v4a1 1 0 0 1-1 1h-4z"/></g></svg>