<svg width="20" height="20" xmlns="http://www.w3.org/2000/svg"><path d="M15.937 11.148a6.451 6.451 0 0 1-5.165 3.961v2.105a.772.772 0 0 1-.775.786.772.772 0 0 1-.776-.786V15.11a6.495 6.495 0 0 1-5.164-3.93c-.156-.392.017-.864.418-1.02a.747.747 0 0 1 1.008.408c.776 1.823 2.544 3.018 4.514 3.018a4.88 4.88 0 0 0 4.513-3.051.781.781 0 0 1 1.023-.407.783.783 0 0 1 .404 1.021ZM7.282 8.647v-3.96C7.282 3.196 8.47 2 9.913 2c1.459 0 2.632 1.197 2.632 2.686v3.96c0 1.475-1.173 2.687-2.632 2.687-1.443 0-2.63-1.212-2.63-2.686Z" fill="#FFF" fill-rule="evenodd"/></svg>