<svg xmlns="http://www.w3.org/2000/svg" xmlns:xlink="http://www.w3.org/1999/xlink" width="40mm" height="32.19mm" style="enable-background:new" viewBox="0 0 208.912 168.109"><defs><linearGradient id="q"><stop offset="0" style="stop-color:#0000d4;stop-opacity:1"/><stop offset="1" style="stop-color:#0000d4;stop-opacity:0"/></linearGradient><linearGradient id="n"><stop offset="0" style="stop-color:#ffe680;stop-opacity:1"/><stop offset="1" style="stop-color:#d4aa00;stop-opacity:1"/></linearGradient><linearGradient id="i"><stop offset="0" style="stop-color:#d4aa00;stop-opacity:1"/><stop offset="1" style="stop-color:#d3b12c;stop-opacity:1"/></linearGradient><linearGradient id="p"><stop offset="0" style="stop-color:#ffe680;stop-opacity:1"/><stop offset="1" style="stop-color:#fed32a;stop-opacity:1"/></linearGradient><linearGradient id="l"><stop offset="0" style="stop-color:#999;stop-opacity:1"/><stop offset="1" style="stop-color:#666;stop-opacity:1"/></linearGradient><linearGradient id="k"><stop offset="0" style="stop-color:#ccc;stop-opacity:1"/><stop offset="1" style="stop-color:#999;stop-opacity:1"/></linearGradient><linearGradient id="g"><stop offset="0" style="stop-color:gray;stop-opacity:1"/><stop offset="1" style="stop-color:#8c8c8c;stop-opacity:1"/></linearGradient><linearGradient id="f"><stop offset="0" style="stop-color:#fff;stop-opacity:1"/><stop offset="1" style="stop-color:#fff;stop-opacity:0"/></linearGradient><linearGradient id="a"><stop offset="0" style="stop-color:#ccc;stop-opacity:1"/><stop offset="1" style="stop-color:#8c8c8c;stop-opacity:1"/></linearGradient><linearGradient id="b"><stop offset="0" style="stop-color:#fff;stop-opacity:1"/><stop offset=".693" style="stop-color:#adadad;stop-opacity:.6"/><stop offset="1" style="stop-color:#333;stop-opacity:0"/></linearGradient><linearGradient id="r"><stop offset="0" style="stop-color:#000;stop-opacity:1"/><stop offset="1" style="stop-color:#000;stop-opacity:0"/></linearGradient><linearGradient id="s"><stop offset="0" style="stop-color:#333;stop-opacity:1"/><stop offset="1" style="stop-color:#333;stop-opacity:0"/></linearGradient><linearGradient id="c"><stop offset="0" style="stop-color:#ffd5d5;stop-opacity:1"/><stop offset="1" style="stop-color:#ccc;stop-opacity:0"/></linearGradient><linearGradient id="e"><stop offset="0" style="stop-color:#ff0;stop-opacity:0"/><stop offset=".552" style="stop-color:#fd5;stop-opacity:1"/><stop offset="1" style="stop-color:#fd5;stop-opacity:0"/></linearGradient><linearGradient id="j"><stop offset="0" style="stop-color:#ccc;stop-opacity:1"/><stop offset="1" style="stop-color:#ccc;stop-opacity:0"/></linearGradient><linearGradient xlink:href="#d" id="Y" x1="464.572" x2="466.072" y1="368.434" y2="381.724" gradientUnits="userSpaceOnUse"/><linearGradient id="d"><stop offset="0" style="stop-color:#ff0;stop-opacity:0"/><stop offset=".252" style="stop-color:#fd5;stop-opacity:1"/><stop offset="1" style="stop-color:#fd5;stop-opacity:0"/></linearGradient><linearGradient xlink:href="#d" id="V" x1="439.369" x2="446.695" y1="369.019" y2="383.372" gradientUnits="userSpaceOnUse"/><linearGradient xlink:href="#e" id="S" x1="356.772" x2="361.016" y1="366.145" y2="382.008" gradientUnits="userSpaceOnUse"/><linearGradient xlink:href="#e" id="P" x1="251.101" x2="252.146" y1="371.158" y2="377.989" gradientUnits="userSpaceOnUse"/><linearGradient xlink:href="#e" id="M" x1="137.762" x2="142.976" y1="370.245" y2="377.368" gradientUnits="userSpaceOnUse"/><linearGradient xlink:href="#d" id="J" x1="38.413" x2="43.169" y1="372.256" y2="382.1" gradientUnits="userSpaceOnUse"/><linearGradient xlink:href="#f" id="aN" x1="267.247" x2="287.51" y1="527.855" y2="509.343" gradientTransform="matrix(.35278 0 0 .35278 -4.031 40.362)" gradientUnits="userSpaceOnUse"/><linearGradient id="h"><stop offset="0" style="stop-color:#fc0;stop-opacity:1"/><stop offset="1" style="stop-color:#c8ab37;stop-opacity:0"/></linearGradient><linearGradient xlink:href="#g" id="aH" x1="259.501" x2="312.204" y1="497.617" y2="537.395" gradientTransform="matrix(.35278 0 0 .35278 -4.031 40.362)" gradientUnits="userSpaceOnUse"/><linearGradient xlink:href="#j" id="aC" x1="489.076" x2="489.076" y1="252.949" y2="254.403" gradientUnits="userSpaceOnUse"/><linearGradient xlink:href="#j" id="aD" x1="489.076" x2="489.076" y1="252.949" y2="254.403" gradientUnits="userSpaceOnUse"/><linearGradient xlink:href="#j" id="aE" x1="489.076" x2="489.076" y1="252.949" y2="254.403" gradientUnits="userSpaceOnUse"/><linearGradient xlink:href="#j" id="aF" x1="489.076" x2="489.076" y1="252.949" y2="254.403" gradientUnits="userSpaceOnUse"/><linearGradient xlink:href="#f" id="aL" x1="267.247" x2="287.51" y1="527.855" y2="509.343" gradientTransform="rotate(-165 285.96 510.348)" gradientUnits="userSpaceOnUse"/><linearGradient xlink:href="#d" id="L" x1="38.413" x2="43.169" y1="372.256" y2="382.1" gradientUnits="userSpaceOnUse"/><linearGradient xlink:href="#d" id="K" x1="38.413" x2="43.169" y1="372.256" y2="382.1" gradientUnits="userSpaceOnUse"/><linearGradient xlink:href="#e" id="O" x1="137.762" x2="142.976" y1="370.245" y2="377.368" gradientUnits="userSpaceOnUse"/><linearGradient xlink:href="#e" id="N" x1="137.762" x2="142.976" y1="370.245" y2="377.368" gradientUnits="userSpaceOnUse"/><linearGradient xlink:href="#e" id="R" x1="251.101" x2="252.146" y1="371.158" y2="377.989" gradientUnits="userSpaceOnUse"/><linearGradient xlink:href="#e" id="Q" x1="251.101" x2="252.146" y1="371.158" y2="377.989" gradientUnits="userSpaceOnUse"/><linearGradient xlink:href="#e" id="T" x1="356.772" x2="361.016" y1="366.145" y2="382.008" gradientUnits="userSpaceOnUse"/><linearGradient xlink:href="#e" id="U" x1="356.772" x2="361.016" y1="366.145" y2="382.008" gradientUnits="userSpaceOnUse"/><linearGradient xlink:href="#d" id="X" x1="439.369" x2="446.695" y1="369.019" y2="383.372" gradientUnits="userSpaceOnUse"/><linearGradient xlink:href="#d" id="W" x1="439.369" x2="446.695" y1="369.019" y2="383.372" gradientUnits="userSpaceOnUse"/><linearGradient xlink:href="#d" id="aa" x1="464.572" x2="466.072" y1="368.434" y2="381.724" gradientUnits="userSpaceOnUse"/><linearGradient xlink:href="#d" id="ab" x1="464.572" x2="466.072" y1="368.434" y2="381.724" gradientUnits="userSpaceOnUse"/><linearGradient xlink:href="#d" id="Z" x1="464.572" x2="466.072" y1="368.434" y2="381.724" gradientUnits="userSpaceOnUse"/><linearGradient xlink:href="#e" id="ad" x1="243.795" x2="243.215" y1="340.809" y2="376.293" gradientUnits="userSpaceOnUse"/><linearGradient xlink:href="#e" id="ae" x1="243.795" x2="243.215" y1="340.809" y2="376.293" gradientUnits="userSpaceOnUse"/><linearGradient xlink:href="#e" id="ac" x1="243.795" x2="243.215" y1="340.809" y2="376.293" gradientUnits="userSpaceOnUse"/><linearGradient xlink:href="#e" id="af" x1="243.795" x2="243.215" y1="340.809" y2="376.293" gradientTransform="matrix(.38335 0 0 .36971 -241.309 21.678)" gradientUnits="userSpaceOnUse"/><linearGradient xlink:href="#e" id="al" x1="243.795" x2="243.215" y1="340.809" y2="376.293" gradientTransform="matrix(0 -.38335 .36971 0 21.678 241.309)" gradientUnits="userSpaceOnUse"/><linearGradient xlink:href="#e" id="ah" x1="243.795" x2="243.215" y1="340.809" y2="376.293" gradientTransform="matrix(0 -.38335 .36971 0 21.678 241.309)" gradientUnits="userSpaceOnUse"/><linearGradient xlink:href="#e" id="ai" x1="243.795" x2="243.215" y1="340.809" y2="376.293" gradientTransform="matrix(0 -.38335 .36971 0 21.678 241.309)" gradientUnits="userSpaceOnUse"/><linearGradient xlink:href="#e" id="aj" x1="243.795" x2="243.215" y1="340.809" y2="376.293" gradientTransform="matrix(0 -.38335 .36971 0 21.678 241.309)" gradientUnits="userSpaceOnUse"/><linearGradient xlink:href="#k" id="aG" x1="98.348" x2="98.348" y1="-231.049" y2="-231.616" gradientUnits="userSpaceOnUse"/><linearGradient xlink:href="#l" id="aB" x1="221.329" x2="221.316" y1="86.332" y2="85.812" gradientUnits="userSpaceOnUse"/><linearGradient xlink:href="#i" id="z" x1="171.679" x2="150.934" y1="223.391" y2="223.301" gradientTransform="rotate(90 498.54 442.882)scale(3.77953)" gradientUnits="userSpaceOnUse"/><linearGradient xlink:href="#i" id="B" x1="171.679" x2="150.934" y1="223.391" y2="223.301" gradientTransform="rotate(90 498.54 442.882)scale(3.77953)" gradientUnits="userSpaceOnUse"/><linearGradient xlink:href="#i" id="D" x1="171.679" x2="150.934" y1="223.391" y2="223.301" gradientTransform="rotate(90 498.54 442.882)scale(3.77953)" gradientUnits="userSpaceOnUse"/><linearGradient xlink:href="#i" id="F" x1="171.679" x2="150.934" y1="223.391" y2="223.301" gradientTransform="rotate(90 498.54 442.882)scale(3.77953)" gradientUnits="userSpaceOnUse"/><linearGradient xlink:href="#e" id="ag" x1="243.795" x2="243.215" y1="340.809" y2="376.293" gradientTransform="matrix(0 -.38335 .36971 0 21.678 241.309)" gradientUnits="userSpaceOnUse"/><linearGradient xlink:href="#e" id="ak" x1="243.795" x2="243.215" y1="340.809" y2="376.293" gradientTransform="matrix(0 -.38335 .36971 0 21.678 241.309)" gradientUnits="userSpaceOnUse"/><linearGradient xlink:href="#e" id="aq" x1="243.795" x2="243.215" y1="340.809" y2="376.293" gradientTransform="matrix(0 -.38335 .36971 0 21.678 279.128)" gradientUnits="userSpaceOnUse"/><linearGradient xlink:href="#n" id="A" x1="-215.447" x2="-211.763" y1="128.359" y2="132.428" gradientTransform="rotate(90 455.244 394.254)scale(3.77953)" gradientUnits="userSpaceOnUse"/><linearGradient xlink:href="#n" id="C" x1="-215.447" x2="-211.763" y1="128.359" y2="132.428" gradientTransform="rotate(90 455.244 394.254)scale(3.77953)" gradientUnits="userSpaceOnUse"/><linearGradient xlink:href="#n" id="E" x1="-215.447" x2="-211.763" y1="128.359" y2="132.428" gradientTransform="rotate(90 455.244 394.254)scale(3.77953)" gradientUnits="userSpaceOnUse"/><linearGradient xlink:href="#n" id="G" x1="-215.447" x2="-211.763" y1="128.359" y2="132.428" gradientTransform="rotate(90 455.244 394.254)scale(3.77953)" gradientUnits="userSpaceOnUse"/><linearGradient xlink:href="#g" id="aI" x1="259.501" x2="312.204" y1="497.617" y2="537.395" gradientTransform="matrix(.35278 0 0 .35278 -4.031 40.362)" gradientUnits="userSpaceOnUse"/><linearGradient xlink:href="#f" id="aJ" x1="243.457" x2="314.989" y1="521.907" y2="490.821" gradientTransform="matrix(.35278 0 0 .35278 -4.031 40.362)" gradientUnits="userSpaceOnUse"/><linearGradient xlink:href="#i" id="an" x1="-213.884" x2="-213.884" y1="171.716" y2="153.489" gradientUnits="userSpaceOnUse"/><linearGradient xlink:href="#n" id="ao" x1="-215.447" x2="-211.763" y1="128.359" y2="132.428" gradientTransform="translate(-1.41 24.322)" gradientUnits="userSpaceOnUse"/><linearGradient xlink:href="#i" id="H" x1="171.679" x2="150.934" y1="223.391" y2="223.301" gradientTransform="rotate(90 426.946 371.287)scale(3.77953)" gradientUnits="userSpaceOnUse"/><linearGradient xlink:href="#n" id="I" x1="-215.447" x2="-211.763" y1="128.359" y2="132.428" gradientTransform="rotate(90 383.65 322.66)scale(3.77953)" gradientUnits="userSpaceOnUse"/><linearGradient xlink:href="#n" id="ar" x1="24.665" x2="23.05" y1="42.459" y2="2.4" gradientUnits="userSpaceOnUse"/><linearGradient xlink:href="#p" id="au" x1="28.845" x2="35.218" y1="11.756" y2="18.524" gradientUnits="userSpaceOnUse"/><linearGradient xlink:href="#p" id="aw" x1="10.582" x2="16.018" y1="11.235" y2="20.294" gradientUnits="userSpaceOnUse"/><linearGradient xlink:href="#n" id="ax" x1="24.665" x2="21.488" y1="42.459" y2="5.836" gradientUnits="userSpaceOnUse"/><linearGradient xlink:href="#i" id="ay" x1="5.18" x2="41.232" y1="13.734" y2="23.521" gradientUnits="userSpaceOnUse"/><linearGradient xlink:href="#n" id="at" x1="24.665" x2="23.05" y1="42.459" y2="2.4" gradientUnits="userSpaceOnUse"/><linearGradient xlink:href="#n" id="av" x1="24.665" x2="23.05" y1="42.459" y2="2.4" gradientUnits="userSpaceOnUse"/><linearGradient xlink:href="#n" id="as" x1="24.665" x2="23.05" y1="42.459" y2="2.4" gradientUnits="userSpaceOnUse"/><linearGradient xlink:href="#n" id="az" x1="24.665" x2="23.05" y1="42.459" y2="2.4" gradientTransform="matrix(.578 0 0 .578 113.156 33.243)" gradientUnits="userSpaceOnUse"/><linearGradient xlink:href="#p" id="aA" x1="28.845" x2="35.218" y1="11.756" y2="18.524" gradientTransform="matrix(.578 0 0 .578 113.156 33.243)" gradientUnits="userSpaceOnUse"/><filter id="aK" width="1.154" height="1.154" x="-.077" y="-.077" style="color-interpolation-filters:sRGB"><feGaussianBlur stdDeviation="1.041"/></filter><filter id="aM" width="1.034" height="1.034" x="-.017" y="-.017" style="color-interpolation-filters:sRGB"><feGaussianBlur stdDeviation=".224"/></filter><filter id="t" width="1.119" height="1.081" x="-.059" y="-.04" style="color-interpolation-filters:sRGB"><feGaussianBlur stdDeviation=".682"/></filter><filter id="aO" width="1.024" height="1.024" x="-.012" y="-.012" style="color-interpolation-filters:sRGB"><feGaussianBlur stdDeviation=".057"/></filter><filter id="u" width="1.086" height="1.109" x="-.043" y="-.055" style="color-interpolation-filters:sRGB"><feGaussianBlur stdDeviation="3.41"/></filter><radialGradient xlink:href="#i" id="w" cx="132.584" cy="503.099" r="249.351" fx="132.584" fy="503.099" gradientTransform="matrix(1.7228 -.08453 .01834 .40224 -42.573 216.188)" gradientUnits="userSpaceOnUse"/><radialGradient xlink:href="#i" id="x" cx="132.584" cy="503.099" r="249.351" fx="132.584" fy="503.099" gradientTransform="matrix(1.7228 -.08453 .01834 .40224 -42.573 216.188)" gradientUnits="userSpaceOnUse"/><radialGradient xlink:href="#h" id="v" cx="132.584" cy="503.099" r="249.351" fx="132.584" fy="503.099" gradientTransform="matrix(1.7228 -.08453 .01834 .40224 -42.573 216.188)" gradientUnits="userSpaceOnUse"/><radialGradient xlink:href="#h" id="y" cx="132.584" cy="503.099" r="249.351" fx="132.584" fy="503.099" gradientTransform="matrix(.66043 -.03125 .00703 .14871 -257.537 101.54)" gradientUnits="userSpaceOnUse"/></defs><g style="display:inline"><path d="M5457.097 169.081v-27.775l-5.663-4.584 6.741-6.472 6.742 5.393.27 5.933h11.595V129.71l5.123-5.124h225.435l4.18 4.18v12.27h11.73v-4.045l12.405-9.978 5.932 5.393-9.573 9.573v26.832z" style="fill:#999;fill-opacity:1;stroke:none;stroke-width:1px;stroke-linecap:butt;stroke-linejoin:miter;stroke-opacity:1" transform="translate(-571.766 -13.487)scale(.12066)"/><path d="M5493.366 169.05v-27.506h-6.742v27.505z" style="fill:#d5d3ce;fill-opacity:1;stroke:#000;stroke-width:1px;stroke-linecap:butt;stroke-linejoin:miter;stroke-opacity:0" transform="translate(-571.766 -13.487)scale(.12066)"/><path d="M5504.22 124.596v10.362h5.393v-10.402z" style="fill:#c2bfb8;fill-opacity:1;stroke:#000;stroke-width:1.08323px;stroke-linecap:butt;stroke-linejoin:miter;stroke-opacity:0" transform="translate(-571.766 -13.487)scale(.12066)"/><path d="M5599.106 124.554v10.3h5.393v-10.34z" style="fill:#c2bfb8;fill-opacity:1;stroke:#000;stroke-width:1.07994px;stroke-linecap:butt;stroke-linejoin:miter;stroke-opacity:0" transform="translate(-571.766 -13.487)scale(.12066)"/><path d="m5704.763 168.846-.022-27.748H5698l.022 27.748z" style="fill:#d5d3ce;fill-opacity:1;stroke:#000;stroke-width:1px;stroke-linecap:butt;stroke-linejoin:miter;stroke-opacity:0" transform="translate(-571.766 -13.487)scale(.12066)"/><path d="m5704.763 168.846-.022-27.748 18.51-.061 6.124 4.18v23.595z" style="fill:#bdbdb7;fill-opacity:1;stroke:none;stroke-width:1px;stroke-linecap:butt;stroke-linejoin:miter;stroke-opacity:1" transform="translate(-571.766 -13.487)scale(.12066)"/><path d="m5502.534 138.396 7.079-3.438h75.976l5.938 3.428v2.976H5502.4z" style="fill:#333331;fill-opacity:1;stroke:#000;stroke-width:1px;stroke-linecap:butt;stroke-linejoin:miter;stroke-opacity:0" transform="translate(-571.766 -13.487)scale(.12066)"/><path d="m5597.608 138.317 7.079-3.438h75.976l5.938 3.428v2.976h-89.128z" style="fill:#333331;fill-opacity:1;fill-rule:nonzero;stroke:none;stroke-width:1px;stroke-linecap:butt;stroke-linejoin:miter;stroke-opacity:0" transform="translate(-571.766 -13.487)scale(.12066)"/><path fill="none" d="M5579.607 151.577v14.13l2.45 2.578h62.344l2.586-2.72v-14.083z" style="fill:#9a9a97;fill-opacity:0;stroke:#a1a19d;stroke-width:.976316px;stroke-linecap:butt;stroke-linejoin:miter;stroke-opacity:1" transform="translate(-571.766 -13.487)scale(.12066)"/><path d="M5493.35 168.846v-27.505l204.65-.243.021 27.748z" style="fill:#8a8b87;fill-opacity:1;stroke:#000;stroke-width:1px;stroke-linecap:butt;stroke-linejoin:miter;stroke-opacity:0" transform="translate(-571.766 -13.487)scale(.12066)"/><path d="M5723.25 141.037v-4.045l12.405-9.978 5.932 5.393-9.573 9.573v26.832h-2.639v-23.596zM5465.186 141.576l-.27-5.933-6.74-5.393-6.742 6.472 5.663 4.584v27.775h2.653V143.75Z" style="fill:#8b8b88;fill-opacity:1;stroke:none;stroke-width:1px;stroke-linecap:butt;stroke-linejoin:miter;stroke-opacity:1" transform="translate(-571.766 -13.487)scale(.12066)"/><path d="m5476.782 129.71 5.123-5.123 22.315.008.01 5.111z" style="fill:#a9a8a3;fill-opacity:1;stroke:none;stroke-width:1px;stroke-linecap:butt;stroke-linejoin:miter;stroke-opacity:1" transform="translate(-571.766 -13.487)scale(.12066)"/><path d="M5509.613 124.556v10.402h75.976v-10.425z" style="fill:#b0b0ab;fill-opacity:1;stroke:none;stroke-width:1px;stroke-linecap:butt;stroke-linejoin:miter;stroke-opacity:1" transform="translate(-571.766 -13.487)scale(.12066)"/><path d="M5459.75 169.081V143.75l5.436-2.174 21.438-.032v27.505z" style="fill:#c1c1bb;fill-opacity:1;stroke:none;stroke-width:1px;stroke-linecap:butt;stroke-linejoin:miter;stroke-opacity:1" transform="translate(-571.766 -13.487)scale(.12066)"/><path d="M5604.5 124.514v10.34l76.163.025v-10.335z" style="fill:#b0b0ab;fill-opacity:1;stroke:none;stroke-width:1px;stroke-linecap:butt;stroke-linejoin:miter;stroke-opacity:1" transform="translate(-571.766 -13.487)scale(.12066)"/><path d="M5585.59 134.958v-10.425l13.516.02v10.3l5.58.026-7.078 3.438-.135 2.966-5.946.08v-2.977z" style="fill:#a3a39f;fill-opacity:1;stroke:none;stroke-width:1px;stroke-linecap:butt;stroke-linejoin:miter;stroke-opacity:1" transform="translate(-571.766 -13.487)scale(.12066)"/><path d="M5476.782 141.576V129.71l27.448-.005-.01 5.252h5.393l-7.079 3.438-.135 2.967z" style="fill:#bebdb8;fill-opacity:1;stroke:none;stroke-width:1px;stroke-linecap:butt;stroke-linejoin:miter;stroke-opacity:1" transform="translate(-571.766 -13.487)scale(.12066)"/><path d="M5686.601 138.307v-13.73l-5.938-.033v10.335z" style="fill:#979794;fill-opacity:1;stroke:none;stroke-width:1px;stroke-linecap:butt;stroke-linejoin:miter;stroke-opacity:1" transform="translate(-571.766 -13.487)scale(.12066)"/><path d="M5686.601 141.283v-2.976h24.877l.042 2.73z" style="fill:#bcbab5;fill-opacity:1;stroke:none;stroke-width:1px;stroke-linecap:butt;stroke-linejoin:miter;stroke-opacity:1" transform="translate(-571.766 -13.487)scale(.12066)"/><path d="M5686.601 138.307v-13.73l20.74.01 4.18 4.18-.043 9.54z" style="fill:#abaaa6;fill-opacity:1;stroke:none;stroke-width:1px;stroke-linecap:butt;stroke-linejoin:miter;stroke-opacity:1" transform="translate(-571.766 -13.487)scale(.12066)"/><path d="M5637.236 154.494h3.978v14.23h-61.96v-14.142h3.888v10.342h54.094z" style="fill:#949490;fill-opacity:1;stroke:none;stroke-width:1px;stroke-linecap:butt;stroke-linejoin:miter;stroke-opacity:1" transform="translate(-571.766 -13.487)scale(.12066)"/><path d="m5579.253 154.582 4.155-3.182h53.917l3.889 3.094z" style="fill:#646461;fill-opacity:1;stroke:none;stroke-width:1px;stroke-linecap:butt;stroke-linejoin:miter;stroke-opacity:1" transform="translate(-571.766 -13.487)scale(.12066)"/><path d="m5583.142 154.582 54.094-.088v10.43h-54.094z" style="fill:#8b8b88;fill-opacity:1;stroke:none;stroke-width:1px;stroke-linecap:butt;stroke-linejoin:miter;stroke-opacity:1" transform="translate(-571.766 -13.487)scale(.12066)"/><path d="M5621.499 164.84c.01-1.605.293-3.301 0-4.806-1.611-2.75-3.547-3.633-5.657-3.516-7.646-.784-9.04 6.046-16.263 6.094-4.678-.13-5.221-1.884-5.48-3.75l.051-4.453v-30.23" style="fill:none;stroke:#61615e;stroke-width:.814227px;stroke-linecap:butt;stroke-linejoin:miter;stroke-opacity:1;filter:url(#t)" transform="matrix(.12083 0 0 .11763 -572.726 -12.985)"/></g><g style="filter:url(#u)"><path d="M20.173 6.886c-6.747 0-12.229 5.287-12.229 11.794v126.516c0 5.352 3.71 9.875 8.78 11.314q.08-.119.132-.252a3.52 3.52 0 0 1 3.332-2.358h6.236c1.544 0 2.879.983 3.362 2.358.121.318.357.577.656.732h23.642a1.38 1.38 0 0 0 .665-.732 3.52 3.52 0 0 1 3.331-2.358h6.235c1.545 0 2.88.983 3.364 2.358.12.317.355.577.654.732h27.644c.373-.138.675-.428.816-.796a3.52 3.52 0 0 1 3.331-2.358h6.235c1.545 0 2.88.983 3.363 2.358.14.368.436.658.805.796h28.105a1.38 1.38 0 0 0 .664-.732 3.52 3.52 0 0 1 3.332-2.358h6.235c1.545 0 2.88.983 3.363 2.358.121.317.356.577.655.732h23.503a1.38 1.38 0 0 0 .665-.732 3.52 3.52 0 0 1 3.331-2.358h6.235c1.545 0 2.88.983 3.364 2.358q.05.128.125.243c5.053-1.449 8.747-5.965 8.747-11.305V18.68c0-6.507-5.444-11.794-12.19-11.794zm-6.709 72.87c1.035 0 1.84.814 1.84 1.775 0 .998-.805 1.775-1.84 1.775s-1.84-.814-1.84-1.775c0-.998.844-1.775 1.84-1.775m180.864 0c1.035 0 1.84.814 1.84 1.775.038.998-.805 1.775-1.84 1.775s-1.84-.814-1.84-1.775c0-.998.843-1.775 1.84-1.775M23.43 125.286a7.53 7.53 0 0 1 4.1 1.294c4.099 2.58 4.343 9.128.45 12.008-3.677 3.15-10.007 1.45-11.604-3.121-1.932-4.448 1.583-10.006 6.431-10.164q.311-.022.623-.017m37.989.245a7.53 7.53 0 0 1 4.097 1.293c4.097 2.58 4.345 9.13.45 12.008-3.677 3.155-10.007 1.45-11.606-3.12-1.926-4.451 1.587-10.004 6.435-10.165a7 7 0 0 1 .624-.016m42.144 0a7.53 7.53 0 0 1 4.098 1.293c4.097 2.58 4.344 9.13.449 12.008-3.676 3.155-10.007 1.45-11.605-3.12-1.928-4.452 1.586-10.004 6.435-10.165q.312-.022.623-.016m42.428 0a7.53 7.53 0 0 1 4.098 1.293c4.097 2.58 4.344 9.13.449 12.008-3.677 3.155-10.007 1.45-11.606-3.12-1.927-4.452 1.587-10.003 6.436-10.165q.311-.022.623-.016m37.418.284a7.53 7.53 0 0 1 4.1 1.295c4.098 2.58 4.342 9.127.449 12.007-3.677 3.15-10.006 1.451-11.604-3.12-1.932-4.449 1.584-10.007 6.432-10.165q.31-.021.623-.017" style="display:inline;fill:#1a1a1a;fill-opacity:1;stroke-width:.264583;enable-background:new"/></g><g style="display:inline" transform="rotate(90 131.906 117.18)"><path d="M76.244 26.025c-25.5 0-46.219 19.983-46.219 44.577v478.17c0 20.227 14.02 37.324 33.184 42.761.196-.3.371-.612.5-.951a13.32 13.32 0 0 1 12.592-8.912h23.568c5.838 0 10.882 3.715 12.71 8.912a5.2 5.2 0 0 0 2.478 2.766h89.353c1.146-.584 2.057-1.567 2.514-2.766a13.32 13.32 0 0 1 12.592-8.912h23.566c5.838 0 10.884 3.715 12.711 8.912a5.2 5.2 0 0 0 2.473 2.766h104.48c1.41-.523 2.554-1.617 3.084-3.008a13.32 13.32 0 0 1 12.592-8.912h23.566c5.838 0 10.884 3.714 12.711 8.912a5.2 5.2 0 0 0 3.041 3.008h106.223a5.2 5.2 0 0 0 2.512-2.766 13.32 13.32 0 0 1 12.591-8.912h23.567c5.837 0 10.883 3.715 12.71 8.912a5.2 5.2 0 0 0 2.473 2.766h88.83c1.146-.584 2.057-1.567 2.514-2.766a13.32 13.32 0 0 1 12.592-8.912h23.566c5.838 0 10.884 3.715 12.711 8.912.124.325.29.628.473.918 19.1-5.475 33.06-22.544 33.06-42.729V70.601c0-24.593-20.574-44.576-46.074-44.576zM50.89 301.441c3.912 0 6.955 3.074 6.955 6.707 0 3.773-3.043 6.71-6.955 6.71s-6.953-3.076-6.953-6.71c0-3.772 3.186-6.707 6.953-6.707m683.578 0c3.912 0 6.955 3.074 6.955 6.707.145 3.773-3.043 6.71-6.955 6.71s-6.955-3.076-6.955-6.71c0-3.772 3.188-6.707 6.955-6.707M88.555 473.521c5.494.084 10.949 1.795 15.496 4.891 15.49 9.753 16.412 34.5 1.697 45.385C91.853 535.702 67.93 529.28 61.893 512c-7.3-16.812 5.984-37.815 24.308-38.414a28 28 0 0 1 2.354-.065m143.58.926c5.495.09 10.934 1.79 15.486 4.889 15.483 9.752 16.422 34.507 1.697 45.383-13.894 11.925-37.82 5.48-43.863-11.795-7.279-16.82 5.997-37.805 24.322-38.416a28 28 0 0 1 2.358-.06m159.285 0c5.495.09 10.934 1.79 15.486 4.889 15.485 9.754 16.42 34.503 1.698 45.383-13.894 11.924-37.82 5.482-43.862-11.795-7.286-16.824 5.997-37.806 24.322-38.416q1.177-.081 2.356-.06m160.357 0c5.495.09 10.934 1.79 15.487 4.889 15.485 9.754 16.42 34.503 1.697 45.383-13.894 11.925-37.82 5.48-43.863-11.795-7.283-16.824 5.998-37.804 24.324-38.416q1.178-.081 2.355-.06m141.422 1.074a28.46 28.46 0 0 1 15.494 4.893c15.49 9.753 16.413 34.498 1.698 45.383-13.896 11.905-37.818 5.485-43.856-11.795-7.301-16.811 5.985-37.818 24.309-38.416q1.177-.082 2.355-.065" style="fill:#1a1a1a;fill-opacity:1;stroke-width:1" transform="matrix(0 -.26458 .26458 0 14.726 249.085)"/><circle cx="-225.624" cy="147.671" r="7.182" style="opacity:1;fill:none;fill-opacity:1;stroke:#000;stroke-width:.3;stroke-linecap:butt;stroke-linejoin:miter;stroke-miterlimit:4;stroke-dasharray:none;stroke-dashoffset:0;stroke-opacity:1" transform="rotate(-90)"/><circle cx="-187.637" cy="147.917" r="7.182" style="opacity:1;fill:none;fill-opacity:1;stroke:#000;stroke-width:.3;stroke-linecap:butt;stroke-linejoin:miter;stroke-miterlimit:4;stroke-dasharray:none;stroke-dashoffset:0;stroke-opacity:1" transform="rotate(-90)"/><circle cx="-145.493" cy="147.917" r="7.182" style="opacity:1;fill:none;fill-opacity:1;stroke:#000;stroke-width:.3;stroke-linecap:butt;stroke-linejoin:miter;stroke-miterlimit:4;stroke-dasharray:none;stroke-dashoffset:0;stroke-opacity:1" transform="rotate(-90)"/><circle cx="-103.065" cy="147.917" r="7.182" style="opacity:1;fill:none;fill-opacity:1;stroke:#000;stroke-width:.3;stroke-linecap:butt;stroke-linejoin:miter;stroke-miterlimit:4;stroke-dasharray:none;stroke-dashoffset:0;stroke-opacity:1" transform="rotate(-90)"/><circle cx="-65.646" cy="148.201" r="7.182" style="opacity:1;fill:none;fill-opacity:1;stroke:#000;stroke-width:.3;stroke-linecap:butt;stroke-linejoin:miter;stroke-miterlimit:4;stroke-dasharray:none;stroke-dashoffset:0;stroke-opacity:1" transform="rotate(-90)"/><path d="M153.86 241.217h7.098c3.993 0 7.468-2.377 9.316-5.52H153.86zM170.238 55.83c-1.85-3.143-5.324-5.52-9.28-5.52h-7.099v5.52z" style="fill:#c8ab37;stroke-width:.264583"/><path d="M-215.648 153.489h3.527v18.227h-3.527z" style="fill:#c8ab37;stroke-width:.264583" transform="rotate(-90)"/><path d="M231.275 469.404c-18.545 0-32.021 14.392-33.47 32.278v91.666h6.605c1.145-.584 2.057-1.567 2.514-2.766a13.32 13.32 0 0 1 12.592-8.912h23.566c5.838 0 10.884 3.715 12.711 8.912a5.2 5.2 0 0 0 2.473 2.766h6.478v-91.666c0-17.747-14.923-32.278-33.469-32.278m.29 5.867c15.502 0 27.962 12.157 27.962 26.97 0 14.95-12.46 26.968-27.963 26.968s-27.962-12.017-27.962-26.969c0-14.951 12.46-26.969 27.962-26.969M390.506 469.404c-18.546 0-32.02 14.392-33.469 32.278v91.666h6.367c1.146-.584 2.057-1.567 2.514-2.766a13.32 13.32 0 0 1 12.592-8.912h23.566c5.838 0 10.884 3.715 12.711 8.912a5.2 5.2 0 0 0 2.473 2.766h6.715v-91.666c0-17.747-14.924-32.278-33.47-32.278m.578 5.867c15.503 0 27.965 12.157 27.965 26.97 0 14.95-12.462 26.968-27.965 26.968s-27.963-12.017-27.963-26.969c0-14.951 12.46-26.969 27.963-26.969M551.186 469.404c-18.546 0-32.02 14.392-33.47 32.278v91.666h6.245c1.145-.584 2.057-1.567 2.514-2.766a13.32 13.32 0 0 1 12.591-8.912h23.567c5.837 0 10.883 3.715 12.71 8.912a5.2 5.2 0 0 0 2.473 2.766h6.838v-91.666c0-17.747-14.923-32.278-33.468-32.278m.144 5.867c15.503 0 27.963 12.157 27.963 26.97 0 14.95-12.46 26.968-27.963 26.968s-27.963-12.017-27.963-26.969c0-14.951 12.46-26.969 27.963-26.969M693.318 469.822c-18.835 0-34.193 14.813-34.193 32.979v90.54700000000001h7.521c1.146-.584 2.057-1.567 2.514-2.766a13.32 13.32 0 0 1 12.592-8.912h23.566c5.838 0 10.884 3.715 12.711 8.912a5.2 5.2 0 0 0 1.014 1.627c2.821-.64 5.629-1.524 8.469-2.633V502.94c0-18.445-15.358-33.117-34.194-33.117m-.289 6.569c15.503 0 27.963 12.157 27.963 26.968s-12.605 26.97-27.963 26.97c-15.503 0-27.963-12.018-27.963-26.97s12.46-26.968 27.963-26.968" style="fill:#c8ab37;stroke-width:1" transform="matrix(0 -.26458 .26458 0 14.726 249.085)"/><g style="fill:url(#v);fill-opacity:1;stroke:#d4aa00;stroke-width:.702803" transform="matrix(0 -.38335 .36971 0 21.612 241.217)"><path d="M0 357.7v19.2c0 10.8 6.2 20.2 14.4 25.2v-44.4z" style="fill:url(#w);fill-opacity:1;stroke:#d4aa00;stroke-width:.702803"/><path d="M483.6 402c8.2-5 14.4-14.4 14.4-25.1v-19.2h-14.4z" style="fill:url(#x);fill-opacity:1;stroke:#d4aa00;stroke-width:.702803"/></g><path d="M-215.648 153.489h3.527v18.227h-3.527z" style="fill:url(#y);fill-opacity:1;stroke:#d4aa00;stroke-width:.264583" transform="rotate(-90)"/><path d="M231.275 469.404c-18.545 0-32.021 14.392-33.47 32.278v91.666h6.605c1.145-.584 2.057-1.567 2.514-2.766a13.32 13.32 0 0 1 12.592-8.912h23.566c5.838 0 10.884 3.715 12.711 8.912a5.2 5.2 0 0 0 2.477 2.766h6.474v-91.666c0-17.747-14.923-32.278-33.469-32.278zm.29 5.867c15.502 0 27.962 12.157 27.962 26.97 0 14.95-12.46 26.968-27.963 26.968s-27.962-12.017-27.962-26.969c0-14.951 12.46-26.969 27.962-26.969z" style="opacity:1;fill:url(#z);fill-opacity:1;stroke:url(#A);stroke-width:1.13386;stroke-linecap:butt;stroke-linejoin:miter;stroke-miterlimit:4;stroke-dasharray:none;stroke-dashoffset:0;stroke-opacity:1" transform="matrix(0 -.26458 .26458 0 14.726 249.085)"/><path d="M390.506 469.404c-18.546 0-32.02 14.392-33.469 32.278v91.666h6.367c1.146-.585 2.057-1.567 2.514-2.766a13.32 13.32 0 0 1 12.592-8.912h23.566c5.838 0 10.884 3.715 12.711 8.912a5.2 5.2 0 0 0 2.477 2.766h6.71v-91.666c0-17.747-14.923-32.278-33.468-32.278zm.578 5.867c15.503 0 27.965 12.157 27.965 26.97 0 14.95-12.462 26.968-27.965 26.968s-27.963-12.017-27.963-26.969c0-14.951 12.46-26.969 27.963-26.969z" style="opacity:1;fill:url(#B);fill-opacity:1;stroke:url(#C);stroke-width:1.13386;stroke-linecap:butt;stroke-linejoin:miter;stroke-miterlimit:4;stroke-dasharray:none;stroke-dashoffset:0;stroke-opacity:1" transform="matrix(0 -.26458 .26458 0 14.726 249.085)"/><path d="M551.186 469.404c-18.546 0-32.02 14.392-33.47 32.278v91.666h6.245q.019-.012.037-.024.377-.197.715-.449.082-.061.16-.127a5.3 5.3 0 0 0 1.066-1.162c.049-.072.1-.14.145-.215.15-.251.285-.512.39-.789a13.32 13.32 0 0 1 12.592-8.912h23.567c5.108 0 9.609 2.844 11.879 7.037q.487.9.832 1.875c.107.282.243.55.396.805.034.057.075.11.112.166a5 5 0 0 0 .576.734q.24.252.51.47.066.058.134.112c.237.179.485.342.75.479h6.832v-91.666c0-17.747-14.923-32.278-33.468-32.278zm.144 5.867c15.503 0 27.963 12.157 27.963 26.97 0 14.95-12.46 26.968-27.963 26.968s-27.963-12.017-27.963-26.969c0-14.951 12.46-26.969 27.963-26.969z" style="opacity:1;fill:url(#D);fill-opacity:1;stroke:url(#E);stroke-width:1.13386;stroke-linecap:butt;stroke-linejoin:miter;stroke-miterlimit:4;stroke-dasharray:none;stroke-dashoffset:0;stroke-opacity:1" transform="matrix(0 -.26458 .26458 0 14.726 249.085)"/><path d="M693.318 469.822c-18.835 0-34.193 14.813-34.193 32.979v90.547h7.521c1.146-.584 2.057-1.567 2.514-2.766a13.32 13.32 0 0 1 12.592-8.912h23.566c5.838 0 10.884 3.715 12.711 8.912a5.2 5.2 0 0 0 1.014 1.627c2.821-.64 5.629-1.524 8.469-2.633V502.94c0-18.445-15.358-33.117-34.194-33.117zm-.289 6.569c15.503 0 27.963 12.157 27.963 26.968s-12.605 26.97-27.963 26.97c-15.503 0-27.963-12.018-27.963-26.97s12.46-26.968 27.963-26.968z" style="opacity:1;fill:url(#F);fill-opacity:1;stroke:url(#G);stroke-width:1.13386;stroke-linecap:butt;stroke-linejoin:miter;stroke-miterlimit:4;stroke-dasharray:none;stroke-dashoffset:0;stroke-opacity:1" transform="matrix(0 -.26458 .26458 0 14.726 249.085)"/><path d="M88.084 469.402c-18.546 0-32.02 14.394-33.469 32.28v86.474a47 47 0 0 0 8.6 3.367c.193-.297.366-.606.494-.941a13.32 13.32 0 0 1 12.592-8.912h23.568c5.838 0 10.882 3.715 12.71 8.912a5.2 5.2 0 0 0 2.478 2.766h6.496v-91.666c0-17.747-14.923-32.28-33.469-32.28zm.47 4.12c5.495.083 10.95 1.794 15.497 4.89 6.992 4.402 11.005 11.86 11.963 19.719.213 1.34.324 2.713.324 4.11 0 3.419-.659 6.683-1.85 9.687-1.686 4.627-4.59 8.8-8.74 11.869C91.853 535.702 67.93 529.28 61.893 512c-7.3-16.812 5.984-37.815 24.308-38.414a28 28 0 0 1 2.354-.065z" style="opacity:1;fill:url(#H);fill-opacity:1;stroke:url(#I);stroke-width:1.13386;stroke-linecap:butt;stroke-linejoin:miter;stroke-miterlimit:4;stroke-dasharray:none;stroke-dashoffset:0;stroke-opacity:1" transform="matrix(0 -.26458 .26458 0 14.726 249.085)"/><path d="M35.9 376.4c0-2.8 2.1-5.1 5.5-5.1 3.3 0 5.5 2.4 5.5 5.1v4.7c0 2.8-2.2 5.1-5.5 5.1s-5.5-2.4-5.5-5.1zm7.6 0c0-1.3-.8-2.3-2.2-2.3-1.3 0-2.1 1.1-2.1 2.3v4.7c0 1.2.8 2.3 2.1 2.3s2.2-1.1 2.2-2.3zM136.5 374.1c2.8 0 3.4-.8 3.4-2.5h2.9v14.3h-3.4v-9.5h-3v-2.3zM248.9 378.5c1.7-1 3-1.7 3-3.1 0-1.1-.7-1.6-1.6-1.6-1 0-1.8.6-1.8 2.1h-3.3c0-2.6 1.8-4.6 5.1-4.6 2.6 0 4.9 1.3 4.9 4.3 0 2.4-2.3 3.9-3.8 4.7-2 1.3-2.5 1.8-2.5 2.9h6.1v2.7h-10c.1-4.7 1.7-6 3.9-7.4" style="stroke-width:.702803" transform="matrix(0 -.38335 .36971 0 21.612 241.217)"/><g style="stroke-width:.702803"><path d="M352.1 381.1c0 1.6.9 2.5 2.2 2.5 1.2 0 1.9-.9 1.9-1.9 0-1.2-.6-2-2.1-2h-1.3v-2.6h1.3c1.5 0 1.9-.7 1.9-1.8s-.7-1.6-1.6-1.6c-1.4 0-1.8.8-1.8 2.1h-3.3c0-2.4 1.5-4.6 5.1-4.6 2.6 0 5 1.3 5 4 0 1.6-1 2.8-2.1 3.2 1.3.5 2.3 1.6 2.3 3.5 0 2.7-2.4 4.3-5.2 4.3-3.5 0-5.5-2.1-5.5-5.1zM368.5 385.9h-3.1l-5.1-14.3h3.5l3.1 10.1 3.1-10.1h3.6z" style="stroke-width:.702803" transform="matrix(0 -.38335 .36971 0 21.612 241.217)"/></g><path d="M444.4 378.3h7.4v2.5h-1.5c-.6 3.3-3 5.5-7.1 5.5-4.8 0-7.5-3.5-7.5-7.5 0-3.9 2.8-7.5 7.5-7.5 3.8 0 6.4 2.3 6.6 5h-3.5c-.2-1.1-1.4-2.2-3.1-2.2-2.7 0-4.1 2.3-4.1 4.7 0 2.5 1.4 4.7 4.4 4.7 2 0 3.2-1.2 3.4-2.7h-2.5z" style="stroke-width:.702803" transform="matrix(0 -.38335 .36971 0 21.612 241.217)"/><g style="stroke-width:.702803"><path d="M461.4 380.9v-9.3h3.3v14.3h-3.5l-5.2-9.2v9.2h-3.3v-14.3h3.5zM472.7 371.6c4.8 0 7.5 3.5 7.5 7.2s-2.7 7.2-7.5 7.2h-5.3v-14.3h5.3zm-1.9 2.8v8.6h1.8c2.7 0 4.2-2.1 4.2-4.3s-1.6-4.3-4.2-4.3z" style="stroke-width:.702803" transform="matrix(0 -.38335 .36971 0 21.612 241.217)"/></g><path d="M35.9 376.4c0-2.8 2.1-5.1 5.5-5.1 3.3 0 5.5 2.4 5.5 5.1v4.7c0 2.8-2.2 5.1-5.5 5.1s-5.5-2.4-5.5-5.1zm7.6 0c0-1.3-.8-2.3-2.2-2.3-1.3 0-2.1 1.1-2.1 2.3v4.7c0 1.2.8 2.3 2.1 2.3s2.2-1.1 2.2-2.3zM136.5 374.1c2.8 0 3.4-.8 3.4-2.5h2.9v14.3h-3.4v-9.5h-3v-2.3zM248.9 378.5c1.7-1 3-1.7 3-3.1 0-1.1-.7-1.6-1.6-1.6-1 0-1.8.6-1.8 2.1h-3.3c0-2.6 1.8-4.6 5.1-4.6 2.6 0 4.9 1.3 4.9 4.3 0 2.4-2.3 3.9-3.8 4.7-2 1.3-2.5 1.8-2.5 2.9h6.1v2.7h-10c.1-4.7 1.7-6 3.9-7.4" style="fill:none;stroke:none;stroke-width:.702803" transform="matrix(0 -.38335 .36971 0 21.612 241.217)"/><g style="fill:none;stroke:none;stroke-width:.702803"><path d="M352.1 381.1c0 1.6.9 2.5 2.2 2.5 1.2 0 1.9-.9 1.9-1.9 0-1.2-.6-2-2.1-2h-1.3v-2.6h1.3c1.5 0 1.9-.7 1.9-1.8s-.7-1.6-1.6-1.6c-1.4 0-1.8.8-1.8 2.1h-3.3c0-2.4 1.5-4.6 5.1-4.6 2.6 0 5 1.3 5 4 0 1.6-1 2.8-2.1 3.2 1.3.5 2.3 1.6 2.3 3.5 0 2.7-2.4 4.3-5.2 4.3-3.5 0-5.5-2.1-5.5-5.1zM368.5 385.9h-3.1l-5.1-14.3h3.5l3.1 10.1 3.1-10.1h3.6z" style="fill:none;stroke:none;stroke-width:.702803" transform="matrix(0 -.38335 .36971 0 21.612 241.217)"/></g><path d="M444.4 378.3h7.4v2.5h-1.5c-.6 3.3-3 5.5-7.1 5.5-4.8 0-7.5-3.5-7.5-7.5 0-3.9 2.8-7.5 7.5-7.5 3.8 0 6.4 2.3 6.6 5h-3.5c-.2-1.1-1.4-2.2-3.1-2.2-2.7 0-4.1 2.3-4.1 4.7 0 2.5 1.4 4.7 4.4 4.7 2 0 3.2-1.2 3.4-2.7h-2.5z" style="fill:none;stroke:none;stroke-width:.702803" transform="matrix(0 -.38335 .36971 0 21.612 241.217)"/><g style="fill:none;stroke:none;stroke-width:.702803"><path d="M461.4 380.9v-9.3h3.3v14.3h-3.5l-5.2-9.2v9.2h-3.3v-14.3h3.5zM472.7 371.6c4.8 0 7.5 3.5 7.5 7.2s-2.7 7.2-7.5 7.2h-5.3v-14.3h5.3zm-1.9 2.8v8.6h1.8c2.7 0 4.2-2.1 4.2-4.3s-1.6-4.3-4.2-4.3z" style="fill:none;stroke:none;stroke-width:.702803" transform="matrix(0 -.38335 .36971 0 21.612 241.217)"/></g><g style="fill:none;stroke:url(#J);stroke-width:.351401;stroke-miterlimit:4;stroke-dasharray:none"><g style="fill:none;stroke:url(#K);stroke-width:.351401;stroke-miterlimit:4;stroke-dasharray:none" transform="matrix(0 -.38335 .36971 0 21.629 241.2)"><path d="M35.9 376.4c0-2.8 2.1-5.1 5.5-5.1 3.3 0 5.5 2.4 5.5 5.1v4.7c0 2.8-2.2 5.1-5.5 5.1s-5.5-2.4-5.5-5.1zm7.6 0c0-1.3-.8-2.3-2.2-2.3-1.3 0-2.1 1.1-2.1 2.3v4.7c0 1.2.8 2.3 2.1 2.3s2.2-1.1 2.2-2.3z" style="fill:none;stroke:url(#L);stroke-width:.351401;stroke-miterlimit:4;stroke-dasharray:none"/></g></g><g style="fill:none;stroke:url(#M);stroke-width:.351401;stroke-miterlimit:4;stroke-dasharray:none"><g style="fill:none;stroke:url(#N);stroke-width:.351401;stroke-miterlimit:4;stroke-dasharray:none" transform="matrix(0 -.38335 .36971 0 21.639 241.161)"><path d="M136.5 374.1c2.8 0 3.4-.8 3.4-2.5h2.9v14.3h-3.4v-9.5h-3v-2.3z" style="fill:none;stroke:url(#O);stroke-width:.351401;stroke-miterlimit:4;stroke-dasharray:none"/></g></g><g style="fill:none;stroke:url(#P);stroke-width:.351401;stroke-miterlimit:4;stroke-dasharray:none"><g style="fill:none;stroke:url(#Q);stroke-width:.351401;stroke-miterlimit:4;stroke-dasharray:none" transform="matrix(0 -.38335 .36971 0 21.668 241.161)"><path d="M248.9 378.5c1.7-1 3-1.7 3-3.1 0-1.1-.7-1.6-1.6-1.6-1 0-1.8.6-1.8 2.1h-3.3c0-2.6 1.8-4.6 5.1-4.6 2.6 0 4.9 1.3 4.9 4.3 0 2.4-2.3 3.9-3.8 4.7-2 1.3-2.5 1.8-2.5 2.9h6.1v2.7h-10c.1-4.7 1.7-6 3.9-7.4z" style="fill:none;stroke:url(#R);stroke-width:.351401;stroke-miterlimit:4;stroke-dasharray:none"/></g></g><g style="fill:none;stroke:url(#S);stroke-width:.351401;stroke-miterlimit:4;stroke-dasharray:none" transform="matrix(0 -.38335 .36971 0 21.656 241.2)"><path d="M352.1 381.1c0 1.6.9 2.5 2.2 2.5 1.2 0 1.9-.9 1.9-1.9 0-1.2-.6-2-2.1-2h-1.3v-2.6h1.3c1.5 0 1.9-.7 1.9-1.8s-.7-1.6-1.6-1.6c-1.4 0-1.8.8-1.8 2.1h-3.3c0-2.4 1.5-4.6 5.1-4.6 2.6 0 5 1.3 5 4 0 1.6-1 2.8-2.1 3.2 1.3.5 2.3 1.6 2.3 3.5 0 2.7-2.4 4.3-5.2 4.3-3.5 0-5.5-2.1-5.5-5.1z" style="fill:none;stroke:url(#T);stroke-width:.351401;stroke-miterlimit:4;stroke-dasharray:none"/><path d="M368.5 385.9h-3.1l-5.1-14.3h3.5l3.1 10.1 3.1-10.1h3.6z" style="fill:none;stroke:url(#U);stroke-width:.351401;stroke-miterlimit:4;stroke-dasharray:none"/></g><g style="fill:none;stroke:url(#V);stroke-width:.351401;stroke-miterlimit:4;stroke-dasharray:none"><g style="fill:none;stroke:url(#W);stroke-width:.351401;stroke-miterlimit:4;stroke-dasharray:none" transform="matrix(0 -.38335 .36971 0 21.629 241.2)"><path d="M444.4 378.3h7.4v2.5h-1.5c-.6 3.3-3 5.5-7.1 5.5-4.8 0-7.5-3.5-7.5-7.5 0-3.9 2.8-7.5 7.5-7.5 3.8 0 6.4 2.3 6.6 5h-3.5c-.2-1.1-1.4-2.2-3.1-2.2-2.7 0-4.1 2.3-4.1 4.7 0 2.5 1.4 4.7 4.4 4.7 2 0 3.2-1.2 3.4-2.7h-2.5z" style="fill:none;stroke:url(#X);stroke-width:.351401;stroke-miterlimit:4;stroke-dasharray:none"/></g></g><g style="fill:none;stroke:url(#Y);stroke-width:.351401;stroke-miterlimit:4;stroke-dasharray:none"><g style="fill:none;stroke:url(#Z);stroke-width:.351401;stroke-miterlimit:4;stroke-dasharray:none" transform="matrix(0 -.38335 .36971 0 21.629 241.2)"><path d="M461.4 380.9v-9.3h3.3v14.3h-3.5l-5.2-9.2v9.2h-3.3v-14.3h3.5z" style="fill:none;stroke:url(#aa);stroke-width:.351401;stroke-miterlimit:4;stroke-dasharray:none"/><path d="M472.7 371.6c4.8 0 7.5 3.5 7.5 7.2s-2.7 7.2-7.5 7.2h-5.3v-14.3h5.3zm-1.9 2.8v8.6h1.8c2.7 0 4.2-2.1 4.2-4.3s-1.6-4.3-4.2-4.3z" style="fill:none;stroke:url(#ab);stroke-width:.351401;stroke-miterlimit:4;stroke-dasharray:none"/></g></g><g style="fill:none;fill-opacity:1;stroke:url(#ac);stroke-width:.702803" transform="matrix(0 -.38335 .36971 0 21.678 241.309)"><path d="M0 357.7v19.2c0 10.8 6.2 20.2 14.4 25.2v-44.4z" style="fill:none;fill-opacity:1;stroke:url(#ad);stroke-width:.702803"/><path d="M483.6 402c8.2-5 14.4-14.4 14.4-25.1v-19.2h-14.4z" style="fill:none;fill-opacity:1;stroke:url(#ae);stroke-width:.702803"/></g><path d="M-215.74 153.555h3.527v18.227h-3.527z" style="fill:none;fill-opacity:1;stroke:url(#af);stroke-width:.264583" transform="rotate(-90)"/><path d="M138.988 187.985c0 4.907 3.808 8.472 8.54 8.856h24.253v-17.71h-24.253c-4.695 0-8.54 3.948-8.54 8.854zm15.824-.076c0 4.102-3.18 7.398-7.136 7.398s-7.135-3.296-7.135-7.398 3.216-7.399 7.135-7.399c3.956 0 7.136 3.297 7.136 7.399z" style="fill:none;fill-opacity:1;stroke:url(#ag);stroke-width:.264583"/><path d="M138.988 145.856c0 4.906 3.808 8.472 8.54 8.855h24.253V137h-24.253c-4.695 0-8.54 3.948-8.54 8.855zm15.824-.154c0 4.102-3.18 7.399-7.136 7.399s-7.135-3.297-7.135-7.399 3.216-7.398 7.135-7.398c3.956 0 7.136 3.296 7.136 7.398z" style="fill:none;fill-opacity:1;stroke:url(#ah);stroke-width:.264583"/><path d="M138.988 103.342c0 4.907 3.808 8.472 8.54 8.856h24.253v-17.71h-24.253c-4.695 0-8.54 3.948-8.54 8.854zm15.824-.038c0 4.102-3.18 7.399-7.136 7.399s-7.135-3.297-7.135-7.399 3.216-7.398 7.135-7.398c3.956 0 7.136 3.296 7.136 7.398z" style="fill:none;fill-opacity:1;stroke:url(#ai);stroke-width:.264583"/><path d="M139.099 65.736c0 4.984 3.919 9.047 8.725 9.047h23.957V61.52c0-1.648-.37-3.22-.998-4.83h-22.922c-4.88 0-8.762 4.064-8.762 9.047zm16.008.077c0 4.102-3.18 7.398-7.135 7.398-3.956 0-7.136-3.296-7.136-7.398s3.217-7.399 7.136-7.399 7.135 3.335 7.135 7.399z" style="fill:none;fill-opacity:1;stroke:url(#aj);stroke-width:.264583"/><path d="M138.988 187.985c0 4.907 3.808 8.472 8.54 8.856h24.253v-17.71h-24.253c-4.695 0-8.54 3.948-8.54 8.854zm15.824-.076c0 4.102-3.18 7.398-7.136 7.398s-7.135-3.296-7.135-7.398 3.216-7.399 7.135-7.399c3.956 0 7.136 3.297 7.136 7.399z" style="fill:none;fill-opacity:1;stroke:url(#ak);stroke-width:.264583"/><path d="M138.988 187.985c0 4.907 3.808 8.472 8.54 8.856h24.253v-17.71h-24.253c-4.695 0-8.54 3.948-8.54 8.854zm15.824-.076c0 4.102-3.18 7.398-7.136 7.398s-7.135-3.296-7.135-7.398 3.216-7.399 7.135-7.399c3.956 0 7.136 3.297 7.136 7.399z" style="fill:none;fill-opacity:1;stroke:url(#al);stroke-width:.264583"/><g transform="matrix(1 0 0 -1 0 290.814)"><use xlink:href="#am" width="100%" height="100%" style="opacity:1" transform="rotate(-90 103.13 71.93)"/><use xlink:href="#am" width="100%" height="100%" transform="rotate(-90 110.596 79.396)"/><use xlink:href="#am" width="100%" height="100%" transform="rotate(-90 118.062 86.862)"/><use xlink:href="#am" width="100%" height="100%" transform="rotate(-90 125.528 94.328)"/><use xlink:href="#am" width="100%" height="100%" transform="rotate(-90 132.994 101.794)"/><use xlink:href="#am" width="100%" height="100%" transform="rotate(-90 110.295 64.765)"/><use xlink:href="#am" width="100%" height="100%" transform="rotate(-90 117.761 72.23)"/><use xlink:href="#am" width="100%" height="100%" transform="rotate(-90 125.227 79.696)"/><use xlink:href="#am" width="100%" height="100%" transform="rotate(-90 132.693 87.162)"/><use xlink:href="#am" width="100%" height="100%" transform="rotate(-90 140.159 94.628)"/><use xlink:href="#am" width="100%" height="100%" transform="rotate(-90 117.46 57.6)"/><use xlink:href="#am" width="100%" height="100%" transform="rotate(-90 124.926 65.065)"/><use xlink:href="#am" width="100%" height="100%" transform="rotate(-90 132.392 72.531)"/><use xlink:href="#am" width="100%" height="100%" transform="rotate(-90 139.858 79.997)"/><use xlink:href="#am" width="100%" height="100%" transform="rotate(-90 147.324 87.463)"/><use xlink:href="#am" width="100%" height="100%" transform="rotate(-90 124.626 50.434)"/><use xlink:href="#am" width="100%" height="100%" transform="rotate(-90 132.092 57.9)"/><use xlink:href="#am" width="100%" height="100%" transform="rotate(-90 139.558 65.366)"/><use xlink:href="#am" width="100%" height="100%" transform="rotate(-90 147.024 72.832)"/><use xlink:href="#am" width="100%" height="100%" transform="rotate(-90 154.49 80.298)"/><use xlink:href="#am" width="100%" height="100%" transform="rotate(-90 131.791 43.269)"/><use xlink:href="#am" width="100%" height="100%" transform="rotate(-90 139.257 50.735)"/><use xlink:href="#am" width="100%" height="100%" transform="rotate(-90 146.723 58.2)"/><use xlink:href="#am" width="100%" height="100%" transform="rotate(-90 154.189 65.667)"/><use xlink:href="#am" width="100%" height="100%" transform="rotate(-90 161.655 73.132)"/></g><path id="ap" d="M-215.74 153.555h3.527v18.227h-3.527z" style="fill:url(#an);fill-opacity:1;stroke:url(#ao);stroke-width:.3;stroke-miterlimit:4;stroke-dasharray:none" transform="rotate(-90)"/><use xlink:href="#ap" width="100%" height="100%"/><use xlink:href="#ap" width="100%" height="100%" transform="translate(0 -4.707)"/><use xlink:href="#ap" width="100%" height="100%" transform="translate(0 -9.414)"/><use xlink:href="#ap" width="100%" height="100%" transform="translate(0 -14.12)"/><use xlink:href="#ap" width="100%" height="100%" transform="translate(0 -37.656)"/><use xlink:href="#ap" width="100%" height="100%" transform="translate(0 -42.363)"/><use xlink:href="#ap" width="100%" height="100%" transform="translate(0 -47.07)"/><use xlink:href="#ap" width="100%" height="100%" transform="translate(0 -51.776)"/><use xlink:href="#ap" width="100%" height="100%" transform="translate(0 -56.483)"/><use xlink:href="#ap" width="100%" height="100%" transform="translate(0 -80.018)"/><use xlink:href="#ap" width="100%" height="100%" transform="translate(0 -84.725)"/><use xlink:href="#ap" width="100%" height="100%" transform="translate(0 -89.432)"/><use xlink:href="#ap" width="100%" height="100%" transform="translate(0 -94.14)"/><use xlink:href="#ap" width="100%" height="100%" transform="translate(0 -98.846)"/><use xlink:href="#ap" width="100%" height="100%" transform="translate(0 -122.38)"/><use xlink:href="#ap" width="100%" height="100%" transform="translate(0 -127.088)"/><use xlink:href="#ap" width="100%" height="100%" transform="translate(0 -131.795)"/><use xlink:href="#ap" width="100%" height="100%" transform="translate(0 -136.502)"/><path d="M138.988 225.804c0 4.907 3.808 8.472 8.54 8.855h24.253v-17.71h-24.253c-4.695 0-8.54 3.948-8.54 8.855zm15.824-.077c0 4.102-3.18 7.399-7.136 7.399s-7.135-3.297-7.135-7.399c0-4.101 3.216-7.398 7.135-7.398 3.956 0 7.136 3.297 7.136 7.398z" style="fill:none;fill-opacity:1;stroke:url(#aq);stroke-width:.264583"/></g><g style="display:inline;fill:#10d95e;fill-opacity:1;stroke:none;enable-background:new"><g style="display:inline;fill:url(#ar);fill-opacity:1;stroke:#fff;stroke-width:.235078;stroke-miterlimit:4;stroke-dasharray:none" transform="matrix(.7019 0 0 .7019 87.649 23.604)"><g style="fill:url(#as);fill-opacity:1;stroke:#fff;stroke-width:.235078;stroke-miterlimit:4;stroke-dasharray:none"><path d="M32.5 18c1.5 0 2.6-1.2 2.6-2.6s-1.2-2.6-2.6-2.6c-1.5 0-2.6 1.2-2.6 2.6s1.2 2.6 2.6 2.6" style="fill:url(#at);fill-opacity:1;stroke:url(#au);stroke-width:.235078;stroke-miterlimit:4;stroke-dasharray:none"/><path d="M13.3 12.8c-1.5 0-2.6 1.2-2.6 2.6s1.2 2.6 2.6 2.6 2.6-1.2 2.6-2.6-1.2-2.6-2.6-2.6" style="fill:url(#av);fill-opacity:1;stroke:url(#aw);stroke-width:.235078;stroke-miterlimit:4;stroke-dasharray:none"/><path d="M13.3 7.6c-4.3 0-7.8 3.5-7.8 7.8s3.5 7.8 7.8 7.8h19.5c4.3 0 7.8-3.5 7.8-7.8s-3.5-7.8-7.8-7.8H13.3m19.5 20.8H13.3c-7.2 0-13-5.8-13-13s5.8-13 13-13h19.5c7.2 0 13 5.8 13 13s-5.9 13-13 13" style="fill:url(#ax);fill-opacity:1;stroke:url(#ay);stroke-width:.235078;stroke-miterlimit:4;stroke-dasharray:none"/></g></g></g><path d="M131.941 40.641c-.867 0-1.502.694-1.502 1.503 0 .81.693 1.503 1.502 1.503.867 0 1.503-.694 1.503-1.503a1.53 1.53 0 0 0-1.503-1.503zm0 .175a1.33 1.33 0 0 1 1.329 1.328 1.33 1.33 0 0 1-1.329 1.329 1.33 1.33 0 0 1-1.328-1.329 1.33 1.33 0 0 1 1.328-1.328z" style="display:inline;fill:url(#az);fill-opacity:1;stroke:url(#aA);stroke-width:.135875;stroke-miterlimit:4;stroke-dasharray:none;enable-background:new"/><g style="display:inline"><g id="aP" style="display:inline;enable-background:new" transform="rotate(90 131.906 117.18)"><path d="M86.343-209.895h21.013v.778H86.343Z" style="opacity:1;fill:#b3b3b3;fill-opacity:1;stroke:none;stroke-width:.79375;stroke-linecap:butt;stroke-linejoin:miter;stroke-miterlimit:4;stroke-dasharray:none;stroke-dashoffset:0;stroke-opacity:1" transform="scale(1 -1)"/><path d="M209.895 107.355h21.012v1.062h-21.012z" style="opacity:1;fill:#666;fill-opacity:1;stroke:none;stroke-width:.79375;stroke-linecap:butt;stroke-linejoin:miter;stroke-miterlimit:4;stroke-dasharray:none;stroke-dashoffset:0;stroke-opacity:1" transform="matrix(0 1 1 0 0 0)"/><rect width="21.013" height=".778" x="209.895" y="85.565" rx="0" ry="0" style="opacity:1;fill:url(#aB);fill-opacity:1;stroke:none;stroke-width:.79375;stroke-linecap:butt;stroke-linejoin:miter;stroke-miterlimit:4;stroke-dasharray:none;stroke-dashoffset:0;stroke-opacity:1" transform="matrix(0 1 1 0 0 0)"/><g transform="matrix(0 -.35278 -.35278 0 174.438 400.274)"><rect width="4.412" height="2.206" x="486.87" y="251.846" rx="0" ry="0" style="opacity:1;fill:url(#aC);fill-opacity:1;stroke:none;stroke-width:2.25;stroke-linecap:butt;stroke-linejoin:miter;stroke-miterlimit:4;stroke-dasharray:none;stroke-dashoffset:0;stroke-opacity:1"/><rect width="4.412" height="2.206" x="528.942" y="251.846" rx="0" ry="0" style="opacity:1;fill:url(#aD);fill-opacity:1;stroke:none;stroke-width:2.25;stroke-linecap:butt;stroke-linejoin:miter;stroke-miterlimit:4;stroke-dasharray:none;stroke-dashoffset:0;stroke-opacity:1"/></g><g transform="matrix(0 .35278 .35278 0 19.232 40.362)"><rect width="4.412" height="2.206" x="486.87" y="251.846" rx="0" ry="0" style="opacity:1;fill:url(#aE);fill-opacity:1;stroke:none;stroke-width:2.25;stroke-linecap:butt;stroke-linejoin:miter;stroke-miterlimit:4;stroke-dasharray:none;stroke-dashoffset:0;stroke-opacity:1"/><rect width="4.412" height="2.206" x="528.942" y="251.846" rx="0" ry="0" style="opacity:1;fill:url(#aF);fill-opacity:1;stroke:none;stroke-width:2.25;stroke-linecap:butt;stroke-linejoin:miter;stroke-miterlimit:4;stroke-dasharray:none;stroke-dashoffset:0;stroke-opacity:1"/></g><rect width="21.013" height=".778" x="86.343" y="-231.686" rx="0" ry="0" style="opacity:1;fill:url(#aG);fill-opacity:1;stroke:none;stroke-width:.79375;stroke-linecap:butt;stroke-linejoin:miter;stroke-miterlimit:4;stroke-dasharray:none;stroke-dashoffset:0;stroke-opacity:1" transform="scale(1 -1)"/><rect width="21.013" height="21.013" x="86.343" y="209.895" rx="0" ry="0" style="opacity:1;fill:url(#aH);fill-opacity:1;stroke:none;stroke-width:.79375;stroke-linecap:butt;stroke-linejoin:miter;stroke-miterlimit:4;stroke-dasharray:none;stroke-dashoffset:0;stroke-opacity:1"/><rect width="21.013" height="21.013" x="86.343" y="209.895" rx="0" ry="0" style="opacity:.5;fill:url(#aI);fill-opacity:1;stroke:url(#aJ);stroke-width:.132292;stroke-linecap:butt;stroke-linejoin:miter;stroke-miterlimit:4;stroke-dasharray:none;stroke-dashoffset:0;stroke-opacity:1"/><circle cx="286.434" cy="510.033" r="16.266" style="opacity:1;fill:#333;fill-opacity:1;stroke:#1a1a1a;stroke-width:.375;stroke-linecap:butt;stroke-linejoin:miter;stroke-miterlimit:4;stroke-dasharray:none;stroke-dashoffset:0;stroke-opacity:1;filter:url(#aK)" transform="matrix(.35278 0 0 .35278 -4.031 40.362)"/><circle cx="96.849" cy="220.401" r="5.738" style="opacity:1;fill:#000;fill-opacity:1;stroke:#000;stroke-width:.132292;stroke-linecap:butt;stroke-linejoin:miter;stroke-miterlimit:4;stroke-dasharray:none;stroke-dashoffset:0;stroke-opacity:1"/><path d="M282.927 526.04c7.88 1.685 16.406-3.563 18.413-11.375 2.409-7.871-2.404-17.012-10.275-19.443-7.762-2.849-17.158 1.555-19.987 9.316-3.158 7.584.705 17.138 8.279 20.344 1.134.534 2.343.904 3.57 1.158z" style="opacity:1;fill:#000;fill-opacity:1;stroke:url(#aL);stroke-width:.15;stroke-linecap:butt;stroke-linejoin:miter;stroke-miterlimit:4;stroke-dasharray:none;stroke-dashoffset:0;stroke-opacity:1;filter:url(#aM)" transform="matrix(.35278 0 0 .35278 -4.031 40.362)"/><circle cx="96.849" cy="220.401" r="5.738" style="opacity:1;fill:none;fill-opacity:1;stroke:url(#aN);stroke-width:.2;stroke-linecap:butt;stroke-linejoin:miter;stroke-miterlimit:4;stroke-dasharray:none;stroke-dashoffset:0;stroke-opacity:1;filter:url(#aO)"/></g><use xlink:href="#aP" width="100%" height="100%" transform="translate(151.152)"/></g><g style="display:inline"><path d="M522.828 137.072a3.977 3.977 0 0 0-3.974 3.977v7.531a3.974 3.974 0 1 0 7.949 0v-7.531a3.98 3.98 0 0 0-3.975-3.977m-8.726 12.83c0 4.085 3.014 7.26 6.796 8.11v2.052h-4.36v3.192h12.74v-3.192h-4.372v-2.052c3.783-.85 6.807-4.024 6.807-8.11h-2.877c0 3.134-2.699 5.471-5.932 5.471-3.236 0-5.925-2.338-5.925-5.47z" style="clip-rule:evenodd;display:inline;opacity:1;fill:#4d4d4d;fill-rule:evenodd;stroke:none;stroke-width:.377953;stroke-linejoin:round;stroke-miterlimit:4;stroke-dasharray:none;enable-background:new" transform="scale(.26458)"/></g><g style="display:inline"><g style="display:inline;fill:#0191dc;fill-opacity:1;stroke:none"><g style="display:inline;fill:#0191dc;fill-opacity:1;stroke:none;stroke-width:.702803"><path d="M173.3 0h-58.1v56.7zM114.4 0H26.1C12.3 2.1.2 13.3.2 27.7v83.9z" style="fill:#0191dc;fill-opacity:1;stroke:none;stroke-width:.702803" transform="matrix(.38335 0 0 .36971 7.868 6.886)"/><path d="M202.7 0h-29.5v27.9z" style="fill:#0191dc;fill-opacity:1;stroke:none;stroke-width:.702803" transform="matrix(.38335 0 0 .36971 7.868 6.886)"/></g><path d="M79.676 338.717s-42.887 41.22-45.93 44.295h45.93zm-15.504 19.842h4.492L76.2 378.54h-5.217l-.869-2.375h-7.388l-.87 2.375h-5.072zm2.318 5.728-2.607 8.244h5.07zM647.777 185.568v44.436l45.93-44.436zm4.202 4.192h8.548c5.651 0 6.81 3.353 6.81 5.449 0 2.515-2.028 4.051-3.622 4.47 1.304 0 3.767 1.538 3.767 4.612 0 2.096-1.16 5.59-6.81 5.59h-8.693zm4.78 3.492v4.752h2.9c2.317 0 2.898-1.397 2.898-2.375 0-.839-.436-2.377-2.899-2.377zm0 7.965v5.031h3.044c2.318 0 2.898-1.398 2.898-2.516 0-.978-.58-2.515-2.898-2.515z" style="display:inline;fill:#0191dc;fill-opacity:1;stroke:none;stroke-width:1" transform="matrix(.26458 0 0 .26458 7.641 6.886)"/></g></g><g style="display:inline"><g style="display:inline;fill:#fc0;fill-opacity:1;stroke:none"><g style="display:inline;fill:#fc0;fill-opacity:1;stroke:none;stroke-width:.702803"><path d="M173.3 0h-58.1v56.7zM114.4 0H26.1C12.3 2.1.2 13.3.2 27.7v83.9z" style="fill:#fc0;fill-opacity:1;stroke:none;stroke-width:.702803" transform="matrix(.38335 0 0 .36971 7.868 6.886)"/><path d="M202.7 0h-29.5v27.9z" style="fill:#fc0;fill-opacity:1;stroke:none;stroke-width:.702803" transform="matrix(.38335 0 0 .36971 7.868 6.886)"/></g><path d="M79.676 338.717s-42.887 41.22-45.93 44.295h45.93zm-15.504 19.842h4.492L76.2 378.54h-5.217l-.869-2.375h-7.388l-.87 2.375h-5.072zm2.318 5.728-2.607 8.244h5.07zM647.777 185.568v44.436l45.93-44.436zm4.202 4.192h8.548c5.651 0 6.81 3.353 6.81 5.449 0 2.515-2.028 4.051-3.622 4.47 1.304 0 3.767 1.538 3.767 4.612 0 2.096-1.16 5.59-6.81 5.59h-8.693zm4.78 3.492v4.752h2.9c2.317 0 2.898-1.397 2.898-2.375 0-.839-.436-2.377-2.899-2.377zm0 7.965v5.031h3.044c2.318 0 2.898-1.398 2.898-2.516 0-.978-.58-2.515-2.898-2.515z" style="display:inline;fill:#fc0;fill-opacity:1;stroke:none;stroke-width:1" transform="matrix(.26458 0 0 .26458 7.641 6.886)"/></g></g><g style="display:inline"><g style="display:inline;fill:#de1642;fill-opacity:1;stroke:none"><g style="display:inline;fill:#de1642;fill-opacity:1;stroke:none;stroke-width:.702803"><path d="M173.3 0h-58.1v56.7zM114.4 0H26.1C12.3 2.1.2 13.3.2 27.7v83.9z" style="fill:#de1642;fill-opacity:1;stroke:none;stroke-width:.702803" transform="matrix(.38335 0 0 .36971 7.868 6.886)"/><path d="M202.7 0h-29.5v27.9z" style="fill:#de1642;fill-opacity:1;stroke:none;stroke-width:.702803" transform="matrix(.38335 0 0 .36971 7.868 6.886)"/></g><path d="M79.676 338.717s-42.887 41.22-45.93 44.295h45.93zm-15.504 19.842h4.492L76.2 378.54h-5.217l-.869-2.375h-7.388l-.87 2.375h-5.072zm2.318 5.728-2.607 8.244h5.07zM647.777 185.568v44.436l45.93-44.436zm4.202 4.192h8.548c5.651 0 6.81 3.353 6.81 5.449 0 2.515-2.028 4.051-3.622 4.47 1.304 0 3.767 1.538 3.767 4.612 0 2.096-1.16 5.59-6.81 5.59h-8.693zm4.78 3.492v4.752h2.9c2.317 0 2.898-1.397 2.898-2.375 0-.839-.436-2.377-2.899-2.377zm0 7.965v5.031h3.044c2.318 0 2.898-1.398 2.898-2.516 0-.978-.58-2.515-2.898-2.515z" style="display:inline;fill:#de1642;fill-opacity:1;stroke:none;stroke-width:1" transform="matrix(.26458 0 0 .26458 7.641 6.886)"/></g></g><g style="display:inline"><g style="display:inline;fill:#10d95e;fill-opacity:1;stroke:none"><g style="display:inline;fill:#10d95e;fill-opacity:1;stroke:none;stroke-width:.702803"><path d="M173.3 0h-58.1v56.7zM114.4 0H26.1C12.3 2.1.2 13.3.2 27.7v83.9z" style="fill:#10d95e;fill-opacity:1;stroke:none;stroke-width:.702803" transform="matrix(.38335 0 0 .36971 7.868 6.886)"/><path d="M202.7 0h-29.5v27.9z" style="fill:#10d95e;fill-opacity:1;stroke:none;stroke-width:.702803" transform="matrix(.38335 0 0 .36971 7.868 6.886)"/></g><path d="M79.676 338.717s-42.887 41.22-45.93 44.295h45.93zm-15.504 19.842h4.492L76.2 378.54h-5.217l-.869-2.375h-7.388l-.87 2.375h-5.072zm2.318 5.728-2.607 8.244h5.07zM647.777 185.568v44.436l45.93-44.436zm4.202 4.192h8.548c5.651 0 6.81 3.353 6.81 5.449 0 2.515-2.028 4.051-3.622 4.47 1.304 0 3.767 1.538 3.767 4.612 0 2.096-1.16 5.59-6.81 5.59h-8.693zm4.78 3.492v4.752h2.9c2.317 0 2.898-1.397 2.898-2.375 0-.839-.436-2.377-2.899-2.377zm0 7.965v5.031h3.044c2.318 0 2.898-1.398 2.898-2.516 0-.978-.58-2.515-2.898-2.515z" style="display:inline;fill:#10d95e;fill-opacity:1;stroke:none;stroke-width:1" transform="matrix(.26458 0 0 .26458 7.641 6.886)"/></g></g><g style="display:inline;opacity:1" transform="translate(7.641 6.886)"><use xlink:href="#bk" width="100%" height="100%" transform="translate(6.646 9.518)"/><use xlink:href="#bk" width="100%" height="100%" transform="translate(6.646 23.909)"/><use xlink:href="#bk" width="100%" height="100%" transform="translate(6.646 38.3)"/><use xlink:href="#bk" width="100%" height="100%" transform="translate(6.646 52.69)"/><use xlink:href="#bk" width="100%" height="100%" transform="translate(6.646 67.08)"/><use xlink:href="#bk" width="100%" height="100%" transform="translate(21.6 9.518)"/><use xlink:href="#bk" width="100%" height="100%" transform="translate(21.6 23.909)"/><use xlink:href="#bk" width="100%" height="100%" transform="translate(21.6 38.3)"/><use xlink:href="#bk" width="100%" height="100%" transform="translate(21.6 52.69)"/><use xlink:href="#bk" width="100%" height="100%" transform="translate(21.6 67.08)"/><use xlink:href="#bk" width="100%" height="100%" transform="translate(36.553 9.518)"/><use xlink:href="#bk" width="100%" height="100%" transform="translate(36.553 23.909)"/><use xlink:href="#bk" width="100%" height="100%" transform="translate(36.553 38.3)"/><use xlink:href="#bk" width="100%" height="100%" transform="translate(36.553 52.69)"/><use xlink:href="#bk" width="100%" height="100%" transform="translate(36.553 67.08)"/><use xlink:href="#bk" width="100%" height="100%" transform="translate(51.507 9.518)"/><use xlink:href="#bk" width="100%" height="100%" transform="translate(51.507 23.909)"/><use xlink:href="#bk" width="100%" height="100%" transform="translate(51.507 38.3)"/><use xlink:href="#bk" width="100%" height="100%" transform="translate(51.507 52.69)"/><use xlink:href="#bk" width="100%" height="100%" transform="translate(51.507 67.08)"/><use xlink:href="#bk" width="100%" height="100%" transform="translate(66.46 9.518)"/><use xlink:href="#bk" width="100%" height="100%" transform="translate(66.46 23.909)"/><use xlink:href="#bk" width="100%" height="100%" transform="translate(66.46 38.3)"/><use xlink:href="#bk" width="100%" height="100%" transform="translate(66.46 52.69)"/><use xlink:href="#bk" width="100%" height="100%" transform="translate(66.46 67.08)"/></g></svg>