<svg width="20" height="20" xmlns="http://www.w3.org/2000/svg" xmlns:xlink="http://www.w3.org/1999/xlink"><defs><path d="M16.897 3.985h.662a.662.662 0 1 1 0 1.324h-.662v.662a.662.662 0 1 1-1.323 0v-.662h-.662a.662.662 0 0 1 0-1.324h.662v-.661a.662.662 0 0 1 1.323 0v.661Z" id="a"/></defs><g fill="none" fill-rule="evenodd"><g stroke="#FFF" stroke-linecap="round" stroke-width="1.5"><path d="m16.144 12.78-2.458-2.532a.97.97 0 0 0-1.347-.06L9.295 12.66c-.469.362-1.113.302-1.464-.18l-.293-.363c-.35-.482-1.053-.543-1.463-.18L3.85 13.805h0c0 .852.69 1.543 1.543 1.543h8.81a2 2 0 0 0 2-2v-.568h-.059Z" fill="#FFF" stroke-linejoin="round"/><path d="M16.203 8.18v5.294c0 .974-.79 1.764-1.765 1.764H5.615c-.975 0-1.765-.79-1.765-1.764v-7.06c0-.974.79-1.764 1.765-1.764h7.059"/></g><use fill="#FFF" xlink:href="#a"/><path stroke="#FFF" stroke-width=".1" d="M16.947 3.935h.612a.712.712 0 1 1 0 1.424l-.612-.05v.662a.712.712 0 1 1-1.423 0l.05-.612h-.662a.712.712 0 1 1 0-1.424l.612.05v-.661a.712.712 0 1 1 1.423 0v.611Z"/></g></svg>