<svg xmlns="http://www.w3.org/2000/svg" xmlns:xlink="http://www.w3.org/1999/xlink" width="100" height="100"><defs><path id="a" d="M63.154 65.686a4.37 4.37 0 0 1-2.23-.615 4.43 4.43 0 0 1-1.547-6.053 12.84 12.84 0 0 0 0-13.002 4.44 4.44 0 0 1 1.548-6.06c2.11-1.23 4.796-.537 6.02 1.556a21.73 21.73 0 0 1 0 22.003 4.38 4.38 0 0 1-3.791 2.17m13.13 7.09a4.35 4.35 0 0 1-2.23-.615 4.43 4.43 0 0 1-1.547-6.052 26.84 26.84 0 0 0 0-27.185 4.44 4.44 0 0 1 1.547-6.06 4.404 4.404 0 0 1 6.02 1.556 35.69 35.69 0 0 1 0 36.186 4.38 4.38 0 0 1-3.79 2.17M51.892 30.894V74.1c0 5.12-6.034 7.799-9.797 4.349l-8.122-7.46a15.56 15.56 0 0 0-10.52-4.1h-1.421c-3.882 0-7.033-3.161-7.033-7.071V45.253c0-3.903 3.15-7.07 7.033-7.07h1.343c3.896 0 7.644-1.464 10.52-4.101l8.2-7.53c3.763-3.45 9.797-.771 9.797 4.34"/></defs><g fill="none" fill-rule="evenodd" transform="matrix(-1 0 0 1 100 0)"><mask id="b" fill="#fff"><use xlink:href="#a"/></mask><use xlink:href="#a" fill="#4C97FF"/><g fill="#575E75" mask="url(#b)"><path d="M0 0h100v100H0z"/></g></g></svg>