<svg width="100" height="100" xmlns="http://www.w3.org/2000/svg" xmlns:xlink="http://www.w3.org/1999/xlink"><defs><path d="M63.154 65.686a4.37 4.37 0 0 1-2.23-.615 4.431 4.431 0 0 1-1.547-6.053 12.844 12.844 0 0 0 0-13.002 4.438 4.438 0 0 1 1.548-6.06c2.11-1.23 4.796-.537 6.02 1.556a21.731 21.731 0 0 1 0 22.003 4.375 4.375 0 0 1-3.791 2.17Zm13.13 7.09a4.351 4.351 0 0 1-2.23-.615 4.431 4.431 0 0 1-1.547-6.052 26.835 26.835 0 0 0 0-27.185 4.44 4.44 0 0 1 1.547-6.06 4.404 4.404 0 0 1 6.02 1.556 35.69 35.69 0 0 1 0 36.186 4.383 4.383 0 0 1-3.79 2.17ZM51.892 30.894V74.1c0 5.12-6.034 7.799-9.797 4.349l-8.122-7.46a15.561 15.561 0 0 0-10.52-4.1h-1.421c-3.882 0-7.033-3.161-7.033-7.071V45.253c0-3.903 3.15-7.07 7.033-7.07h1.343c3.896 0 7.644-1.464 10.52-4.101l8.2-7.53c3.763-3.45 9.797-.771 9.797 4.34Z" id="a"/></defs><g transform="matrix(-1 0 0 1 100 0)" fill="none" fill-rule="evenodd"><mask id="b" fill="#fff"><use xlink:href="#a"/></mask><use fill="#4C97FF" xlink:href="#a"/><g mask="url(#b)" fill="#575E75"><path d="M0 0h100v100H0z"/></g></g></svg>