<svg xmlns="http://www.w3.org/2000/svg" width="20" height="20"><g fill="none" fill-rule="evenodd" transform="rotate(90 7.5 9.5)"><circle cx="8" cy=".75" r="1" fill="#575E75" opacity=".5"/><circle cx="8" cy="13.25" r="1" fill="#575E75" opacity=".5"/><circle cx="8" cy="3.875" r="1" fill="#575E75" opacity=".5"/><circle cx="8" cy="7" r="1" fill="#575E75" opacity=".5"/><circle cx="8" cy="10.125" r="1" fill="#575E75" opacity=".5"/><path fill="#4C97FF" d="M16 3.084v7.832c0 .518-.743.78-1.176.412l-4.622-3.917a.52.52 0 0 1 0-.823l4.622-3.916c.433-.368 1.176-.106 1.176.412" opacity=".5"/><path fill="#4C97FF" d="M0 10.916V3.084c0-.518.743-.78 1.175-.412l4.623 3.917a.52.52 0 0 1 0 .823l-4.623 3.916C.743 11.696 0 11.434 0 10.916"/></g></svg>