<svg width="20" height="20" xmlns="http://www.w3.org/2000/svg"><path d="M2 10.25a.25.25 0 1 1 0-.5h5c.353 0 .583-.241.904-.865l.142-.277c.31-.597.541-.858.954-.858.388 0 .648.145 1.057.498l.073.063c.38.33.576.439.87.439.2 0 .403-.357.766-1.337.47-1.27.693-1.663 1.234-1.663.402 0 .631.14.913.461l.107.123c.265.298.492.416.98.416.377 0 .693-.618 1.263-2.33.68-2.038 1.002-2.67 1.737-2.67a.25.25 0 0 1 .25.25v16a.25.25 0 0 1-.25.25c-.735 0-1.057-.632-1.737-2.67-.57-1.712-.886-2.33-1.263-2.33-.488 0-.715.118-.98.416l-.107.123c-.282.321-.51.461-.913.461-.54 0-.764-.393-1.234-1.663-.363-.98-.566-1.337-.766-1.337-.294 0-.49.11-.87.44l-.073.062c-.41.353-.67.498-1.057.498-.413 0-.644-.26-.954-.858l-.142-.277c-.321-.624-.55-.865-.904-.865H2Z" fill="#CF63CF" fill-rule="nonzero"/></svg>