<svg xmlns="http://www.w3.org/2000/svg" xmlns:xlink="http://www.w3.org/1999/xlink" width="20" height="20"><defs><path id="a" d="M6.542 14.877c0 .799-.645 1.446-1.43 1.446a1.441 1.441 0 0 1 0-2.883c.785 0 1.43.647 1.43 1.437m2.092-1.293a.506.506 0 0 0 0-.713l-1.525-1.533a.5.5 0 0 0-.71 0l-.522.523a2.8 2.8 0 0 0-.765-.101A3.116 3.116 0 0 0 2 14.887a3.117 3.117 0 0 0 3.832 3.036c1.537-.343 2.516-1.766 2.368-3.34a2.7 2.7 0 0 0-.087-.476zM6.542 5.116c0 .8-.645 1.447-1.43 1.447a1.44 1.44 0 1 1 0-2.883c.785 0 1.43.647 1.43 1.436m11.46 11.055-.065.064a2.58 2.58 0 0 1-3.66 0L7.879 9.807a.44.44 0 0 1 0-.619l1.279-1.286c.17-.17.445-.17.615 0zm0-12.342-5.597 5.625-1.894-1.905 3.766-3.784a2.58 2.58 0 0 1 3.66 0zM8.634 6.42a.507.507 0 0 1 0 .714L7.109 8.665a.5.5 0 0 1-.71 0l-.522-.523c-.242.07-.503.1-.765.1A3.115 3.115 0 0 1 2 5.117a3.116 3.116 0 0 1 3.832-3.035c1.537.343 2.516 1.766 2.368 3.34a2.7 2.7 0 0 1-.087.475zm1.759 3.626a.416.416 0 1 1-.83 0 .416.416 0 1 1 .83 0"/></defs><g fill="none" fill-rule="evenodd"><mask id="b" fill="#fff"><use xlink:href="#a"/></mask><use xlink:href="#a" fill="#575E75"/><g fill="#4D97FF" mask="url(#b)"><path d="M0 0h20v20H0z"/></g></g></svg>