<svg xmlns="http://www.w3.org/2000/svg" width="20" height="20"><path fill="#FFF" fill-rule="evenodd" d="M10 18A8 8 0 1 1 10 2 8 8 0 0 1 10 18m-.147-5.638a1.05 1.05 0 0 0-1.047 1.06c0 .571.463 1.046 1.047 1.046.586 0 1.061-.475 1.061-1.046a1.06 1.06 0 0 0-1.06-1.06m-.391-.719h.698c.189 0 .365-.119.41-.302.089-.37.344-.624.685-.88l.46-.34c.73-.548 1.183-1.215 1.183-2.191 0-1.216-.987-2.397-2.96-2.397-1.777 0-2.836 1.204-2.836 2.628l.002.115c.01.221.185.403.406.41l.874.03a.42.42 0 0 0 .435-.423v-.01c0-.57.414-1.143 1.12-1.143.731 0 1.083.461 1.083.936 0 .317-.108.61-.437.854l-.62.463c-.696.522-.929 1.142-.929 1.715l.002.127a.42.42 0 0 0 .424.408"/></svg>