<svg xmlns="http://www.w3.org/2000/svg" xmlns:xlink="http://www.w3.org/1999/xlink" width="72" height="72"><style>@-webkit-keyframes pulsate{0%{transform:scale(.9)}to{transform:scale(1)}}@keyframes pulsate{0%{transform:scale(.9)}to{transform:scale(1)}}</style><defs><filter id="filter-2" width="150%" height="150%" x="-25%" y="-25%" filterUnits="objectBoundingBox"><feOffset in="SourceAlpha" result="shadowOffsetOuter1"/><feGaussianBlur in="shadowOffsetOuter1" result="shadowBlurOuter1" stdDeviation="4"/><feColorMatrix in="shadowBlurOuter1" values="0 0 0 0 0 0 0 0 0 0 0 0 0 0 0 0 0 0 0.5 0"/></filter><rect id="path-1" width="48" height="48" x="12" y="12" rx="24"/></defs><g id="mic-indicator" fill="none" fill-rule="evenodd" stroke="none" stroke-width="1"><circle cx="36" cy="36" r="36" fill="#FF6680" fill-opacity=".5" style="transform-origin:36px 36px;-webkit-animation:pulsate .5s ease-in-out infinite alternate;animation:pulsate .5s ease-in-out infinite alternate"/><circle id="outer1" cx="36" cy="36" r="30" fill="#FF6680" fill-opacity=".75"/><g id="inner"><use xlink:href="#path-1" fill="#000" filter="url(#filter-2)"/><use xlink:href="#path-1" fill="#FF6680"/></g><path id="icon" fill="#FFF" d="M36.996 44.762v3.526a1.292 1.292 0 1 1-2.584 0v-3.526c-3.806-.462-7.085-2.945-8.595-6.507a1.292 1.292 0 0 1 2.38-1.008c1.277 3.015 4.212 5.01 7.507 5.01 3.31 0 6.253-2.011 7.527-5.05a1.292 1.292 0 0 1 2.383 1c-1.505 3.588-4.794 6.09-8.618 6.555m-1.287-5.884c-2.498 0-4.524-2.049-4.524-4.575v-6.728c0-2.526 2.026-4.574 4.524-4.574 2.502 0 4.527 2.048 4.527 4.574v6.728c0 2.526-2.025 4.575-4.527 4.575"/></g></svg>