<svg width="100" height="100" xmlns="http://www.w3.org/2000/svg"><path d="M40.794 60.333c-1.218 0-2.408-.57-3.069-1.607-3.228-5.025-3.228-11.265 0-16.29.991-1.55 3.166-2.063 4.874-1.152 1.69.921 2.254 2.926 1.252 4.486-1.907 2.968-1.907 6.654 0 9.627 1.002 1.555.439 3.56-1.252 4.48a3.792 3.792 0 0 1-1.805.456Zm-10.78 4.334a3.02 3.02 0 0 1-2.615-1.51 24.97 24.97 0 0 1 0-25.155 3.026 3.026 0 0 1 4.154-1.081c1.441.865 1.921 2.752 1.067 4.212a18.775 18.775 0 0 0 0 18.899 3.093 3.093 0 0 1-1.067 4.207c-.48.29-1.02.428-1.538.428ZM48.87 34.179c0-3.625 4.437-5.525 7.204-3.079l6.03 5.34a11.682 11.682 0 0 0 7.737 2.908h.987c2.855 0 5.172 2.246 5.172 5.013V54.69c0 2.773-2.317 5.014-5.172 5.014h-1.044a11.682 11.682 0 0 0-7.737 2.908L56.074 67.9c-2.767 2.446-7.204.546-7.204-3.083V34.179Z" fill="#575E75" fill-rule="nonzero"/></svg>