<svg width="16" height="16" xmlns="http://www.w3.org/2000/svg" xmlns:xlink="http://www.w3.org/1999/xlink"><defs><path d="M10 2a8 8 0 1 1 0 16 8 8 0 0 1 0-16zm-.072 10.42a.961.961 0 0 0-.648.227.71.71 0 0 0-.264.56c0 .25.091.445.273.584.182.139.395.209.639.209.236 0 .444-.07.624-.211s.27-.335.27-.581a.716.716 0 0 0-.258-.56.93.93 0 0 0-.636-.227zM10.072 6c-.624 0-1.17.113-1.638.338-.468.225-.824.51-1.068.853C7.122 7.534 7 7.874 7 8.208c0 .162.077.313.231.452a.816.816 0 0 0 .567.209c.38 0 .638-.199.774-.597.144-.38.32-.668.528-.864.208-.196.532-.293.972-.293.376 0 .683.097.921.291.238.194.357.432.357.713a.741.741 0 0 1-.117.402 1.575 1.575 0 0 1-.288.336c-.114.1-.299.249-.555.446a8.95 8.95 0 0 0-.696.584 1.94 1.94 0 0 0-.414.571 1.762 1.762 0 0 0-.156.769c0 .236.071.414.213.534.142.12.317.18.525.18.4 0 .638-.183.714-.55l.099-.362.093-.206.183-.227.327-.288c.492-.387.833-.663 1.023-.827.19-.164.354-.358.492-.584.138-.225.207-.488.207-.787 0-.38-.121-.733-.363-1.057-.242-.324-.585-.58-1.029-.769-.444-.188-.956-.283-1.536-.283z" id="a"/></defs><use fill="#fff" xlink:href="#a" transform="translate(-2 -2)"/></svg>