<svg xmlns="http://www.w3.org/2000/svg" xmlns:xlink="http://www.w3.org/1999/xlink" width="16" height="16"><defs><path id="a" d="M10 2a8 8 0 1 1 0 16 8 8 0 0 1 0-16m-.072 10.42a.96.96 0 0 0-.648.227.71.71 0 0 0-.264.56q0 .375.273.584t.639.209q.354 0 .624-.211c.27-.211.27-.335.27-.581a.72.72 0 0 0-.258-.56.93.93 0 0 0-.636-.227zM10.072 6q-.936 0-1.638.338t-1.068.853T7 8.208q0 .243.231.452a.82.82 0 0 0 .567.209q.57 0 .774-.597.216-.57.528-.864t.972-.293q.564 0 .921.291t.357.713a.74.74 0 0 1-.117.402 1.6 1.6 0 0 1-.288.336q-.171.15-.555.446a9 9 0 0 0-.696.584 2 2 0 0 0-.414.571 1.8 1.8 0 0 0-.156.769q0 .354.213.534t.525.18q.6 0 .714-.55l.099-.362.093-.206.183-.227.327-.288q.738-.58 1.023-.827.285-.245.492-.584T13 8.11q0-.57-.363-1.057-.363-.486-1.029-.769t-1.536-.283z"/></defs><use xlink:href="#a" fill="#fff" transform="translate(-2 -2)"/></svg>