<svg width="34" height="34" viewBox="0 0 28 28" xmlns="http://www.w3.org/2000/svg"><g fill="none" fill-rule="evenodd"><path d="M22 20.51a.5.5 0 0 1-.5.5H11.197a.495.495 0 0 0-.353.146l-.698.698a.5.5 0 0 1-.353.146H7.207a.5.5 0 0 1-.353-.146l-.698-.698a.497.497 0 0 0-.353-.146H4.5a.5.5 0 0 1-.5-.5V16.5a.5.5 0 0 1 .5-.5h1.293a.5.5 0 0 1 .353.146l.708.708a.5.5 0 0 0 .353.146h2.586a.5.5 0 0 0 .353-.146l.708-.708a.5.5 0 0 1 .353-.146H21.5a.5.5 0 0 1 .5.5v4.01Zm-5.004-7a.5.5 0 0 1-.5.5h-5.299a.495.495 0 0 0-.353.146l-.698.698a.5.5 0 0 1-.353.146H7.207a.504.504 0 0 1-.354-.146l-.697-.698a.499.499 0 0 0-.353-.146H4.5a.5.5 0 0 1-.5-.5V9.5a.5.5 0 0 1 .5-.5h1.293a.5.5 0 0 1 .353.146l.707.708a.504.504 0 0 0 .354.146h2.586a.5.5 0 0 0 .353-.146l.707-.708A.504.504 0 0 1 11.207 9h5.29a.5.5 0 0 1 .5.5v4.01Z" fill="#FFF"/><g stroke="#FFF" stroke-width="2" stroke-linecap="round" stroke-linejoin="round"><path d="M22 5v4M24 7h-4"/></g></g></svg>