<svg xmlns="http://www.w3.org/2000/svg" width="34" height="34" viewBox="0 0 28 28"><g fill="none" fill-rule="evenodd"><path fill="#FFF" d="M22 20.51a.5.5 0 0 1-.5.5H11.197a.5.5 0 0 0-.353.146l-.698.698a.5.5 0 0 1-.353.146H7.207a.5.5 0 0 1-.353-.146l-.698-.698a.5.5 0 0 0-.353-.146H4.5a.5.5 0 0 1-.5-.5V16.5a.5.5 0 0 1 .5-.5h1.293a.5.5 0 0 1 .353.146l.708.708a.5.5 0 0 0 .353.146h2.586a.5.5 0 0 0 .353-.146l.708-.708a.5.5 0 0 1 .353-.146H21.5a.5.5 0 0 1 .5.5zm-5.004-7a.5.5 0 0 1-.5.5h-5.299a.5.5 0 0 0-.353.146l-.698.698a.5.5 0 0 1-.353.146H7.207a.5.5 0 0 1-.354-.146l-.697-.698a.5.5 0 0 0-.353-.146H4.5a.5.5 0 0 1-.5-.5V9.5a.5.5 0 0 1 .5-.5h1.293a.5.5 0 0 1 .353.146l.707.708a.5.5 0 0 0 .354.146h2.586a.5.5 0 0 0 .353-.146l.707-.708A.5.5 0 0 1 11.207 9h5.29a.5.5 0 0 1 .5.5z"/><g stroke="#FFF" stroke-linecap="round" stroke-linejoin="round" stroke-width="2"><path d="M22 5v4M24 7h-4"/></g></g></svg>