<svg xmlns="http://www.w3.org/2000/svg" width="108" height="48"><g fill="none" fill-rule="evenodd" transform="translate(2 2)"><path fill="#FFF" fill-rule="nonzero" d="M17.343.495h5.943a.99.99 0 0 1 .99.99v2.972h-7.923V1.486a.99.99 0 0 1 .99-.99"/><path fill="#231F20" fill-rule="nonzero" stroke="#231F20" stroke-linecap="round" stroke-linejoin="round" d="M21.543.495v3.962h2.724V1.238a.87.87 0 0 0-.99-.743z" opacity=".1"/><path stroke="#7C87A5" stroke-linecap="round" stroke-linejoin="round" d="M17.343.495h5.943a.99.99 0 0 1 .99.99v2.972h-7.923V1.486a.99.99 0 0 1 .99-.99"/><path fill="#FFF" fill-rule="nonzero" stroke="#7C87A5" stroke-linecap="round" stroke-linejoin="round" d="M12.381 4.457h69.333c1.094 0 1.981.887 1.981 1.981v17.829H.495v-7.924c0-6.564 5.322-11.886 11.886-11.886"/><path fill="#4C97FF" fill-rule="nonzero" stroke="#3D79CC" stroke-linecap="round" stroke-linejoin="round" d="M26.248 4.457a11.89 11.89 0 0 0-10.955 7.29.99.99 0 0 1-.931.634H8.617a.99.99 0 0 1-.901-1.416 11.89 11.89 0 0 1 10.608-6.508z" opacity=".75"/><path fill="#FFF" fill-rule="nonzero" stroke="#7C87A5" stroke-linecap="round" stroke-linejoin="round" d="M97.562 6.438v17.829h-7.924V6.438a1.98 1.98 0 0 0-1.98-1.98h7.923c1.094 0 1.98.886 1.98 1.98"/><path fill="#E6E7E8" fill-rule="nonzero" stroke="#7C87A5" stroke-linecap="round" stroke-linejoin="round" d="M82.705 44.076H1.485a.99.99 0 0 1-.99-.99V16.343h72.473c1.794 0 3.515.713 4.784 1.98a6.78 6.78 0 0 0 4.784 1.982h1.16v22.78a.99.99 0 0 1-.991.991"/><path fill="#FFF" fill-rule="nonzero" d="M88.658.495H94.6a.99.99 0 0 1 .99.99v2.972h-7.923V1.486a.99.99 0 0 1 .99-.99"/><path fill="#231F20" fill-rule="nonzero" stroke="#231F20" stroke-linecap="round" stroke-linejoin="round" d="M92.857.495v3.962h2.724V1.238a.87.87 0 0 0-.99-.743z" opacity=".1"/><path stroke="#7C87A5" stroke-linecap="round" stroke-linejoin="round" d="M88.658.495H94.6a.99.99 0 0 1 .99.99v2.972h-7.923V1.486a.99.99 0 0 1 .99-.99"/><path fill="#FFF" fill-rule="nonzero" d="M76.772.495h5.943a.99.99 0 0 1 .99.99v2.972h-7.924V1.486a.99.99 0 0 1 .99-.99"/><path fill="#231F20" fill-rule="nonzero" stroke="#231F20" stroke-linecap="round" stroke-linejoin="round" d="M80.971.495v3.962h2.724V1.238a.87.87 0 0 0-.99-.743z" opacity=".1"/><path stroke="#7C87A5" stroke-linecap="round" stroke-linejoin="round" d="M76.772.495h5.943a.99.99 0 0 1 .99.99v2.972h-7.924V1.486a.99.99 0 0 1 .99-.99"/><path fill="#FFF" fill-rule="nonzero" d="M64.886.495h5.943a.99.99 0 0 1 .99.99v2.972h-7.923V1.486a.99.99 0 0 1 .99-.99"/><path fill="#231F20" fill-rule="nonzero" stroke="#231F20" stroke-linecap="round" stroke-linejoin="round" d="M69.086.495v3.962h2.724V1.238a.87.87 0 0 0-.991-.743z" opacity=".1"/><path stroke="#7C87A5" stroke-linecap="round" stroke-linejoin="round" d="M64.886.495h5.943a.99.99 0 0 1 .99.99v2.972h-7.923V1.486a.99.99 0 0 1 .99-.99"/><path fill="#FFF" fill-rule="nonzero" d="M53 .495h5.943a.99.99 0 0 1 .99.99v2.972H52.01V1.486a.99.99 0 0 1 .99-.99"/><path fill="#231F20" fill-rule="nonzero" stroke="#231F20" stroke-linecap="round" stroke-linejoin="round" d="M57.2.495v3.962h2.724V1.238a.87.87 0 0 0-.99-.743z" opacity=".1"/><path stroke="#7C87A5" stroke-linecap="round" stroke-linejoin="round" d="M53 .495h5.943a.99.99 0 0 1 .99.99v2.972H52.01V1.486a.99.99 0 0 1 .99-.99"/><path fill="#FFF" fill-rule="nonzero" d="M41.115.495h5.943a.99.99 0 0 1 .99.99v2.972h-7.924V1.486a.99.99 0 0 1 .99-.99"/><path fill="#231F20" fill-rule="nonzero" stroke="#231F20" stroke-linecap="round" stroke-linejoin="round" d="M45.314.495v3.962h2.724V1.238a.87.87 0 0 0-.99-.743z" opacity=".1"/><path stroke="#7C87A5" stroke-linecap="round" stroke-linejoin="round" d="M41.115.495h5.943a.99.99 0 0 1 .99.99v2.972h-7.924V1.486a.99.99 0 0 1 .99-.99"/><path fill="#FFF" fill-rule="nonzero" d="M29.229.495h5.943a.99.99 0 0 1 .99.99v2.972h-7.924V1.486a.99.99 0 0 1 .991-.99"/><path fill="#231F20" fill-rule="nonzero" stroke="#231F20" stroke-linecap="round" stroke-linejoin="round" d="M33.429.495v3.962h2.723V1.238a.87.87 0 0 0-.99-.743z" opacity=".1"/><path stroke="#7C87A5" stroke-linecap="round" stroke-linejoin="round" d="M29.229.495h5.943a.99.99 0 0 1 .99.99v2.972h-7.924V1.486a.99.99 0 0 1 .991-.99"/><path fill="#FFF" fill-rule="nonzero" stroke="#7C87A5" stroke-linecap="round" stroke-linejoin="round" d="M32.19 4.457h69.334c1.094 0 1.98.887 1.98 1.981v17.829h-83.2v-7.924c0-6.564 5.322-11.886 11.886-11.886"/><path fill="#E6E7E8" fill-rule="nonzero" stroke="#7C87A5" stroke-linecap="round" stroke-linejoin="round" d="M102.514 44.076H21.295a.99.99 0 0 1-.99-.99V16.343h72.473c1.794 0 3.514.713 4.784 1.98a6.78 6.78 0 0 0 4.784 1.982h1.159v22.78a.99.99 0 0 1-.99.991"/><rect width="51.505" height="15.848" x="36.152" y="16.343" fill="#E6E7E8" fill-rule="nonzero" stroke="#7C87A5" stroke-linecap="round" stroke-linejoin="round" rx="1"/><path stroke="#7C87A5" stroke-linecap="round" stroke-linejoin="round" d="m91.619 16.343 3.962-3.962h7.924"/><path fill="#231F20" fill-rule="nonzero" stroke="#231F20" stroke-linecap="round" stroke-linejoin="round" d="M87.657 16.343V31.2a.99.99 0 0 1-.99.99H37.143a.99.99 0 0 1-.99-.99v-2.971h44.64c1.603 0 2.902-1.3 2.902-2.903v-8.983z" opacity=".1"/><path fill="#231F20" fill-rule="nonzero" stroke="#231F20" stroke-linecap="round" stroke-linejoin="round" d="M103.505 6.438v36.648a.99.99 0 0 1-.99.99h-81.22a.99.99 0 0 1-.99-.99v-2.972H96.64c1.603 0 2.902-1.299 2.902-2.902V4.457h1.98c1.095 0 1.982.887 1.982 1.981" opacity=".1"/><path fill="#231F20" fill-rule="nonzero" stroke="#231F20" stroke-linecap="round" stroke-linejoin="round" d="M32.19 4.457c-6.564 0-11.885 5.322-11.885 11.886v26.743a.99.99 0 0 1-.99.99H1.484a.99.99 0 0 1-.99-.99v-2.972h12.946c1.603 0 2.902-1.299 2.902-2.902v-20.87c0-6.563 5.321-11.885 11.886-11.885z" opacity=".1"/><path fill="#E6E7E8" fill-rule="nonzero" d="M76.772 12.381h5.943a.99.99 0 0 1 .99.99v2.972h-7.924V13.37a.99.99 0 0 1 .99-.99"/><path fill="#231F20" fill-rule="nonzero" stroke="#231F20" stroke-linecap="round" stroke-linejoin="round" d="M80.971 12.381v3.962h2.724v-3.22a.87.87 0 0 0-.99-.742z" opacity=".1"/><path stroke="#7C87A5" stroke-linecap="round" stroke-linejoin="round" d="M76.772 12.381h5.943a.99.99 0 0 1 .99.99v2.972h-7.924V13.37a.99.99 0 0 1 .99-.99"/><path fill="#E6E7E8" fill-rule="nonzero" d="M41.115 12.381h5.943a.99.99 0 0 1 .99.99v2.972h-7.924V13.37a.99.99 0 0 1 .99-.99"/><path fill="#231F20" fill-rule="nonzero" stroke="#231F20" stroke-linecap="round" stroke-linejoin="round" d="M45.314 12.381v3.962h2.724v-3.22a.87.87 0 0 0-.99-.742z" opacity=".1"/><path stroke="#7C87A5" stroke-linecap="round" stroke-linejoin="round" d="M41.115 12.381h5.943a.99.99 0 0 1 .99.99v2.972h-7.924V13.37a.99.99 0 0 1 .99-.99"/><path fill="#E6E7E8" fill-rule="nonzero" d="M64.886 12.381h5.943a.99.99 0 0 1 .99.99v2.972h-7.923V13.37a.99.99 0 0 1 .99-.99"/><path fill="#231F20" fill-rule="nonzero" stroke="#231F20" stroke-linecap="round" stroke-linejoin="round" d="M69.086 12.381v3.962h2.724v-3.22a.87.87 0 0 0-.991-.742z" opacity=".1"/><path stroke="#7C87A5" stroke-linecap="round" stroke-linejoin="round" d="M64.886 12.381h5.943a.99.99 0 0 1 .99.99v2.972h-7.923V13.37a.99.99 0 0 1 .99-.99"/><path fill="#E6E7E8" fill-rule="nonzero" d="M53 12.381h5.943a.99.99 0 0 1 .99.99v2.972H52.01V13.37a.99.99 0 0 1 .99-.99"/><path fill="#231F20" fill-rule="nonzero" stroke="#231F20" stroke-linecap="round" stroke-linejoin="round" d="M57.2 12.381v3.962h2.724v-3.22a.87.87 0 0 0-.99-.742z" opacity=".1"/><path stroke="#7C87A5" stroke-linecap="round" stroke-linejoin="round" d="M53 12.381h5.943a.99.99 0 0 1 .99.99v2.972H52.01V13.37a.99.99 0 0 1 .99-.99"/><circle cx="49.801" cy="23.643" r="4.596" stroke="#7C87A5" stroke-linecap="round" stroke-linejoin="round"/><circle cx="49.801" cy="23.643" r="3.249" fill="#7C87A5" fill-rule="nonzero"/><circle cx="49.801" cy="23.643" r="4.596" fill="#231F20" fill-rule="nonzero" stroke="#231F20" stroke-linecap="round" stroke-linejoin="round" opacity=".1"/><circle cx="61.905" cy="23.643" r="4.596" stroke="#7C87A5" stroke-linecap="round" stroke-linejoin="round"/><circle cx="61.905" cy="23.643" r="3.249" fill="#7C87A5" fill-rule="nonzero"/><circle cx="61.905" cy="23.643" r="4.596" fill="#231F20" fill-rule="nonzero" stroke="#231F20" stroke-linecap="round" stroke-linejoin="round" opacity=".1"/><circle cx="74.008" cy="23.643" r="4.596" stroke="#7C87A5" stroke-linecap="round" stroke-linejoin="round"/><circle cx="74.008" cy="23.643" r="3.249" fill="#7C87A5" fill-rule="nonzero"/><circle cx="74.008" cy="23.643" r="4.596" fill="#231F20" fill-rule="nonzero" stroke="#231F20" stroke-linecap="round" stroke-linejoin="round" opacity=".1"/></g></svg>