<svg width="100" height="100" viewBox="0 0 20 20" xmlns="http://www.w3.org/2000/svg"><path d="M12.479 12.667a1.02 1.02 0 0 1-.486-.123c-.456-.248-.607-.788-.338-1.206.514-.8.514-1.793 0-2.592-.27-.42-.118-.96.338-1.208.46-.245 1.045-.107 1.312.31a4.015 4.015 0 0 1 0 4.386.974.974 0 0 1-.826.433Zm2.902 1.166a.804.804 0 0 1-.414-.115.833.833 0 0 1-.288-1.133 5.055 5.055 0 0 0 0-5.088.834.834 0 0 1 .288-1.134.815.815 0 0 1 1.118.291 6.723 6.723 0 0 1 0 6.773.813.813 0 0 1-.704.406Zm-5.077-8.208v8.249c0 .977-1.194 1.489-1.94.83L6.758 13.28a3.145 3.145 0 0 0-2.083-.783h-.282c-.768 0-1.392-.603-1.392-1.35v-2.78c0-.746.624-1.35 1.392-1.35h.266c.772 0 1.514-.28 2.083-.783l1.624-1.438c.745-.658 1.94-.147 1.94.829Z" fill="#575E75" fill-rule="evenodd"/></svg>