<svg width="16" height="16" xmlns="http://www.w3.org/2000/svg"><path d="M3.067 11.567C1.999 10.601 1.49 9.635 1.49 9.635c-.642-.903-.668-2.388 0-3.27C1.49 6.365 3.526 2.5 8 2.5c1.317 0 2.422.335 3.327.807l1.647-1.647.707.707L2.367 13.681l-.707-.707 1.407-1.407Zm6.995-6.995a4 4 0 0 0-5.49 5.49l1.506-1.506a2.001 2.001 0 0 1 2.478-2.478l1.506-1.506ZM4.688 12.7l1.264-1.264a4 4 0 0 0 5.484-5.484l1.509-1.509c1.06.963 1.564 1.922 1.564 1.922.642.903.668 2.388 0 3.27 0 0-2.035 3.865-6.509 3.865a7.1 7.1 0 0 1-3.312-.8ZM7.46 9.927 9.927 7.46A2.002 2.002 0 0 1 7.46 9.927Z" fill="#4C97FF" fill-rule="evenodd"/></svg>