<svg xmlns="http://www.w3.org/2000/svg" width="20" height="20"><g fill="none" fill-rule="evenodd"><path stroke="#575E75" stroke-dasharray="1,2" stroke-linecap="round" stroke-linejoin="round" stroke-opacity=".5" d="M3.503 5v12.5H16"/><path fill="#4C97FF" d="M5 3.007C5 2.45 5.453 2 5.997 2H13v2.35c0 .911.734 1.65 1.65 1.65H17v9.005c0 .55-.456.995-1.002.995H6.002C5.45 16 5 15.55 5 14.993z"/><path fill="#4C97FF" d="m14 2 3 3h-2.001A.996.996 0 0 1 14 4.001z"/><path fill="#FFF" stroke="#FFF" stroke-width=".25" d="M12.812 11.188h-1.124v1.124a.688.688 0 1 1-1.376 0v-1.124H9.188a.688.688 0 1 1 0-1.376h1.124V8.688a.687.687 0 1 1 1.376 0v1.124h1.124a.688.688 0 1 1 0 1.376Z"/></g></svg>