<svg width="20" height="20" xmlns="http://www.w3.org/2000/svg"><path d="M4 4.75h12a.75.75 0 0 1 .746.825l-1.11 11.1a1.75 1.75 0 0 1-1.741 1.575h-7.79a1.75 1.75 0 0 1-1.741-1.576l-1.11-11.1A.75.75 0 0 1 4 4.75Zm6.75 8.75v-5a.75.75 0 0 0-1.5 0v5a.75.75 0 1 0 1.5 0Zm2.5 0v-5a.75.75 0 1 0-1.5 0v5a.75.75 0 1 0 1.5 0Zm-5 0v-5a.75.75 0 0 0-1.5 0v5a.75.75 0 1 0 1.5 0Zm-4.75-8h13-13Zm0-1h13a1 1 0 0 1 0 2h-13a1 1 0 1 1 0-2Zm7.75.25V3.5a.25.25 0 0 0-.25-.25H9a.25.25 0 0 0-.25.25v1.25h2.5ZM9 1.75h2c.966 0 1.75.784 1.75 1.75v2.75h-5.5V3.5c0-.966.784-1.75 1.75-1.75Z" fill="#4C97FF" fill-rule="nonzero"/></svg>