<svg xmlns="http://www.w3.org/2000/svg" xmlns:xlink="http://www.w3.org/1999/xlink" width="72" height="110" viewBox="0 0 72 90"><style>@-webkit-keyframes wiggle{0%{transform:translate(0,-10px)}to{transform:translate(0,0)}}@keyframes wiggle{0%{transform:translate(0,-10px)}to{transform:translate(0,0)}}</style><defs><filter id="filter-2" width="130.4%" height="124.1%" x="-15.2%" y="-12.1%" filterUnits="objectBoundingBox"><feMorphology in="SourceAlpha" operator="dilate" radius="1.5" result="shadowSpreadOuter1"/><feOffset in="shadowSpreadOuter1" result="shadowOffsetOuter1"/><feComposite in="shadowOffsetOuter1" in2="SourceAlpha" operator="out" result="shadowOffsetOuter1"/><feColorMatrix in="shadowOffsetOuter1" values="0 0 0 0 0.298039216 0 0 0 0 0.592156863 0 0 0 0 1 0 0 0 0.25 0"/></filter><path id="path-1" d="M36.486 32c-.65 0-1.257-.24-1.708-.674L25.7 22.539c-.702-.722-.89-1.735-.5-2.606.387-.87 1.243-1.407 2.235-1.407h3.443l1.755-12.23C32.884 4.425 34.567 3 36.547 3q.257 0 .515.03c1.786.272 3.165 1.621 3.382 3.28l1.801 12.216h3.293c1.003 0 1.896.57 2.275 1.452.379.887.174 1.87-.54 2.56l-9.078 8.788a2.45 2.45 0 0 1-1.709.674"/></defs><g id="wedo-button-illustration" fill="none" fill-rule="evenodd" stroke="none" stroke-width="1"><g id="wedo-top" fill-rule="nonzero" stroke-linecap="round" stroke-linejoin="round" transform="translate(1 15)"><path id="Shape" fill="#FFF" stroke="#7C87A5" d="M16.74.507h36.52a4.056 4.056 0 0 1 4.059 4.055v66.904c0 1.12-.909 2.027-2.03 2.027H14.71a2.03 2.03 0 0 1-2.029-2.027V4.562A4.056 4.056 0 0 1 16.74.507"/><path fill="#E6E7E8" stroke="#7C87A5" d="M1.522 16.726h11.16v40.548H1.521c-.56 0-1.015-.454-1.015-1.014V17.74c0-.56.454-1.014 1.015-1.014M57.319 16.726h11.16c.56 0 1.014.454 1.014 1.014v38.52c0 .56-.454 1.014-1.015 1.014h-11.16z"/><ellipse id="Oval" cx="18.768" cy="14.699" fill="#FFF" stroke="#7C87A5" opacity=".5" rx="3.043" ry="3.041"/><ellipse cx="18.768" cy="23.822" fill="#FFF" stroke="#7C87A5" opacity=".5" rx="3.043" ry="3.041"/><ellipse cx="18.768" cy="32.945" fill="#FFF" stroke="#7C87A5" opacity=".5" rx="3.043" ry="3.041"/><ellipse cx="18.768" cy="42.068" fill="#FFF" stroke="#7C87A5" opacity=".5" rx="3.043" ry="3.041"/><ellipse cx="18.768" cy="51.192" fill="#FFF" stroke="#7C87A5" opacity=".5" rx="3.043" ry="3.041"/><ellipse cx="6.594" cy="23.822" fill="#E6E7E8" stroke="#7C87A5" opacity=".5" rx="3.043" ry="3.041"/><ellipse cx="6.594" cy="32.945" fill="#E6E7E8" stroke="#7C87A5" opacity=".5" rx="3.043" ry="3.041"/><ellipse cx="6.594" cy="42.068" fill="#E6E7E8" stroke="#7C87A5" opacity=".5" rx="3.043" ry="3.041"/><ellipse cx="6.594" cy="51.192" fill="#E6E7E8" stroke="#7C87A5" opacity=".5" rx="3.043" ry="3.041"/><ellipse cx="63.406" cy="23.822" fill="#E6E7E8" stroke="#7C87A5" opacity=".5" rx="3.043" ry="3.041"/><ellipse cx="63.406" cy="32.945" fill="#E6E7E8" stroke="#7C87A5" opacity=".5" rx="3.043" ry="3.041"/><ellipse cx="63.406" cy="42.068" fill="#E6E7E8" stroke="#7C87A5" opacity=".5" rx="3.043" ry="3.041"/><ellipse cx="63.406" cy="51.192" fill="#E6E7E8" stroke="#7C87A5" opacity=".5" rx="3.043" ry="3.041"/><ellipse cx="18.768" cy="60.315" fill="#FFF" stroke="#7C87A5" opacity=".5" rx="3.043" ry="3.041"/><ellipse cx="29.593" cy="32.945" fill="#FFF" stroke="#7C87A5" opacity=".5" rx="3.043" ry="3.041"/><ellipse cx="29.593" cy="42.068" fill="#FFF" stroke="#7C87A5" opacity=".5" rx="3.043" ry="3.041"/><ellipse cx="29.593" cy="51.192" fill="#FFF" stroke="#7C87A5" opacity=".5" rx="3.043" ry="3.041"/><ellipse cx="29.593" cy="60.315" fill="#FFF" stroke="#7C87A5" opacity=".5" rx="3.043" ry="3.041"/><ellipse cx="40.407" cy="32.945" fill="#FFF" stroke="#7C87A5" opacity=".5" rx="3.043" ry="3.041"/><ellipse cx="40.407" cy="42.068" fill="#FFF" stroke="#7C87A5" opacity=".5" rx="3.043" ry="3.041"/><ellipse cx="40.407" cy="51.192" fill="#FFF" stroke="#7C87A5" opacity=".5" rx="3.043" ry="3.041"/><ellipse cx="40.407" cy="60.315" fill="#FFF" stroke="#7C87A5" opacity=".5" rx="3.043" ry="3.041"/><ellipse cx="51.232" cy="14.699" fill="#FFF" stroke="#7C87A5" opacity=".5" rx="3.043" ry="3.041"/><ellipse cx="51.232" cy="23.822" fill="#FFF" stroke="#7C87A5" opacity=".5" rx="3.043" ry="3.041"/><ellipse cx="51.232" cy="32.945" fill="#FFF" stroke="#7C87A5" opacity=".5" rx="3.043" ry="3.041"/><ellipse cx="51.232" cy="42.068" fill="#FFF" stroke="#7C87A5" opacity=".5" rx="3.043" ry="3.041"/><ellipse cx="51.232" cy="51.192" fill="#FFF" stroke="#7C87A5" opacity=".5" rx="3.043" ry="3.041"/><ellipse cx="51.232" cy="60.315" fill="#FFF" stroke="#7C87A5" opacity=".5" rx="3.043" ry="3.041"/><path fill="#FFF" stroke="#7C87A5" d="M18.768 67.411h12.174c1.12 0 2.029.908 2.029 2.027v4.055H16.739v-4.055c0-1.12.909-2.027 2.03-2.027M39.058 67.411h12.174c1.12 0 2.029.908 2.029 2.027v4.055H37.029v-4.055c0-1.12.908-2.027 2.029-2.027" opacity=".5"/><path fill="#E6E7E8" stroke="#7C87A5" d="M26.884.507h16.232v23.315a3.04 3.04 0 0 1-3.044 3.041H29.928a3.04 3.04 0 0 1-3.044-3.041z"/><rect id="Rectangle-path" width="12.174" height="12.164" x="28.913" y="12.671" fill="#46B946" stroke="#389438" rx="2"/><path fill="#7C87A5" stroke="#7C87A5" d="M57.319 4.562v4.054a4.056 4.056 0 0 0-4.058-4.054H16.739a4.056 4.056 0 0 0-4.058 4.054V4.562A4.056 4.056 0 0 1 16.74.507h36.522a4.056 4.056 0 0 1 4.058 4.055" opacity=".1"/></g><g style="-webkit-animation:wiggle .5s infinite ease-in-out alternate;animation:wiggle .5s infinite ease-in-out alternate"><use xlink:href="#path-1" fill="#000" filter="url(#filter-2)"/><use xlink:href="#path-1" fill="#4C97FF" stroke="#4280D7"/></g></g></svg>