<svg xmlns="http://www.w3.org/2000/svg" xmlns:xlink="http://www.w3.org/1999/xlink" width="20" height="20"><defs><path id="a" d="M2.5 8a.5.5 0 0 1 0-1h1a.5.5 0 0 1 0 1zm3 0a.5.5 0 0 1 0-1h1a.5.5 0 0 1 0 1zm3 0a.5.5 0 0 1 0-1h1a.5.5 0 0 1 0 1zm3 0a.5.5 0 1 1 0-1h1a.5.5 0 1 1 0 1zm3 0a.5.5 0 1 1 0-1h1a.5.5 0 1 1 0 1zm2.5-.5a.5.5 0 1 1 1 0v1a.5.5 0 1 1-1 0zm0 3a.5.5 0 1 1 1 0v1a.5.5 0 1 1-1 0zm0 3a.5.5 0 1 1 1 0v1a.5.5 0 1 1-1 0zm-.187 2.726a.5.5 0 0 1 .875.485 2.5 2.5 0 0 1-.859.907.5.5 0 0 1-.532-.847 1.5 1.5 0 0 0 .516-.545M14.561 17a.5.5 0 0 1 0 1h-1a.5.5 0 1 1 0-1zm-3 0a.5.5 0 0 1 0 1h-1a.5.5 0 1 1 0-1zm-3 0a.5.5 0 1 1 0 1h-1a.5.5 0 1 1 0-1zm-3 0a.5.5 0 1 1 0 1h-1a.5.5 0 1 1 0-1zm-2.333-.705a.5.5 0 1 1-.848.531 2.5 2.5 0 0 1-.376-1.192.5.5 0 0 1 .998-.053c.014.256.092.5.226.714M3 13.623a.5.5 0 1 1-1 0v-1a.5.5 0 1 1 1 0zm0-3a.5.5 0 1 1-1 0v-1a.5.5 0 1 1 1 0zm0-3a.5.5 0 0 1-1 0V7.5a.5.5 0 0 1 1 0zM4.5 2h11A2.5 2.5 0 0 1 18 4.5v1a.5.5 0 0 1-.5.5h-15a.5.5 0 0 1-.5-.5v-1A2.5 2.5 0 0 1 4.5 2m5.845 7.443 1.818 1.818c.14.15.178.359.1.539a.48.48 0 0 1-.447.291h-.69l-.351 2.53a.79.79 0 0 1-.887.676.8.8 0 0 1-.678-.679l-.36-2.527h-.66a.49.49 0 0 1-.456-.3.48.48 0 0 1 .109-.53L9.66 9.443c.09-.09.211-.14.342-.14.13 0 .252.05.342.14"/></defs><g fill="none" fill-rule="evenodd"><mask id="b" fill="#fff"><use xlink:href="#a"/></mask><g fill="#FFF" mask="url(#b)"><path d="M0 0h20v20H0z"/></g></g></svg>