<svg xmlns="http://www.w3.org/2000/svg" width="20" height="20"><path fill="#575E75" fill-rule="evenodd" stroke="#575E75" stroke-linecap="round" stroke-linejoin="round" stroke-width=".5" d="M12.579 11.21c-.96.96-1.666 1.451-2.221 1.64a3.4 3.4 0 0 0-.833-1.362 3.7 3.7 0 0 0-1.376-.846c.202-.555.694-1.262 1.64-2.208C12.062 6.15 16.1 3.36 16.87 4.13s-2.019 4.808-4.29 7.08M8.39 15.412c-.375.363-.86.55-1.344.574v.011h-.122c-3.246.117-4.664-3.558-3.55-3.172 1.467.504 2.062-.222 2.085-.246a2.144 2.144 0 0 1 2.931 0c.812.785.812 2.06 0 2.833"/></svg>