<svg xmlns="http://www.w3.org/2000/svg" width="40" height="40"><g fill="none" fill-rule="evenodd" transform="translate(8 .5)"><path fill="#E6E7E8" stroke="#000" stroke-opacity=".1" d="M12 39a3 3 0 0 1-3-3c0-.6.4-1 1-1 .5 0 1 .4 1 1a1 1 0 1 0 2 0v-.2a1 1 0 0 0-.3-.7l-.8-.8a3 3 0 0 1-1-2.1V30c0-.6.5-1 1-1 .6 0 1 .4 1 1v2.2l.4.7.8.8q.9.9.9 2.1v.2a3 3 0 0 1-3 3z"/><path fill="#8592AF" fill-rule="nonzero" stroke="#7C87A5" stroke-linecap="round" stroke-linejoin="round" d="M23.7.3A1 1 0 0 0 23 0H1a1 1 0 0 0-.7.3A1 1 0 0 0 0 1v26c0 .3.1.5.3.7s.4.3.7.3h22c.3 0 .5-.1.7-.3s.3-.4.3-.7V1a1 1 0 0 0-.3-.7M12 4c2 0 3.3 2 2.6 3.8L13.3 11a1.4 1.4 0 0 1-2.7 0L9.5 7.7l-.2-1C9.2 5.4 10.4 4 12 4"/><path fill="#5CB1D6" fill-rule="nonzero" stroke="#7C87A5" stroke-linecap="round" stroke-linejoin="round" d="M2 2v24h20V2zm10 2c2 0 3.3 2 2.6 3.8L13.3 11a1.4 1.4 0 0 1-2.7 0L9.5 7.7l-.2-1C9.2 5.4 10.4 4 12 4"/><path fill="#8592AF" stroke="#7C87A5" stroke-linecap="round" stroke-linejoin="round" d="M22 26H2v-6l20-4z"/><path stroke="#7C87A5" stroke-linecap="round" stroke-linejoin="round" d="M.3 27.7 2 26M.3.3 2 2m20 0L23.7.3m0 27.4L22 26"/><circle cx="12" cy="14.8" r="1.2" fill="#FFBF00"/><path fill="#E6E7E8" stroke="#7C87A5" stroke-linecap="round" stroke-linejoin="round" d="M10 28h4v4h-4z"/><path fill="#FFBF00" d="M15.5 22h-7a.5.5 0 0 1-.5-.5c0-.3.2-.5.5-.5h7c.3 0 .5.2.5.5s-.2.5-.5.5m2 2h-11a.5.5 0 0 1-.5-.5c0-.3.2-.5.5-.5h11c.3 0 .5.2.5.5s-.2.5-.5.5"/></g></svg>