<svg xmlns="http://www.w3.org/2000/svg" width="100" height="100"><path fill="#575E75" fill-rule="nonzero" d="M59.206 60.333c-.61 0-1.236-.146-1.805-.455-1.69-.921-2.254-2.926-1.252-4.481 1.907-2.973 1.907-6.659 0-9.627-1.002-1.56-.439-3.565 1.252-4.486 1.708-.91 3.883-.398 4.874 1.152 3.228 5.025 3.228 11.265 0 16.29-.66 1.037-1.85 1.607-3.07 1.607m10.78 4.334c-.52 0-1.058-.138-1.539-.428a3.093 3.093 0 0 1-1.067-4.207 18.77 18.77 0 0 0 0-18.899c-.854-1.46-.374-3.347 1.067-4.212a3.026 3.026 0 0 1 4.154 1.081 24.97 24.97 0 0 1 0 25.156 3.02 3.02 0 0 1-2.616 1.509M51.13 34.179v30.638c0 3.63-4.437 5.53-7.204 3.083l-5.973-5.29a11.68 11.68 0 0 0-7.737-2.907h-1.044c-2.855 0-5.172-2.241-5.172-5.014V44.361c0-2.767 2.317-5.013 5.172-5.013h.987c2.866 0 5.622-1.038 7.737-2.908l6.03-5.34c2.767-2.446 7.204-.546 7.204 3.079"/></svg>