<svg width="20" height="20" xmlns="http://www.w3.org/2000/svg"><path d="M4.5 4.182V3h1.182v1.182H4.5Zm7.091 0V3h1.182v1.182h-1.182ZM4.5 13.637v-1.183h1.182v1.183H4.5Zm4.727-7.091h1.183v1.182h1.182v1.181h1.182v1.182h1.182v1.182h1.18v1.18h1.182v1.184H17.5v1.182h-4.726V16h-1.182v1.181H10.41v1.182H9.227V6.546Zm4.728 2.363V7.727h1.182V8.91h-1.182ZM6.864 4.182V3h1.182v1.182H6.864ZM4.5 11.273v-1.182h1.182v1.182H4.5Zm9.455-7.091V3h1.182v1.182h-1.182Zm-4.728 0V3h1.183v1.182H9.227ZM4.5 8.909V7.727h1.182V8.91H4.5Zm0-2.363V5.364h1.182v1.182H4.5Zm9.455 0V5.364h1.182v1.182h-1.182Zm-7.091 7.09v-1.182h1.182v1.183H6.864Z" fill="#575E75" fill-rule="evenodd"/></svg>