<svg xmlns="http://www.w3.org/2000/svg" xml:space="preserve" width="200" height="150"><style>.st4{opacity:.25}.st5{fill:#231f20}.st7{fill:none;stroke:#231f20;stroke-width:2;stroke-linecap:round;stroke-linejoin:round;stroke-miterlimit:10}.st8{fill:#7f9bd4}</style><g id="Unsupported_Mask"><path d="M186 140H14c-2.21 0-4-1.79-4-4V14c0-2.21 1.79-4 4-4h172c2.21 0 4 1.79 4 4v122c0 2.21-1.79 4-4 4z" style="opacity:.1;fill:#231f20;stroke:#231f20;stroke-width:12;stroke-miterlimit:10"/><path d="M186 140H14c-2.21 0-4-1.79-4-4V14c0-2.21 1.79-4 4-4h172c2.21 0 4 1.79 4 4v122c0 2.21-1.79 4-4 4z" style="fill:#fff;stroke:#7f8ca5;stroke-width:2;stroke-miterlimit:10"/><path d="M190 30H10V14c0-2.21 1.79-4 4-4h172c2.21 0 4 1.79 4 4z" style="fill:#bfc6d4;stroke:#7f8ca5;stroke-width:2;stroke-miterlimit:10"/><path d="M179.5 24h-128c-2.21 0-4-1.79-4-4s1.79-4 4-4h128c2.21 0 4 1.79 4 4s-1.79 4-4 4" style="fill:#fff"/><g class="st4"><path d="M24.09 20.22c-.08.38-.38.65-.72.72l-2.87.66v1.77c0 .44-.55.66-.87.36l-3.36-3.38a.468.468 0 0 1 0-.7l3.36-3.38a.51.51 0 0 1 .87.36v1.8l2.87.65c.51.12.83.63.72 1.14" class="st5"/></g><g class="st4"><path d="M30.62 19.78c.08-.38.38-.65.72-.72l2.87-.66v-1.77c0-.44.55-.66.87-.36l3.36 3.38c.21.19.21.51 0 .7l-3.36 3.38a.51.51 0 0 1-.87-.36v-1.8l-2.87-.65a.957.957 0 0 1-.72-1.14" class="st5"/></g><g style="opacity:.15"><path d="M69.89 20H51.43M113.74 20H98.4M93.9 20H74.02" class="st7"/></g><circle cx="89.61" cy="73.46" r="3.85" class="st8"/><circle cx="110.39" cy="73.46" r="3.85" class="st8"/><path d="M83.06 94.84c1.02-3.39 3.54-6.3 6.6-8.19 3.07-1.94 6.72-2.9 10.34-2.91 3.61.01 7.27.97 10.33 2.91 3.06 1.89 5.58 4.8 6.6 8.19.16.53-.14 1.1-.68 1.26-.4.12-.83-.02-1.08-.33l-.02-.03c-3.85-4.75-9.5-7-15.17-7.01-5.67.01-11.32 2.25-15.16 7.01l-.02.02c-.35.43-.99.5-1.42.15-.32-.25-.43-.68-.32-1.07" class="st8"/></g></svg>