<svg xmlns="http://www.w3.org/2000/svg" xmlns:xlink="http://www.w3.org/1999/xlink" width="52" height="52"><defs><filter id="a" width="127.3%" height="127.3%" x="-13.6%" y="-13.6%" filterUnits="objectBoundingBox"><feMorphology in="SourceAlpha" operator="dilate" radius="2" result="shadowSpreadOuter1"/><feOffset in="shadowSpreadOuter1" result="shadowOffsetOuter1"/><feColorMatrix in="shadowOffsetOuter1" values="0 0 0 0 0.298039216 0 0 0 0 0.592156863 0 0 0 0 1 0 0 0 0.25 0"/></filter><circle id="b" cx="22" cy="22" r="22"/></defs><g fill="none" fill-rule="evenodd"><g transform="translate(4 4)"><use xlink:href="#b" fill="#000" filter="url(#a)"/><use xlink:href="#b" fill="#4C97FF"/></g><path fill="#FFF" d="m26.01 29.417 3.504 2.773-3.504 2.804zm0-11.73 3.489 2.787-3.489 2.758zm-1.645-4.51a1.463 1.463 0 0 0-1.28 1.463v8.714l-2.011-1.585a1.46 1.46 0 0 0-1.097-.32 1.462 1.462 0 0 0-.731 2.62l2.864 2.256-2.864 2.27a1.469 1.469 0 1 0 1.828 2.3l2.01-1.6v8.745a1.462 1.462 0 0 0 2.378 1.143l7.312-5.85a1.463 1.463 0 0 0 0-2.301l-5.942-4.692 5.942-4.708a1.463 1.463 0 0 0 0-2.285l-7.312-5.85a1.47 1.47 0 0 0-1.097-.32"/></g></svg>