<svg width="52" height="52" xmlns="http://www.w3.org/2000/svg" xmlns:xlink="http://www.w3.org/1999/xlink"><defs><filter x="-13.6%" y="-13.6%" width="127.3%" height="127.3%" filterUnits="objectBoundingBox" id="a"><feMorphology radius="2" operator="dilate" in="SourceAlpha" result="shadowSpreadOuter1"/><feOffset in="shadowSpreadOuter1" result="shadowOffsetOuter1"/><feColorMatrix values="0 0 0 0 0.298039216 0 0 0 0 0.592156863 0 0 0 0 1 0 0 0 0.25 0" in="shadowOffsetOuter1"/></filter><circle id="b" cx="22" cy="22" r="22"/></defs><g fill="none" fill-rule="evenodd"><g transform="translate(4 4)"><use fill="#000" filter="url(#a)" xlink:href="#b"/><use fill="#4C97FF" xlink:href="#b"/></g><path d="m26.01 29.417 3.504 2.773-3.504 2.804v-5.577Zm0-11.73 3.489 2.787-3.489 2.758v-5.545Zm-1.645-4.51a1.463 1.463 0 0 0-1.28 1.463v8.714l-2.011-1.585a1.463 1.463 0 0 0-1.097-.32 1.462 1.462 0 0 0-.731 2.62l2.864 2.256-2.864 2.27a1.469 1.469 0 1 0 1.828 2.3l2.01-1.6v8.745a1.462 1.462 0 0 0 2.378 1.143l7.312-5.85a1.463 1.463 0 0 0 0-2.301l-5.942-4.692 5.942-4.708a1.463 1.463 0 0 0 0-2.285l-7.312-5.85a1.465 1.465 0 0 0-1.097-.32Z" fill="#FFF"/></g></svg>