<svg width="20" height="20" xmlns="http://www.w3.org/2000/svg"><path d="M9.153 12.482c-.12.137-.273.222-.546.29-.699.154-1.364.784-1.569 1.483-.068.222-.29.46-.529.58l-1.774.835a.62.62 0 0 1-.187.051l-.273-.255c0-.017 0-.085.05-.205l.837-1.79a1.01 1.01 0 0 1 .58-.511c.7-.222 1.33-.87 1.518-1.722.034-.136.12-.273.239-.41l3.94-3.92 1.655 1.654-3.94 3.92Zm7.455-7.193A1.37 1.37 0 0 0 17 4.334c0-.341-.136-.682-.392-.938a1.329 1.329 0 0 0-1.894 0L13.23 4.88l-.17-.17-.546-.546a.886.886 0 0 0-1.245 0l-.666.648c-.324.341-.34.836-.05 1.177L6.594 9.925c-.29.307-.495.665-.614 1.177-.052.255-.342.545-.615.63-.562.17-1.108.648-1.364 1.21l-.836 1.774c-.273.596-.205 1.21.17 1.602l.342.341c.221.222.529.341.87.341.221 0 .477-.068.716-.17l1.791-.836c.563-.273 1.04-.801 1.211-1.364.069-.272.376-.562.785-.647.358-.086.716-.29 1.006-.597l3.958-3.938a.847.847 0 0 0 1.16-.068l.665-.648a.884.884 0 0 0 0-1.244l-.58-.58-.136-.136 1.484-1.483Z" fill="#575E75" fill-rule="evenodd"/></svg>