<svg width="20" height="20" xmlns="http://www.w3.org/2000/svg"><path d="M15 11.097V4a1 1 0 0 0-1-1H4a1 1 0 0 0-1 1v8h9.662l-1.138 1.043c-.336.315-.524.74-.524 1.187 0 .447.188.87.513 1.177l.647.593H4a2 2 0 0 1-2-2V4a2 2 0 0 1 2-2h10a2 2 0 0 1 2 2v8.033a1.66 1.66 0 0 0-1-.936Zm-4.685-1.659a.41.41 0 0 1-.223-.067.509.509 0 0 1-.154-.66 1.512 1.512 0 0 0 0-1.418.51.51 0 0 1 .154-.661.42.42 0 0 1 .602.17c.4.74.4 1.66 0 2.4a.432.432 0 0 1-.379.236Zm1.313.774a.408.408 0 0 1-.223-.067.509.509 0 0 1-.154-.66 3.158 3.158 0 0 0 0-2.966.51.51 0 0 1 .154-.661c.21-.134.479-.059.602.17a4.2 4.2 0 0 1 0 3.947.432.432 0 0 1-.379.237ZM9.19 5.642v4.714c0 .559-.603.851-.98.475l-.812-.814a1.487 1.487 0 0 0-1.052-.447h-.142c-.388 0-.703-.345-.703-.772V7.21c0-.425.315-.77.703-.77h.135c.39 0 .764-.16 1.052-.448l.82-.822c.376-.376.98-.084.98.474Zm4.749 6.545a.735.735 0 0 1 .754-.138.633.633 0 0 1 .425.585v.642c.15.036.324.084.507.153.32.117.673.297 1 .54.081.063.16.126.238.195.069.06.18.162.229.222.13.135.265.309.379.47.222.343.376.712.457 1.063a3.1 3.1 0 0 1 .06.96c-.03.279-.089.492-.145.66-.026.084-.049.12-.062.159l-.023.054a.426.426 0 0 1-.437.246c-.232-.021-.402-.213-.38-.426l.007-.057c.003-.033.016-.099.013-.15a2.5 2.5 0 0 0-.039-.465 2.11 2.11 0 0 0-.229-.615 2.149 2.149 0 0 0-.464-.555 3.233 3.233 0 0 0-.307-.216c-.072-.045-.088-.042-.147-.075a2.063 2.063 0 0 0-.657-.186v.573a.633.633 0 0 1-.425.585.735.735 0 0 1-.754-.138l-1.739-1.593a.62.62 0 0 1-.199-.45c0-.168.072-.33.2-.45l1.738-1.593Z" fill="#4D97FF" fill-rule="nonzero"/></svg>