<svg xmlns="http://www.w3.org/2000/svg" width="20" height="20"><path fill="#FFF" fill-rule="evenodd" d="M16.2 6.587c-.658 1.355-1.634 2.918-2.554 4.077-.771.976-1.39 1.548-1.98 1.827a.4.4 0 0 1-.22.057.45.45 0 0 1-.178-.043.49.49 0 0 1-.289-.264 2.45 2.45 0 0 0-.713-.95 2.9 2.9 0 0 0-1.085-.517.48.48 0 0 1-.318-.237.55.55 0 0 1-.068-.39c.164-.642.59-1.395 1.332-2.33 1.458-1.872 4.37-4.648 5.784-4.803.385-.056.605.07.742.181.359.307.716.979-.453 3.392m-5.935 7.412a2.6 2.6 0 0 1-.523 1.926c-.37.487-.892.824-1.482.963a.3.3 0 0 1-.097.028l-.138.014c-.26.042-.507.07-.756.07-1.977 0-3.366-1.341-3.914-2.22-.208-.348-.522-.99-.248-1.395.07-.098.26-.307.672-.223 1.306.279 1.773-.307 1.856-.42a2.59 2.59 0 0 1 3.64-.502c.55.433.907 1.061.99 1.759"/></svg>