<svg xmlns="http://www.w3.org/2000/svg" width="20" height="20"><path fill="#FFF" fill-rule="evenodd" d="M17.75 3.25h.75a.75.75 0 1 1 0 1.5h-.75v.75a.75.75 0 1 1-1.5 0v-.75h-.75a.75.75 0 1 1 0-1.5h.75V2.5a.75.75 0 1 1 1.5 0zm-5.12 10.387a.886.886 0 0 1-.755-1.333 2.57 2.57 0 0 0 0-2.6.89.89 0 0 1 .31-1.213.88.88 0 0 1 1.204.311 4.35 4.35 0 0 1 0 4.401.88.88 0 0 1-.758.434m2.627 1.418a.886.886 0 0 1-.755-1.333 5.37 5.37 0 0 0 0-5.437.89.89 0 0 1 .309-1.212.88.88 0 0 1 1.204.31 7.14 7.14 0 0 1 0 7.238.88.88 0 0 1-.758.434M10.379 6.68v8.641c0 1.024-1.207 1.56-1.96.87l-1.624-1.492a3.1 3.1 0 0 0-2.104-.82h-.284A1.41 1.41 0 0 1 3 12.464V9.55c0-.781.63-1.414 1.407-1.414h.268c.78 0 1.529-.293 2.104-.82L8.42 5.81c.753-.69 1.96-.154 1.96.869"/></svg>