<svg xmlns="http://www.w3.org/2000/svg" width="20" height="20"><path fill="#575E75" fill-rule="evenodd" d="M15 14.51a.5.5 0 0 1-.5.5H9.197a.5.5 0 0 0-.353.146l-.698.698a.5.5 0 0 1-.353.146H6.207a.5.5 0 0 1-.353-.146l-.698-.698a.5.5 0 0 0-.353-.146H3.5a.5.5 0 0 1-.5-.5V11.5a.5.5 0 0 1 .5-.5h1.293a.5.5 0 0 1 .353.146l.708.708a.5.5 0 0 0 .353.146h1.586a.5.5 0 0 0 .353-.146l.708-.708A.5.5 0 0 1 9.207 11H14.5a.5.5 0 0 1 .5.5zm2-5a.5.5 0 0 1-.5.5H9.197a.5.5 0 0 0-.353.146l-.698.698a.5.5 0 0 1-.353.146H6.207a.5.5 0 0 1-.353-.146l-.698-.698a.5.5 0 0 0-.353-.146H3.5a.5.5 0 0 1-.5-.5V6.5a.5.5 0 0 1 .5-.5h1.293a.5.5 0 0 1 .353.146l.708.708A.5.5 0 0 0 6.207 7h1.586a.5.5 0 0 0 .353-.146l.708-.708A.5.5 0 0 1 9.207 6H16.5a.5.5 0 0 1 .5.5z"/></svg>