<svg xmlns="http://www.w3.org/2000/svg" width="20" height="20"><path fill="#4D97FF" fill-rule="nonzero" d="M2.398 8.697c.422-.124.729-.466 1.048-1.065.057-.106.26-.511.309-.601.282-.53.523-.781.912-.781.42 0 .644.075 1.011.282.3.168.446.218.766.218.168 0 .26-.136.416-.614.033-.105.052-.162.07-.215.262-.787.589-1.171 1.292-1.171.67 0 .997.295 1.542 1.111.455.684.683.889 1.125.889.477 0 .66-.107.847-.389l.068-.103c.23-.354.44-.508.863-.508.518 0 .74.298 1.117 1.148.289.65.438.852.66.852.325 0 .496-.055.805-.22l.042-.023c.345-.185.566-.257.931-.257.415 0 .627.216.894.715l.089.166c.146.272.271.44.426.531A.499.499 0 0 1 18.5 9a.5.5 0 0 1-.869.338c-.155.091-.28.26-.426.53l-.09.167c-.266.5-.478.715-.893.715-.365 0-.586-.072-.931-.257l-.042-.023c-.309-.165-.48-.22-.805-.22-.222 0-.371.202-.66.852-.378.85-.599 1.148-1.117 1.148-.424 0-.634-.154-.863-.508l-.068-.103c-.187-.282-.37-.389-.847-.389-.442 0-.67.205-1.125.889-.545.816-.872 1.111-1.542 1.111-.703 0-1.03-.384-1.293-1.17l-.07-.216c-.154-.478-.247-.614-.415-.614-.32 0-.467.05-.766.218-.367.207-.59.282-1.011.282-.41 0-.593-.252-.785-.818l-.097-.293a5 5 0 0 0-.108-.295c-.249-.618-.604-.969-1.261-1.066a.5.5 0 1 1-.018-.581M9 15l.776-1.553a.25.25 0 0 1 .448 0L11 15h1a.5.5 0 0 1 .4.8l-2 2.667a.5.5 0 0 1-.8 0l-2-2.667A.5.5 0 0 1 8 15zM2 3.5a.5.5 0 1 1 0-1 .5.5 0 0 1 0 1m2 0a.5.5 0 1 1 0-1 .5.5 0 0 1 0 1m2 0a.5.5 0 1 1 0-1 .5.5 0 0 1 0 1m2 0a.5.5 0 1 1 0-1 .5.5 0 0 1 0 1m2 0a.5.5 0 1 1 0-1 .5.5 0 0 1 0 1m2 0a.5.5 0 1 1 0-1 .5.5 0 0 1 0 1m2 0a.5.5 0 1 1 0-1 .5.5 0 0 1 0 1m2 0a.5.5 0 1 1 0-1 .5.5 0 0 1 0 1m2 0a.5.5 0 1 1 0-1 .5.5 0 0 1 0 1m0 2a.5.5 0 1 1 0-1 .5.5 0 0 1 0 1m0 2a.5.5 0 1 1 0-1 .5.5 0 0 1 0 1m0 4a.5.5 0 1 1 0-1 .5.5 0 0 1 0 1m0 2a.5.5 0 1 1 0-1 .5.5 0 0 1 0 1m0 2a.5.5 0 1 1 0-1 .5.5 0 0 1 0 1m-2 0a.5.5 0 1 1 0-1 .5.5 0 0 1 0 1m-2 0a.5.5 0 1 1 0-1 .5.5 0 0 1 0 1m-10 0a.5.5 0 1 1 0-1 .5.5 0 0 1 0 1m2 0a.5.5 0 1 1 0-1 .5.5 0 0 1 0 1m-4 0a.5.5 0 1 1 0-1 .5.5 0 0 1 0 1m0-2a.5.5 0 1 1 0-1 .5.5 0 0 1 0 1m0-2a.5.5 0 1 1 0-1 .5.5 0 0 1 0 1m0-4a.5.5 0 1 1 0-1 .5.5 0 0 1 0 1m0-2a.5.5 0 1 1 0-1 .5.5 0 0 1 0 1"/></svg>