<svg width="20" height="20" xmlns="http://www.w3.org/2000/svg"><path d="m2.744 7.462-.005 5.262a1.504 1.504 0 0 0 1.485 1.485l5.261-.005a1.478 1.478 0 0 0 1.05-2.525l-.946-.945a4.121 4.121 0 0 1 1.302-.688c.144-.035.163-.065.347-.1.297-.058.54-.083.822-.107a4.94 4.94 0 0 1 1.618.212c.52.163.985.41 1.361.668.366.257.658.54.827.708.089.08.178.208.227.267.055.065.084.104.084.104a.91.91 0 0 0 1.278.129.902.902 0 0 0 .257-1.07s-.02-.049-.055-.123c-.044-.084-.069-.178-.168-.356a7.693 7.693 0 0 0-.871-1.307 7.863 7.863 0 0 0-1.674-1.496A8.281 8.281 0 0 0 12.5 6.517a9.5 9.5 0 0 0-1.352-.203 5.555 5.555 0 0 0-.712-.02c-.233.005-.456.02-.684.039a8.401 8.401 0 0 0-2.405.624 8.463 8.463 0 0 0-1.02.515l-1.059-1.06a1.478 1.478 0 0 0-2.524 1.05" fill="#4C97FF" fill-rule="evenodd"/></svg>