<svg xmlns="http://www.w3.org/2000/svg" width="20" height="20"><path fill="#FFF" fill-rule="evenodd" d="M19 9.49c0 .38-.31.67-.687.67H17.28a.67.67 0 0 1-.687-.67c0-.38.307-.688.687-.688h1.032c.378 0 .687.308.687.688M5.322 14.157a.666.666 0 0 1 0 .96l-.721.741a.73.73 0 0 1-.49.199.73.73 0 0 1-.487-.199c-.255-.271-.255-.706 0-.959l.74-.742a.666.666 0 0 1 .958 0M16.36 3.123c.253.27.253.705 0 .957l-.742.741a.68.68 0 0 1-.47.201.72.72 0 0 1-.489-.2.7.7 0 0 1 0-.96l.742-.74a.666.666 0 0 1 .959 0M12.414 17.34c.183 1.16-.489 2.136-2.424 2.136-1.934 0-2.605-.976-2.424-2.136.09-.507.58.183 2.424.217 1.863 0 2.351-.724 2.424-.217M3.623 4.08c-.255-.254-.255-.688 0-.958a.685.685 0 0 1 .977 0l.722.74a.663.663 0 0 1 0 .959.68.68 0 0 1-.469.2.7.7 0 0 1-.49-.2zM3.388 9.49c0 .38-.308.67-.67.67H1.67A.67.67 0 0 1 1 9.49c0-.38.308-.688.67-.688h1.049c.361 0 .669.308.669.688m5.933-7.291v-1.03C9.32.79 9.61.5 9.99.5s.687.29.687.67v1.029c0 .38-.307.687-.687.687a.67.67 0 0 1-.67-.687m5.681 6.604c.125 1.356-.271 2.623-1.031 3.58-.707.924-1.16 1.123-1.178 2.245 0 .579-.29 1.05-.76 1.266h-.016c-1.284.633-2.77.615-4.054 0a1.33 1.33 0 0 1-.742-1.194c0-1.176-.47-1.357-1.194-2.297A5 5 0 0 1 4.96 9.309c0-2.985 2.589-5.337 5.628-4.993 2.316.271 4.197 2.171 4.414 4.487m1.357 6.096c.253.254.253.688 0 .96a.7.7 0 0 1-.49.198.69.69 0 0 1-.469-.199l-.742-.742a.7.7 0 0 1 0-.958.663.663 0 0 1 .96 0z"/></svg>