<svg width="96" height="35" xmlns="http://www.w3.org/2000/svg" xmlns:xlink="http://www.w3.org/1999/xlink"><defs><path d="M0 2.46C0 1.103 1.1 0 2.457 0H8.81c.652 0 1.277.26 1.738.721l3.474 3.48a2.456 2.456 0 0 0 1.738.72h7.792c.652 0 1.277-.26 1.738-.72L28.764.72A2.456 2.456 0 0 1 30.502 0h62.862a2.459 2.459 0 0 1 2.457 2.46v24.607c0 1.359-1.1 2.46-2.457 2.46H30.502c-.652 0-1.277.26-1.738.722l-3.474 3.479a2.456 2.456 0 0 1-1.738.72H15.76c-.652 0-1.277-.258-1.738-.72l-3.474-3.48a2.456 2.456 0 0 0-1.738-.72H2.457A2.459 2.459 0 0 1 0 27.067V2.461Z" id="a"/></defs><g fill="none" fill-rule="evenodd"><use fill-opacity=".2" fill="#FFF" xlink:href="#a"/><path stroke-opacity=".1" stroke="#FFF" d="M.5 2.46v24.607c0 1.083.876 1.96 1.957 1.96H8.81c.785 0 1.537.313 2.092.868l3.474 3.48c.367.367.865.574 1.384.574h7.792c.52 0 1.017-.207 1.384-.574l3.474-3.48a2.956 2.956 0 0 1 2.092-.867h62.862c1.08 0 1.957-.878 1.957-1.961V2.461c0-1.083-.876-1.961-1.957-1.961H30.502c-.52 0-1.017.207-1.384.574l-3.474 3.48a2.956 2.956 0 0 1-2.092.867H15.76a2.956 2.956 0 0 1-2.092-.868l-3.474-3.479A1.956 1.956 0 0 0 8.81.5H2.457C1.377.5.5 1.378.5 2.46Z"/></g></svg>