<svg width="20" height="20" xmlns="http://www.w3.org/2000/svg"><g fill="none" fill-rule="evenodd"><path stroke-opacity=".5" stroke="#575E75" stroke-linecap="round" stroke-linejoin="round" stroke-dasharray="1,2" d="M3.5 15V2.5h12.497"/><path d="M5 5.007C5 4.45 5.453 4 5.997 4H13v2.35c0 .911.734 1.65 1.65 1.65H17v9.005c0 .55-.456.995-1.002.995H6.002C5.45 18 5 17.55 5 16.993V5.007Z" fill="#4C97FF"/><path d="m14 4 3 3h-2.001A.996.996 0 0 1 14 6.001V4Z" fill="#4C97FF"/><path d="M11.348 14.877a.445.445 0 0 1-.316.13.455.455 0 0 1-.33-.13L8.865 13.04a.47.47 0 0 1-.1-.502.438.438 0 0 1 .416-.273h.746l.359-2.598a.75.75 0 0 1 .287-.502.735.735 0 0 1 .56-.158.79.79 0 0 1 .66.66l.373 2.598h.703a.45.45 0 0 1 .416.287.446.446 0 0 1-.1.488l-1.837 1.837Z" fill="#FFF"/></g></svg>