<svg xmlns="http://www.w3.org/2000/svg" viewBox="0 0 215 60"><path style="stroke:none;fill-rule:nonzero;fill:#000;fill-opacity:1" d="M159.352 59.86c-11.989-.196-23.778-1.684-35.18-5.587-5.215-1.785-10.164-4.101-14.524-7.558-1.046-.828-2.324-.461-3.496-.332-1.285.144-2.496.637-3.617 1.281-.902.52-1.86.988-2.637 1.66-5.824 5.04-12.902 7.043-20.23 8.422-16.031 3.008-32.066 3.07-48.07-.203-7.282-1.492-14.293-3.766-20.649-7.762a30.046 30.046 0 0 1-4.172-3.152c-7.492-6.766-8.785-16.305-3.297-24.8 2.997-4.642 7.036-7.852 12.668-8.622 3.262-.445 6.254.406 9.063 2.059.617.363.55.718.25 1.203-.54.86-1.363 1.308-2.277 1.648-1.649.61-3.391.813-5.094 1.18-5.54 1.183-7.266 4.098-5.617 9.535 1.382 4.574 5.214 6.781 10.472 6.121 6.024-.754 11.364-3.3 16.551-6.258 5.93-3.383 10.957-7.957 16.129-12.332 5.438-4.593 10.91-9.14 17.285-12.422 5.387-2.77 11.055-4.296 17.164-3.87 5.156.359 9.906 2.034 14.367 4.554 1.012.574 1.746.637 2.813.086C114.168 1.148 121.46-.605 129.28.332c6.043.727 11.567 2.93 16.817 5.902 6.617 3.743 12.492 8.524 18.445 13.2 4.477 3.52 8.992 7 13.55 10.414 2.805 2.097 5.829 3.847 9.239 4.816 4.691 1.332 8.813.297 12.293-3.082 1.473-1.434 3.105-2.828 3.512-5.016.62-3.332-.703-5.476-3.942-6.472-2.074-.637-4.246-.79-6.351-1.266a14.526 14.526 0 0 1-2.594-.86c-.805-.355-.906-.745-.41-1.5 2.117-3.214 5.668-4.44 9.773-3.308 7.477 2.059 14.774 10.797 15.246 18.547.305 5.055-1.52 9.465-4.843 13.25-3.778 4.293-8.61 7.008-13.828 9.102-7.391 2.964-15.125 4.43-23.008 5.234-4.598.469-9.207.617-13.828.566Zm0 0"/></svg>