<svg xmlns="http://www.w3.org/2000/svg" width="20" height="20"><path fill="#4C97FF" fill-rule="evenodd" d="m17.245 7.462.004 5.262a1.504 1.504 0 0 1-1.485 1.485l-5.26-.005a1.478 1.478 0 0 1-1.05-2.525l.945-.945a4.1 4.1 0 0 0-1.302-.688c-.143-.035-.162-.065-.346-.1a7 7 0 0 0-.822-.107 5 5 0 0 0-1.618.212c-.52.163-.985.41-1.362.668a6.3 6.3 0 0 0-.826.708c-.09.08-.178.208-.228.267l-.084.104a.91.91 0 0 1-1.277.129.9.9 0 0 1-.257-1.07s.02-.049.054-.123c.045-.084.07-.178.168-.356.193-.362.456-.802.871-1.307a7.9 7.9 0 0 1 1.674-1.496 8.3 8.3 0 0 1 2.445-1.058 9.5 9.5 0 0 1 1.351-.203c.173-.025.51-.025.713-.02.232.005.455.02.683.039a8.4 8.4 0 0 1 2.406.624c.39.164.732.347 1.02.515l1.058-1.06a1.478 1.478 0 0 1 2.524 1.05"/></svg>