<svg xmlns="http://www.w3.org/2000/svg" width="40" height="40"><g fill="none" fill-rule="evenodd"><path fill="#000" fill-opacity=".15" d="M27.834 9a3 3 0 0 1 2.546 1.412l.097.167.054.11.052.112.048.112 6.222 16a3.001 3.001 0 0 1-2.27 4.041l-.18.025-.115.011-.116.007-.115.003h-1.855a3 3 0 0 1-2.545-1.412l-.096-.167-.107-.222-.048-.111L28.983 28h-4.93l-.422 1.087a3 3 0 0 1-2.41 1.889l-.193.018-.194.006-1.94-.002-.096.002H7a3 3 0 0 1-2.87-3.872l.072-.209 6.183-16a3 3 0 0 1 2.604-1.913L13.184 9l3.9.001.099-.001 3.924.002.095-.002 3.905.002.095-.002z"/><path fill="#000" fill-opacity=".25" d="m25.663 21 .816-2.099.816 2.099zm10.258 6.275-6.223-16-.075-.168-.085-.145c-.387-.611-1.019-.962-1.703-.962h-2.633l-.096.002-.062-.001L21.202 10l-.096.002-.062-.001L17.183 10l-.086.002L13.184 10l-.165.007a2 2 0 0 0-1.702 1.272l-6.182 16-.059.175Q5.001 27.722 5 28a2 2 0 0 0 2 2h11.798l.088-.002 1.949.002.163-.007.161-.019a2 2 0 0 0 1.539-1.249l.67-1.725h6.299l.672 1.726.074.167.086.145c.387.611 1.018.962 1.703.962h1.855l.174-.009.164-.024c.976-.187 1.662-1.003 1.662-1.967 0-.248-.046-.494-.136-.725"/><path fill="#4C97FF" d="M13.183 11h3.818a1 1 0 0 1 .941 1.338l-5.742 16a1 1 0 0 1-.94.662H7a1 1 0 0 1-.933-1.36l6.183-16a1 1 0 0 1 .933-.64"/><path fill="#CF63CF" d="M17.183 11H21a1 1 0 0 1 .942 1.338l-5.742 16a1 1 0 0 1-.941.662h-4.26a1 1 0 0 1-.932-1.36l6.183-16a1 1 0 0 1 .933-.64"/><path fill="#FFBF00" d="M21.202 11H25a1 1 0 0 1 .933 1.361l-6.203 16a1 1 0 0 1-.932.639H15a1 1 0 0 1-.933-1.361l6.203-16a1 1 0 0 1 .932-.639"/><path fill="#FFF" d="M27.834 11a1 1 0 0 1 .932.638l6.222 16A1 1 0 0 1 34.056 29h-1.854a1 1 0 0 1-.932-.638L30.351 26h-7.666l-.919 2.362a1 1 0 0 1-.932.638H18.98a1 1 0 0 1-.932-1.362l6.222-16a1 1 0 0 1 .932-.638Zm-1.316 5.143L24.24 22h4.556z"/></g></svg>