<svg xmlns="http://www.w3.org/2000/svg" width="64" height="64"><g style="fill:none;fill-rule:nonzero;stroke:none;stroke-width:1" transform="scale(1.9656)"><circle cx="16.28" cy="16.28" r="16.28" style="fill:#29abe0"/><path d="M22.258 8.8h1.608c3.1 0 5.614 2.514 5.614 5.614v.33c0 3.101-2.514 5.615-5.614 5.615h-1.608v1.69a2.59 2.59 0 0 1-2.591 2.591H7.43a2.59 2.59 0 0 1-2.591-2.591V10.096c0-.716.58-1.296 1.296-1.296Zm0 2.997v5.565h1.466a2.783 2.783 0 1 0 0-5.565z" style="fill:#fff"/></g><path d="M8.36 5.277q.6-1.757 2.846-1.757c2.245 0 3.078 2.794 1.9 4.62Q11.93 9.967 8.36 12.76 4.79 9.967 3.613 8.14C2.436 6.314 3.27 3.52 5.514 3.52q2.246 0 2.846 1.757" style="fill:#ff5e5b;fill-rule:nonzero;stroke:none;stroke-width:1" transform="translate(9.514 17.297)scale(1.9656)"/></svg>