<svg xmlns="http://www.w3.org/2000/svg" xmlns:xlink="http://www.w3.org/1999/xlink" width="204" height="92"><style>@-webkit-keyframes wiggle{0%{transform:translate(0,-10px)}to{transform:translate(0,0)}}@keyframes wiggle{0%{transform:translate(0,-10px)}to{transform:translate(0,0)}}</style><defs><filter id="filter-2" width="130.4%" height="124.1%" x="-15.2%" y="-12.1%" filterUnits="objectBoundingBox"><feMorphology in="SourceAlpha" operator="dilate" radius="1.5" result="shadowSpreadOuter1"/><feOffset in="shadowSpreadOuter1" result="shadowOffsetOuter1"/><feComposite in="shadowOffsetOuter1" in2="SourceAlpha" operator="out" result="shadowOffsetOuter1"/><feColorMatrix in="shadowOffsetOuter1" values="0 0 0 0 0.298039216 0 0 0 0 0.592156863 0 0 0 0 1 0 0 0 0.25 0"/></filter><path id="path-1" d="M66.5 45c-.7 0-1.3-.2-1.7-.7l-9.1-8.8c-.7-.7-.9-1.7-.5-2.6.4-.8 1.2-1.4 2.2-1.4H61l1.7-12.2a4 4 0 0 1 4.5-3.3 4 4 0 0 1 3.3 3.3l1.8 12.2h3.3c1 0 2 .6 2.3 1.5.4.9.2 1.8-.5 2.5l-9.1 8.8c-.5.5-1 .7-1.7.7z"/></defs><g id="boost-button-illustration" fill="none" fill-rule="evenodd"><g id="boost-top" fill-rule="nonzero" transform="translate(4 4)"><path id="Path" fill="#FFF" stroke="#7C87A5" stroke-linecap="round" stroke-linejoin="round" d="M94 84H2a2 2 0 0 1-2-2V68h96v14a2 2 0 0 1-2 2"/><path id="Rectangle" fill="#FFF" stroke="#7C87A5" stroke-linecap="round" stroke-linejoin="round" d="M72-56h52v196H72z" transform="rotate(-90 98 42)"/><g id="Group"><g fill="#231F20" opacity=".1" transform="translate(54 34)"><path d="M4 15a3 3 0 0 1-3-3V4a3 3 0 0 1 3-3h8a3 3 0 0 1 3 3v8a3 3 0 0 1-3 3z"/><path id="Shape" d="M12 2a2 2 0 0 1 2 2v8a2 2 0 0 1-2 2H4a2 2 0 0 1-2-2V4c0-1.1.9-2 2-2zm0-2H4a4 4 0 0 0-4 4v8a4 4 0 0 0 4 4h8a4 4 0 0 0 4-4V4a4 4 0 0 0-4-4"/></g><path fill="#46B946" stroke="#389438" stroke-linecap="round" stroke-linejoin="round" d="M56 38v8c0 1.1.9 2 2 2h8a2 2 0 0 0 2-2v-8a2 2 0 0 0-2-2h-8a2 2 0 0 0-2 2"/></g><path fill="#231F20" stroke="#231F20" stroke-linecap="round" stroke-linejoin="round" d="M76 44v-4h20v4z" opacity=".1"/><g stroke="#7C87A5" stroke-linecap="round" stroke-linejoin="round" opacity=".5"><path fill="#FFF" d="M80 26h-2a2 2 0 0 1-2-2v-8h20v8a2 2 0 0 1-2 2h-2"/><path fill="#7C87A5" d="m90 28-2-4-2 4zm-8-4 2 4 2-4z"/></g><g stroke="#7C87A5" stroke-linecap="round" stroke-linejoin="round" opacity=".5"><path fill="#FFF" d="M80 58h-2a2 2 0 0 0-2 2v8h20v-8a2 2 0 0 0-2-2h-2"/><path fill="#7C87A5" d="m90 56-2 4-2-4zm-8 4 2-4 2 4z"/></g><g opacity=".5"><g transform="translate(4 20)"><circle id="Oval" cx="4" cy="4" r="3.5" fill="#FFF"/><path fill="#7C87A5" d="M4 1a3 3 0 0 1 3 3 3 3 0 0 1-3 3 3 3 0 0 1-3-3 3 3 0 0 1 3-3m0-1a4 4 0 1 0 0 8 4 4 0 0 0 0-8"/></g><g transform="translate(16 20)"><circle cx="4" cy="4" r="3.5" fill="#FFF"/><path fill="#7C87A5" d="M4 1a3 3 0 0 1 3 3 3 3 0 0 1-3 3 3 3 0 0 1-3-3 3 3 0 0 1 3-3m0-1a4 4 0 1 0 0 8 4 4 0 0 0 0-8"/></g><g transform="translate(28 20)"><circle cx="4" cy="4" r="3.5" fill="#FFF"/><path fill="#7C87A5" d="M4 1a3 3 0 0 1 3 3 3 3 0 0 1-3 3 3 3 0 0 1-3-3 3 3 0 0 1 3-3m0-1a4 4 0 1 0 0 8 4 4 0 0 0 0-8"/></g><g transform="translate(40 20)"><circle cx="4" cy="4" r="3.5" fill="#FFF"/><path fill="#7C87A5" d="M4 1a3 3 0 0 1 3 3 3 3 0 0 1-3 3 3 3 0 0 1-3-3 3 3 0 0 1 3-3m0-1a4 4 0 1 0 0 8 4 4 0 0 0 0-8"/></g><g transform="translate(52 20)"><circle cx="4" cy="4" r="3.5" fill="#FFF"/><path fill="#7C87A5" d="M4 1a3 3 0 0 1 3 3 3 3 0 0 1-3 3 3 3 0 0 1-3-3 3 3 0 0 1 3-3m0-1a4 4 0 1 0 0 8 4 4 0 0 0 0-8"/></g><g transform="translate(64 20)"><circle cx="4" cy="4" r="3.5" fill="#FFF"/><path fill="#7C87A5" d="M4 1a3 3 0 0 1 3 3 3 3 0 0 1-3 3 3 3 0 0 1-3-3 3 3 0 0 1 3-3m0-1a4 4 0 1 0 0 8 4 4 0 0 0 0-8"/></g></g><g opacity=".5"><g transform="translate(124 20)"><circle cx="4" cy="4" r="3.5" fill="#FFF"/><path fill="#7C87A5" d="M4 1a3 3 0 0 1 3 3 3 3 0 0 1-3 3 3 3 0 0 1-3-3 3 3 0 0 1 3-3m0-1a4 4 0 1 0 0 8 4 4 0 0 0 0-8"/></g><g transform="translate(136 20)"><circle cx="4" cy="4" r="3.5" fill="#FFF"/><path fill="#7C87A5" d="M4 1a3 3 0 0 1 3 3 3 3 0 0 1-3 3 3 3 0 0 1-3-3 3 3 0 0 1 3-3m0-1a4 4 0 1 0 0 8 4 4 0 0 0 0-8"/></g><g transform="translate(100 20)"><circle cx="4" cy="4" r="3.5" fill="#FFF"/><path fill="#7C87A5" d="M4 1a3 3 0 0 1 3 3 3 3 0 0 1-3 3 3 3 0 0 1-3-3 3 3 0 0 1 3-3m0-1a4 4 0 1 0 0 8 4 4 0 0 0 0-8"/></g><g transform="translate(112 20)"><circle cx="4" cy="4" r="3.5" fill="#FFF"/><path fill="#7C87A5" d="M4 1a3 3 0 0 1 3 3 3 3 0 0 1-3 3 3 3 0 0 1-3-3 3 3 0 0 1 3-3m0-1a4 4 0 1 0 0 8 4 4 0 0 0 0-8"/></g><g transform="translate(148 20)"><circle cx="4" cy="4" r="3.5" fill="#FFF"/><path fill="#7C87A5" d="M4 1a3 3 0 0 1 3 3 3 3 0 0 1-3 3 3 3 0 0 1-3-3 3 3 0 0 1 3-3m0-1a4 4 0 1 0 0 8 4 4 0 0 0 0-8"/></g><g transform="translate(160 20)"><circle cx="4" cy="4" r="3.5" fill="#FFF"/><path fill="#7C87A5" d="M4 1a3 3 0 0 1 3 3 3 3 0 0 1-3 3 3 3 0 0 1-3-3 3 3 0 0 1 3-3m0-1a4 4 0 1 0 0 8 4 4 0 0 0 0-8"/></g><g transform="translate(172 20)"><circle cx="4" cy="4" r="3.5" fill="#FFF"/><path fill="#7C87A5" d="M4 1a3 3 0 0 1 3 3 3 3 0 0 1-3 3 3 3 0 0 1-3-3 3 3 0 0 1 3-3m0-1a4 4 0 1 0 0 8 4 4 0 0 0 0-8"/></g><g transform="translate(184 20)"><circle cx="4" cy="4" r="3.5" fill="#FFF"/><path fill="#7C87A5" d="M4 1a3 3 0 0 1 3 3 3 3 0 0 1-3 3 3 3 0 0 1-3-3 3 3 0 0 1 3-3m0-1a4 4 0 1 0 0 8 4 4 0 0 0 0-8"/></g></g><g opacity=".5"><g transform="translate(124 32)"><circle cx="4" cy="4" r="3.5" fill="#FFF"/><path fill="#7C87A5" d="M4 1a3 3 0 0 1 3 3 3 3 0 0 1-3 3 3 3 0 0 1-3-3 3 3 0 0 1 3-3m0-1a4 4 0 1 0 0 8 4 4 0 0 0 0-8"/></g><g transform="translate(136 32)"><circle cx="4" cy="4" r="3.5" fill="#FFF"/><path fill="#7C87A5" d="M4 1a3 3 0 0 1 3 3 3 3 0 0 1-3 3 3 3 0 0 1-3-3 3 3 0 0 1 3-3m0-1a4 4 0 1 0 0 8 4 4 0 0 0 0-8"/></g><g transform="translate(100 32)"><circle cx="4" cy="4" r="3.5" fill="#FFF"/><path fill="#7C87A5" d="M4 1a3 3 0 0 1 3 3 3 3 0 0 1-3 3 3 3 0 0 1-3-3 3 3 0 0 1 3-3m0-1a4 4 0 1 0 0 8 4 4 0 0 0 0-8"/></g><g transform="translate(112 32)"><circle cx="4" cy="4" r="3.5" fill="#FFF"/><path fill="#7C87A5" d="M4 1a3 3 0 0 1 3 3 3 3 0 0 1-3 3 3 3 0 0 1-3-3 3 3 0 0 1 3-3m0-1a4 4 0 1 0 0 8 4 4 0 0 0 0-8"/></g><g transform="translate(148 32)"><circle cx="4" cy="4" r="3.5" fill="#FFF"/><path fill="#7C87A5" d="M4 1a3 3 0 0 1 3 3 3 3 0 0 1-3 3 3 3 0 0 1-3-3 3 3 0 0 1 3-3m0-1a4 4 0 1 0 0 8 4 4 0 0 0 0-8"/></g><g transform="translate(160 32)"><circle cx="4" cy="4" r="3.5" fill="#FFF"/><path fill="#7C87A5" d="M4 1a3 3 0 0 1 3 3 3 3 0 0 1-3 3 3 3 0 0 1-3-3 3 3 0 0 1 3-3m0-1a4 4 0 1 0 0 8 4 4 0 0 0 0-8"/></g><g transform="translate(172 32)"><circle cx="4" cy="4" r="3.5" fill="#FFF"/><path fill="#7C87A5" d="M4 1a3 3 0 0 1 3 3 3 3 0 0 1-3 3 3 3 0 0 1-3-3 3 3 0 0 1 3-3m0-1a4 4 0 1 0 0 8 4 4 0 0 0 0-8"/></g><g transform="translate(184 32)"><circle cx="4" cy="4" r="3.5" fill="#FFF"/><path fill="#7C87A5" d="M4 1a3 3 0 0 1 3 3 3 3 0 0 1-3 3 3 3 0 0 1-3-3 3 3 0 0 1 3-3m0-1a4 4 0 1 0 0 8 4 4 0 0 0 0-8"/></g></g><g opacity=".5"><g transform="translate(124 44)"><circle cx="4" cy="4" r="3.5" fill="#FFF"/><path fill="#7C87A5" d="M4 1a3 3 0 0 1 3 3 3 3 0 0 1-3 3 3 3 0 0 1-3-3 3 3 0 0 1 3-3m0-1a4 4 0 1 0 0 8 4 4 0 0 0 0-8"/></g><g transform="translate(136 44)"><circle cx="4" cy="4" r="3.5" fill="#FFF"/><path fill="#7C87A5" d="M4 1a3 3 0 0 1 3 3 3 3 0 0 1-3 3 3 3 0 0 1-3-3 3 3 0 0 1 3-3m0-1a4 4 0 1 0 0 8 4 4 0 0 0 0-8"/></g><g transform="translate(100 44)"><circle cx="4" cy="4" r="3.5" fill="#FFF"/><path fill="#7C87A5" d="M4 1a3 3 0 0 1 3 3 3 3 0 0 1-3 3 3 3 0 0 1-3-3 3 3 0 0 1 3-3m0-1a4 4 0 1 0 0 8 4 4 0 0 0 0-8"/></g><g transform="translate(112 44)"><circle cx="4" cy="4" r="3.5" fill="#FFF"/><path fill="#7C87A5" d="M4 1a3 3 0 0 1 3 3 3 3 0 0 1-3 3 3 3 0 0 1-3-3 3 3 0 0 1 3-3m0-1a4 4 0 1 0 0 8 4 4 0 0 0 0-8"/></g><g transform="translate(148 44)"><circle cx="4" cy="4" r="3.5" fill="#FFF"/><path fill="#7C87A5" d="M4 1a3 3 0 0 1 3 3 3 3 0 0 1-3 3 3 3 0 0 1-3-3 3 3 0 0 1 3-3m0-1a4 4 0 1 0 0 8 4 4 0 0 0 0-8"/></g><g transform="translate(160 44)"><circle cx="4" cy="4" r="3.5" fill="#FFF"/><path fill="#7C87A5" d="M4 1a3 3 0 0 1 3 3 3 3 0 0 1-3 3 3 3 0 0 1-3-3 3 3 0 0 1 3-3m0-1a4 4 0 1 0 0 8 4 4 0 0 0 0-8"/></g><g transform="translate(172 44)"><circle cx="4" cy="4" r="3.5" fill="#FFF"/><path fill="#7C87A5" d="M4 1a3 3 0 0 1 3 3 3 3 0 0 1-3 3 3 3 0 0 1-3-3 3 3 0 0 1 3-3m0-1a4 4 0 1 0 0 8 4 4 0 0 0 0-8"/></g><g transform="translate(184 44)"><circle cx="4" cy="4" r="3.5" fill="#FFF"/><path fill="#7C87A5" d="M4 1a3 3 0 0 1 3 3 3 3 0 0 1-3 3 3 3 0 0 1-3-3 3 3 0 0 1 3-3m0-1a4 4 0 1 0 0 8 4 4 0 0 0 0-8"/></g></g><g opacity=".5"><g transform="translate(124 56)"><circle cx="4" cy="4" r="3.5" fill="#FFF"/><path fill="#7C87A5" d="M4 1a3 3 0 0 1 3 3 3 3 0 0 1-3 3 3 3 0 0 1-3-3 3 3 0 0 1 3-3m0-1a4 4 0 1 0 0 8 4 4 0 0 0 0-8"/></g><g transform="translate(136 56)"><circle cx="4" cy="4" r="3.5" fill="#FFF"/><path fill="#7C87A5" d="M4 1a3 3 0 0 1 3 3 3 3 0 0 1-3 3 3 3 0 0 1-3-3 3 3 0 0 1 3-3m0-1a4 4 0 1 0 0 8 4 4 0 0 0 0-8"/></g><g transform="translate(100 56)"><circle cx="4" cy="4" r="3.5" fill="#FFF"/><path fill="#7C87A5" d="M4 1a3 3 0 0 1 3 3 3 3 0 0 1-3 3 3 3 0 0 1-3-3 3 3 0 0 1 3-3m0-1a4 4 0 1 0 0 8 4 4 0 0 0 0-8"/></g><g transform="translate(112 56)"><circle cx="4" cy="4" r="3.5" fill="#FFF"/><path fill="#7C87A5" d="M4 1a3 3 0 0 1 3 3 3 3 0 0 1-3 3 3 3 0 0 1-3-3 3 3 0 0 1 3-3m0-1a4 4 0 1 0 0 8 4 4 0 0 0 0-8"/></g><g transform="translate(148 56)"><circle cx="4" cy="4" r="3.5" fill="#FFF"/><path fill="#7C87A5" d="M4 1a3 3 0 0 1 3 3 3 3 0 0 1-3 3 3 3 0 0 1-3-3 3 3 0 0 1 3-3m0-1a4 4 0 1 0 0 8 4 4 0 0 0 0-8"/></g><g transform="translate(160 56)"><circle cx="4" cy="4" r="3.5" fill="#FFF"/><path fill="#7C87A5" d="M4 1a3 3 0 0 1 3 3 3 3 0 0 1-3 3 3 3 0 0 1-3-3 3 3 0 0 1 3-3m0-1a4 4 0 1 0 0 8 4 4 0 0 0 0-8"/></g><g transform="translate(172 56)"><circle cx="4" cy="4" r="3.5" fill="#FFF"/><path fill="#7C87A5" d="M4 1a3 3 0 0 1 3 3 3 3 0 0 1-3 3 3 3 0 0 1-3-3 3 3 0 0 1 3-3m0-1a4 4 0 1 0 0 8 4 4 0 0 0 0-8"/></g><g transform="translate(184 56)"><circle cx="4" cy="4" r="3.5" fill="#FFF"/><path fill="#7C87A5" d="M4 1a3 3 0 0 1 3 3 3 3 0 0 1-3 3 3 3 0 0 1-3-3 3 3 0 0 1 3-3m0-1a4 4 0 1 0 0 8 4 4 0 0 0 0-8"/></g></g><g opacity=".5"><g transform="translate(4 56)"><circle cx="4" cy="4" r="3.5" fill="#FFF"/><path fill="#7C87A5" d="M4 1a3 3 0 0 1 3 3 3 3 0 0 1-3 3 3 3 0 0 1-3-3 3 3 0 0 1 3-3m0-1a4 4 0 1 0 0 8 4 4 0 0 0 0-8"/></g><g transform="translate(16 56)"><circle cx="4" cy="4" r="3.5" fill="#FFF"/><path fill="#7C87A5" d="M4 1a3 3 0 0 1 3 3 3 3 0 0 1-3 3 3 3 0 0 1-3-3 3 3 0 0 1 3-3m0-1a4 4 0 1 0 0 8 4 4 0 0 0 0-8"/></g><g transform="translate(28 56)"><circle cx="4" cy="4" r="3.5" fill="#FFF"/><path fill="#7C87A5" d="M4 1a3 3 0 0 1 3 3 3 3 0 0 1-3 3 3 3 0 0 1-3-3 3 3 0 0 1 3-3m0-1a4 4 0 1 0 0 8 4 4 0 0 0 0-8"/></g><g transform="translate(40 56)"><circle cx="4" cy="4" r="3.5" fill="#FFF"/><path fill="#7C87A5" d="M4 1a3 3 0 0 1 3 3 3 3 0 0 1-3 3 3 3 0 0 1-3-3 3 3 0 0 1 3-3m0-1a4 4 0 1 0 0 8 4 4 0 0 0 0-8"/></g><g transform="translate(52 56)"><circle cx="4" cy="4" r="3.5" fill="#FFF"/><path fill="#7C87A5" d="M4 1a3 3 0 0 1 3 3 3 3 0 0 1-3 3 3 3 0 0 1-3-3 3 3 0 0 1 3-3m0-1a4 4 0 1 0 0 8 4 4 0 0 0 0-8"/></g><g transform="translate(64 56)"><circle cx="4" cy="4" r="3.5" fill="#FFF"/><path fill="#7C87A5" d="M4 1a3 3 0 0 1 3 3 3 3 0 0 1-3 3 3 3 0 0 1-3-3 3 3 0 0 1 3-3m0-1a4 4 0 1 0 0 8 4 4 0 0 0 0-8"/></g></g><g opacity=".5"><g transform="translate(4 72)"><circle cx="4" cy="4" r="3.5" fill="#FFF"/><path fill="#7C87A5" d="M4 1a3 3 0 0 1 3 3 3 3 0 0 1-3 3 3 3 0 0 1-3-3 3 3 0 0 1 3-3m0-1a4 4 0 1 0 0 8 4 4 0 0 0 0-8"/></g><g transform="translate(16 72)"><circle cx="4" cy="4" r="3.5" fill="#FFF"/><path fill="#7C87A5" d="M4 1a3 3 0 0 1 3 3 3 3 0 0 1-3 3 3 3 0 0 1-3-3 3 3 0 0 1 3-3m0-1a4 4 0 1 0 0 8 4 4 0 0 0 0-8"/></g><g transform="translate(28 72)"><circle cx="4" cy="4" r="3.5" fill="#FFF"/><path fill="#7C87A5" d="M4 1a3 3 0 0 1 3 3 3 3 0 0 1-3 3 3 3 0 0 1-3-3 3 3 0 0 1 3-3m0-1a4 4 0 1 0 0 8 4 4 0 0 0 0-8"/></g><g transform="translate(40 72)"><circle cx="4" cy="4" r="3.5" fill="#FFF"/><path fill="#7C87A5" d="M4 1a3 3 0 0 1 3 3 3 3 0 0 1-3 3 3 3 0 0 1-3-3 3 3 0 0 1 3-3m0-1a4 4 0 1 0 0 8 4 4 0 0 0 0-8"/></g><g transform="translate(52 72)"><circle cx="4" cy="4" r="3.5" fill="#FFF"/><path fill="#7C87A5" d="M4 1a3 3 0 0 1 3 3 3 3 0 0 1-3 3 3 3 0 0 1-3-3 3 3 0 0 1 3-3m0-1a4 4 0 1 0 0 8 4 4 0 0 0 0-8"/></g><g transform="translate(64 72)"><circle cx="4" cy="4" r="3.5" fill="#FFF"/><path fill="#7C87A5" d="M4 1a3 3 0 0 1 3 3 3 3 0 0 1-3 3 3 3 0 0 1-3-3 3 3 0 0 1 3-3m0-1a4 4 0 1 0 0 8 4 4 0 0 0 0-8"/></g></g><path fill="#FFF" stroke="#7C87A5" stroke-linecap="round" stroke-linejoin="round" d="M96 16H0V2C0 .9.9 0 2 0h92a2 2 0 0 1 2 2zm28 0H96V2c0-1.1.9-2 2-2h24a2 2 0 0 1 2 2z"/><g opacity=".5"><g transform="translate(4 4)"><circle cx="4" cy="4" r="3.5" fill="#FFF"/><path fill="#7C87A5" d="M4 1a3 3 0 0 1 3 3 3 3 0 0 1-3 3 3 3 0 0 1-3-3 3 3 0 0 1 3-3m0-1a4 4 0 1 0 0 8 4 4 0 0 0 0-8"/></g><g transform="translate(16 4)"><circle cx="4" cy="4" r="3.5" fill="#FFF"/><path fill="#7C87A5" d="M4 1a3 3 0 0 1 3 3 3 3 0 0 1-3 3 3 3 0 0 1-3-3 3 3 0 0 1 3-3m0-1a4 4 0 1 0 0 8 4 4 0 0 0 0-8"/></g><g transform="translate(28 4)"><circle cx="4" cy="4" r="3.5" fill="#FFF"/><path fill="#7C87A5" d="M4 1a3 3 0 0 1 3 3 3 3 0 0 1-3 3 3 3 0 0 1-3-3 3 3 0 0 1 3-3m0-1a4 4 0 1 0 0 8 4 4 0 0 0 0-8"/></g><g transform="translate(40 4)"><circle cx="4" cy="4" r="3.5" fill="#FFF"/><path fill="#7C87A5" d="M4 1a3 3 0 0 1 3 3 3 3 0 0 1-3 3 3 3 0 0 1-3-3 3 3 0 0 1 3-3m0-1a4 4 0 1 0 0 8 4 4 0 0 0 0-8"/></g><g transform="translate(52 4)"><circle cx="4" cy="4" r="3.5" fill="#FFF"/><path fill="#7C87A5" d="M4 1a3 3 0 0 1 3 3 3 3 0 0 1-3 3 3 3 0 0 1-3-3 3 3 0 0 1 3-3m0-1a4 4 0 1 0 0 8 4 4 0 0 0 0-8"/></g><g transform="translate(64 4)"><circle cx="4" cy="4" r="3.5" fill="#FFF"/><path fill="#7C87A5" d="M4 1a3 3 0 0 1 3 3 3 3 0 0 1-3 3 3 3 0 0 1-3-3 3 3 0 0 1 3-3m0-1a4 4 0 1 0 0 8 4 4 0 0 0 0-8"/></g></g><g opacity=".5"><g transform="translate(4 44)"><circle cx="4" cy="4" r="3.5" fill="#FFF"/><path fill="#7C87A5" d="M4 1a3 3 0 0 1 3 3 3 3 0 0 1-3 3 3 3 0 0 1-3-3 3 3 0 0 1 3-3m0-1a4 4 0 1 0 0 8 4 4 0 0 0 0-8"/></g><g transform="translate(16 44)"><circle cx="4" cy="4" r="3.5" fill="#FFF"/><path fill="#7C87A5" d="M4 1a3 3 0 0 1 3 3 3 3 0 0 1-3 3 3 3 0 0 1-3-3 3 3 0 0 1 3-3m0-1a4 4 0 1 0 0 8 4 4 0 0 0 0-8"/></g><g transform="translate(28 44)"><circle cx="4" cy="4" r="3.5" fill="#FFF"/><path fill="#7C87A5" d="M4 1a3 3 0 0 1 3 3 3 3 0 0 1-3 3 3 3 0 0 1-3-3 3 3 0 0 1 3-3m0-1a4 4 0 1 0 0 8 4 4 0 0 0 0-8"/></g><g transform="translate(40 44)"><circle cx="4" cy="4" r="3.5" fill="#FFF"/><path fill="#7C87A5" d="M4 1a3 3 0 0 1 3 3 3 3 0 0 1-3 3 3 3 0 0 1-3-3 3 3 0 0 1 3-3m0-1a4 4 0 1 0 0 8 4 4 0 0 0 0-8"/></g></g><g opacity=".5"><g transform="translate(4 32)"><circle cx="4" cy="4" r="3.5" fill="#FFF"/><path fill="#7C87A5" d="M4 1a3 3 0 0 1 3 3 3 3 0 0 1-3 3 3 3 0 0 1-3-3 3 3 0 0 1 3-3m0-1a4 4 0 1 0 0 8 4 4 0 0 0 0-8"/></g><g transform="translate(16 32)"><circle cx="4" cy="4" r="3.5" fill="#FFF"/><path fill="#7C87A5" d="M4 1a3 3 0 0 1 3 3 3 3 0 0 1-3 3 3 3 0 0 1-3-3 3 3 0 0 1 3-3m0-1a4 4 0 1 0 0 8 4 4 0 0 0 0-8"/></g><g transform="translate(28 32)"><circle cx="4" cy="4" r="3.5" fill="#FFF"/><path fill="#7C87A5" d="M4 1a3 3 0 0 1 3 3 3 3 0 0 1-3 3 3 3 0 0 1-3-3 3 3 0 0 1 3-3m0-1a4 4 0 1 0 0 8 4 4 0 0 0 0-8"/></g><g transform="translate(40 32)"><circle cx="4" cy="4" r="3.5" fill="#FFF"/><path fill="#7C87A5" d="M4 1a3 3 0 0 1 3 3 3 3 0 0 1-3 3 3 3 0 0 1-3-3 3 3 0 0 1 3-3m0-1a4 4 0 1 0 0 8 4 4 0 0 0 0-8"/></g></g><path fill="#FFF" stroke="#7C87A5" stroke-linecap="round" stroke-linejoin="round" d="M122 84H98a2 2 0 0 1-2-2V68h28v14a2 2 0 0 1-2 2m72 0h-48a2 2 0 0 1-2-2V68h52v14a2 2 0 0 1-2 2"/><g opacity=".5"><g transform="translate(100 72)"><circle cx="4" cy="4" r="3.5" fill="#FFF"/><path fill="#7C87A5" d="M4 1a3 3 0 0 1 3 3 3 3 0 0 1-3 3 3 3 0 0 1-3-3 3 3 0 0 1 3-3m0-1a4 4 0 1 0 0 8 4 4 0 0 0 0-8"/></g><g transform="translate(102 74)"><circle cx="2" cy="2" r="1.5" fill="#FFF"/><path fill="#7C87A5" d="M2 1c.5 0 1 .4 1 1 0 .5-.5 1-1 1a1 1 0 0 1-1-1c0-.6.4-1 1-1m0-1a2 2 0 0 0-2 2c0 1.1.9 2 2 2a2 2 0 0 0 2-2 2 2 0 0 0-2-2"/></g><g transform="translate(112 72)"><circle cx="4" cy="4" r="3.5" fill="#FFF"/><path fill="#7C87A5" d="M4 1a3 3 0 0 1 3 3 3 3 0 0 1-3 3 3 3 0 0 1-3-3 3 3 0 0 1 3-3m0-1a4 4 0 1 0 0 8 4 4 0 0 0 0-8"/></g><g transform="translate(114 74)"><circle cx="2" cy="2" r="1.5" fill="#FFF"/><path fill="#7C87A5" d="M2 1c.5 0 1 .4 1 1 0 .5-.5 1-1 1a1 1 0 0 1-1-1c0-.6.4-1 1-1m0-1a2 2 0 0 0-2 2c0 1.1.9 2 2 2a2 2 0 0 0 2-2 2 2 0 0 0-2-2"/></g></g><g opacity=".5"><g transform="translate(100 4)"><circle cx="4" cy="4" r="3.5" fill="#FFF"/><path fill="#7C87A5" d="M4 1a3 3 0 0 1 3 3 3 3 0 0 1-3 3 3 3 0 0 1-3-3 3 3 0 0 1 3-3m0-1a4 4 0 1 0 0 8 4 4 0 0 0 0-8"/></g><g transform="translate(102 6)"><circle cx="2" cy="2" r="1.5" fill="#FFF"/><path fill="#7C87A5" d="M2 1c.5 0 1 .4 1 1 0 .5-.5 1-1 1a1 1 0 0 1-1-1c0-.6.4-1 1-1m0-1a2 2 0 0 0-2 2c0 1.1.9 2 2 2a2 2 0 0 0 2-2 2 2 0 0 0-2-2"/></g><g transform="translate(112 4)"><circle cx="4" cy="4" r="3.5" fill="#FFF"/><path fill="#7C87A5" d="M4 1a3 3 0 0 1 3 3 3 3 0 0 1-3 3 3 3 0 0 1-3-3 3 3 0 0 1 3-3m0-1a4 4 0 1 0 0 8 4 4 0 0 0 0-8"/></g><g transform="translate(114 6)"><circle cx="2" cy="2" r="1.5" fill="#FFF"/><path fill="#7C87A5" d="M2 1c.5 0 1 .4 1 1 0 .5-.5 1-1 1a1 1 0 0 1-1-1c0-.6.4-1 1-1m0-1a2 2 0 0 0-2 2c0 1.1.9 2 2 2a2 2 0 0 0 2-2 2 2 0 0 0-2-2"/></g></g><path fill="#FFF" stroke="#7C87A5" stroke-linecap="round" stroke-linejoin="round" d="M196 16h-52V2c0-1.1.9-2 2-2h48a2 2 0 0 1 2 2z"/><path fill="#231F20" stroke="#231F20" stroke-linecap="round" stroke-linejoin="round" d="M124 72h-20a4 4 0 0 0-4 4v8h-2a2 2 0 0 1-2-2V72H0v-4h124zm0-60h-20a4 4 0 0 1-4-4V0h-2a2 2 0 0 0-2 2v10H0v4h124z" opacity=".1"/><g opacity=".5"><g transform="translate(148 4)"><circle cx="4" cy="4" r="3.5" fill="#FFF"/><path fill="#7C87A5" d="M4 1a3 3 0 0 1 3 3 3 3 0 0 1-3 3 3 3 0 0 1-3-3 3 3 0 0 1 3-3m0-1a4 4 0 1 0 0 8 4 4 0 0 0 0-8"/></g><g transform="translate(150 6)"><circle cx="2" cy="2" r="1.5" fill="#FFF"/><path fill="#7C87A5" d="M2 1c.5 0 1 .4 1 1 0 .5-.5 1-1 1a1 1 0 0 1-1-1c0-.6.4-1 1-1m0-1a2 2 0 0 0-2 2c0 1.1.9 2 2 2a2 2 0 0 0 2-2 2 2 0 0 0-2-2"/></g><g transform="translate(160 4)"><circle cx="4" cy="4" r="3.5" fill="#FFF"/><path fill="#7C87A5" d="M4 1a3 3 0 0 1 3 3 3 3 0 0 1-3 3 3 3 0 0 1-3-3 3 3 0 0 1 3-3m0-1a4 4 0 1 0 0 8 4 4 0 0 0 0-8"/></g><g transform="translate(162 6)"><circle cx="2" cy="2" r="1.5" fill="#FFF"/><path fill="#7C87A5" d="M2 1c.5 0 1 .4 1 1 0 .5-.5 1-1 1a1 1 0 0 1-1-1c0-.6.4-1 1-1m0-1a2 2 0 0 0-2 2c0 1.1.9 2 2 2a2 2 0 0 0 2-2 2 2 0 0 0-2-2"/></g><g transform="translate(172 4)"><circle cx="4" cy="4" r="3.5" fill="#FFF"/><path fill="#7C87A5" d="M4 1a3 3 0 0 1 3 3 3 3 0 0 1-3 3 3 3 0 0 1-3-3 3 3 0 0 1 3-3m0-1a4 4 0 1 0 0 8 4 4 0 0 0 0-8"/></g><g transform="translate(174 6)"><circle cx="2" cy="2" r="1.5" fill="#FFF"/><path fill="#7C87A5" d="M2 1c.5 0 1 .4 1 1 0 .5-.5 1-1 1a1 1 0 0 1-1-1c0-.6.4-1 1-1m0-1a2 2 0 0 0-2 2c0 1.1.9 2 2 2a2 2 0 0 0 2-2 2 2 0 0 0-2-2"/></g><g transform="translate(184 4)"><circle cx="4" cy="4" r="3.5" fill="#FFF"/><path fill="#7C87A5" d="M4 1a3 3 0 0 1 3 3 3 3 0 0 1-3 3 3 3 0 0 1-3-3 3 3 0 0 1 3-3m0-1a4 4 0 1 0 0 8 4 4 0 0 0 0-8"/></g><g transform="translate(186 6)"><circle cx="2" cy="2" r="1.5" fill="#FFF"/><path fill="#7C87A5" d="M2 1c.5 0 1 .4 1 1 0 .5-.5 1-1 1a1 1 0 0 1-1-1c0-.6.4-1 1-1m0-1a2 2 0 0 0-2 2c0 1.1.9 2 2 2a2 2 0 0 0 2-2 2 2 0 0 0-2-2"/></g></g><g opacity=".5"><g transform="translate(148 72)"><circle cx="4" cy="4" r="3.5" fill="#FFF"/><path fill="#7C87A5" d="M4 1a3 3 0 0 1 3 3 3 3 0 0 1-3 3 3 3 0 0 1-3-3 3 3 0 0 1 3-3m0-1a4 4 0 1 0 0 8 4 4 0 0 0 0-8"/></g><g transform="translate(150 74)"><circle cx="2" cy="2" r="1.5" fill="#FFF"/><path fill="#7C87A5" d="M2 1c.5 0 1 .4 1 1 0 .5-.5 1-1 1a1 1 0 0 1-1-1c0-.6.4-1 1-1m0-1a2 2 0 0 0-2 2c0 1.1.9 2 2 2a2 2 0 0 0 2-2 2 2 0 0 0-2-2"/></g><g transform="translate(160 72)"><circle cx="4" cy="4" r="3.5" fill="#FFF"/><path fill="#7C87A5" d="M4 1a3 3 0 0 1 3 3 3 3 0 0 1-3 3 3 3 0 0 1-3-3 3 3 0 0 1 3-3m0-1a4 4 0 1 0 0 8 4 4 0 0 0 0-8"/></g><g transform="translate(162 74)"><circle cx="2" cy="2" r="1.5" fill="#FFF"/><path fill="#7C87A5" d="M2 1c.5 0 1 .4 1 1 0 .5-.5 1-1 1a1 1 0 0 1-1-1c0-.6.4-1 1-1m0-1a2 2 0 0 0-2 2c0 1.1.9 2 2 2a2 2 0 0 0 2-2 2 2 0 0 0-2-2"/></g><g transform="translate(172 72)"><circle cx="4" cy="4" r="3.5" fill="#FFF"/><path fill="#7C87A5" d="M4 1a3 3 0 0 1 3 3 3 3 0 0 1-3 3 3 3 0 0 1-3-3 3 3 0 0 1 3-3m0-1a4 4 0 1 0 0 8 4 4 0 0 0 0-8"/></g><g transform="translate(174 74)"><circle cx="2" cy="2" r="1.5" fill="#FFF"/><path fill="#7C87A5" d="M2 1c.5 0 1 .4 1 1 0 .5-.5 1-1 1a1 1 0 0 1-1-1c0-.6.4-1 1-1m0-1a2 2 0 0 0-2 2c0 1.1.9 2 2 2a2 2 0 0 0 2-2 2 2 0 0 0-2-2"/></g><g transform="translate(184 72)"><circle cx="4" cy="4" r="3.5" fill="#FFF"/><path fill="#7C87A5" d="M4 1a3 3 0 0 1 3 3 3 3 0 0 1-3 3 3 3 0 0 1-3-3 3 3 0 0 1 3-3m0-1a4 4 0 1 0 0 8 4 4 0 0 0 0-8"/></g><g transform="translate(186 74)"><circle cx="2" cy="2" r="1.5" fill="#FFF"/><path fill="#7C87A5" d="M2 1c.5 0 1 .4 1 1 0 .5-.5 1-1 1a1 1 0 0 1-1-1c0-.6.4-1 1-1m0-1a2 2 0 0 0-2 2c0 1.1.9 2 2 2a2 2 0 0 0 2-2 2 2 0 0 0-2-2"/></g></g><path fill="#231F20" stroke="#231F20" stroke-linecap="round" stroke-linejoin="round" d="M144 12h52v4h-52zm0 56h52v4h-52z" opacity=".1"/></g><g style="-webkit-animation:wiggle .5s infinite ease-in-out alternate;animation:wiggle .5s infinite ease-in-out alternate"><use xlink:href="#path-1" fill="#000" filter="url(#filter-2)"/><use xlink:href="#path-1" fill="#4C97FF" stroke="#4280D7"/></g></g></svg>