<svg xmlns="http://www.w3.org/2000/svg" width="20" height="20"><g fill="#575E75" fill-rule="evenodd"><path d="m12.662 3.65.89.891 3.133-2.374a.815.815 0 0 1 1.15.165.82.82 0 0 1 0 .986L15.467 6.46l.867.871c.25.25.072.664-.269.664L12.388 8A.397.397 0 0 1 12 7.611V3.92c0-.341.418-.514.662-.27M7.338 16.35l-.89-.89-3.133 2.374a.817.817 0 0 1-1.15-.166.82.82 0 0 1 0-.985l2.37-3.143-.87-.871a.387.387 0 0 1 .27-.664L7.612 12a.397.397 0 0 1 .388.389v3.692a.387.387 0 0 1-.662.27M7.338 3.65l-.89.891-3.133-2.374a.815.815 0 0 0-1.15.165.82.82 0 0 0 0 .986l2.37 3.142-.87.871a.387.387 0 0 0 .27.664L7.612 8A.397.397 0 0 0 8 7.611V3.92a.387.387 0 0 0-.662-.27M12.662 16.35l.89-.89 3.133 2.374a.817.817 0 0 0 1.15-.166.82.82 0 0 0 0-.985l-2.368-3.143.867-.871a.387.387 0 0 0-.269-.664L12.388 12a.397.397 0 0 0-.388.389v3.692c0 .342.418.514.662.27"/></g></svg>