<svg width="40" height="47" xmlns="http://www.w3.org/2000/svg"><path d="M40 26.896c0 11.04-8.961 20.002-19.998 20.002C8.997 46.898 0 37.937 0 26.896 0 16.43 8.133 7.826 18.389 7.002V2.486c0-1.972 2.147-3.155 3.832-2.08L33.978 7.97c1.541.968 1.541 3.19 0 4.194l-11.757 7.528c-1.685 1.075-3.832-.108-3.832-2.08v-4.301c-6.814.789-12.116 6.56-12.116 13.585 0 7.6 6.165 13.73 13.729 13.73 7.56 0 13.725-6.13 13.725-13.73 0-1.717 1.402-3.118 3.154-3.118A3.123 3.123 0 0 1 40 26.896" fill="#FFF" fill-rule="evenodd"/></svg>