<svg xmlns="http://www.w3.org/2000/svg" xmlns:xlink="http://www.w3.org/1999/xlink" width="20" height="20"><defs><path id="a" d="m10.007 12.107 2.389 1.895-2.39 1.916zm0-8.018 2.378 1.906-2.378 1.884zM8.885 1.007a1 1 0 0 0-.873 1v5.955L6.642 6.88a1 1 0 0 0-.749-.22.999.999 0 0 0-.498 1.792l1.953 1.54-1.953 1.552a1.006 1.006 0 0 0-.161 1.411 1 1 0 0 0 1.407.162l1.371-1.094V18a.998.998 0 0 0 1.62.781l4.987-3.998a1.002 1.002 0 0 0 0-1.573l-4.051-3.207 4.05-3.217a1.002 1.002 0 0 0 0-1.562L9.634 1.225a1 1 0 0 0-.748-.218"/></defs><g fill="none" fill-rule="evenodd"><mask id="b" fill="#fff"><use xlink:href="#a"/></mask><use xlink:href="#a" fill="#4D97FF"/><g fill="#575E75" mask="url(#b)"><path d="M0 0h20v20H0z"/></g></g></svg>