<svg width="20" height="20" xmlns="http://www.w3.org/2000/svg"><g fill="none" fill-rule="evenodd"><path d="M9.372 2a6.342 6.342 0 0 1-.913 3.288c-.14.232-1.158-.137-1.63.33-.473.468-.35 1.727-.567 1.857-.954.57-2.07.897-3.262.897" stroke="#575E75" stroke-width=".75"/><path d="M7 8.95a2.5 2.5 0 1 1 2.992-2.246l-.31-.284C8.657 5.485 7 6.205 7 7.596V8.95Z" fill="#575E75"/><path d="M7 9.965a3.5 3.5 0 1 1 3.857-2.472L9.681 6.42C8.658 5.485 7 6.205 7 7.596v2.369Z" fill-opacity=".15" fill="#575E75"/><path d="m10.88 15.168 1.105 2.464a.953.953 0 0 0 1.267.482.972.972 0 0 0 .477-1.28l-1.093-2.437h2.761c.549 0 .81-.666.408-1.033L9.007 7.16C8.623 6.807 8 7.078 8 7.596v9.207c0 .548.681.805 1.048.396l1.831-2.03Z" fill="#575E75"/></g></svg>