<svg width="20" height="20" xmlns="http://www.w3.org/2000/svg"><path d="m12.589 8.069 1.274-1.506c.586.84.96 1.838 1.047 2.915h1.348a.74.74 0 0 1 .62 1.145l-2.257 3.52a.74.74 0 0 1-1.252 0l-2.247-3.52a.74.74 0 0 1 .62-1.145h1.285a4.095 4.095 0 0 0-.438-1.409Zm2.343-4.318L4.418 16.177a.503.503 0 0 0-.05.072l-.486.574a.5.5 0 1 1-.764-.646l1.658-1.96A5.952 5.952 0 0 1 3 9.97 5.98 5.98 0 0 1 8.97 4c1.304 0 2.51.42 3.493 1.134l1.655-1.957a.5.5 0 0 1 .814.574ZM6.414 15.367l1.273-1.505c.404.134.836.206 1.283.206a.93.93 0 0 1 .931.931.933.933 0 0 1-.93.942 5.943 5.943 0 0 1-2.557-.574Zm4.834-8.798a4.054 4.054 0 0 0-2.278-.697A4.106 4.106 0 0 0 4.872 9.97c0 1.087.427 2.076 1.12 2.81l5.256-6.211Z" fill="#4D97FF" fill-rule="evenodd"/></svg>