<svg width="20" height="20" xmlns="http://www.w3.org/2000/svg"><g fill="none" fill-rule="evenodd"><path d="M5.652 11.075H7.76l.905-6.839c.098-.784.796-1.336 1.555-1.22.612.09 1.09.603 1.164 1.22l.905 6.839h2.058c.586 0 .869.732.464 1.156l-4.345 4.576a.643.643 0 0 1-.918 0l-4.36-4.576c-.404-.424-.11-1.156.465-1.156" fill="#4C97FF"/><path d="M6 9H2" stroke="#575E75" stroke-linecap="round" stroke-linejoin="round"/><path d="M6 7H3" stroke="#575E75" opacity=".75" stroke-linecap="round" stroke-linejoin="round"/><path d="M6 5H4" stroke="#575E75" opacity=".5" stroke-linecap="round" stroke-linejoin="round"/><path d="M18 9h-4" stroke="#575E75" stroke-linecap="round" stroke-linejoin="round"/><path d="M17 7h-3" stroke="#575E75" opacity=".75" stroke-linecap="round" stroke-linejoin="round"/><path d="M16 5h-2" stroke="#575E75" opacity=".5" stroke-linecap="round" stroke-linejoin="round"/></g></svg>