<svg xmlns="http://www.w3.org/2000/svg" xmlns:xlink="http://www.w3.org/1999/xlink" width="68" height="35"><defs><path id="a" d="M0 34.46C0 33.103 1.1 32 2.457 32H8.81c.652 0 1.277.26 1.738.721l3.474 3.48a2.46 2.46 0 0 0 1.738.72h7.792c.652 0 1.277-.26 1.738-.72l3.474-3.48A2.46 2.46 0 0 1 30.502 32h34.862a2.46 2.46 0 0 1 2.457 2.46v24.607c0 1.359-1.1 2.46-2.457 2.46H30.502c-.652 0-1.277.26-1.738.722l-3.474 3.479a2.46 2.46 0 0 1-1.738.72H15.76c-.652 0-1.277-.258-1.738-.72l-3.474-3.48a2.46 2.46 0 0 0-1.738-.72H2.457A2.46 2.46 0 0 1 0 59.067z"/></defs><g fill="none" fill-rule="evenodd" transform="translate(0 -32)"><use xlink:href="#a" fill="#FFF" fill-opacity=".2"/><path stroke="#FFF" stroke-opacity=".1" d="M.5 34.46v24.607c0 1.083.876 1.96 1.957 1.96H8.81c.785 0 1.537.313 2.092.868l3.474 3.48c.367.367.865.574 1.384.574h7.792c.52 0 1.017-.207 1.384-.574l3.474-3.48a2.96 2.96 0 0 1 2.092-.867h34.862c1.08 0 1.957-.878 1.957-1.961V34.461c0-1.083-.876-1.961-1.957-1.961H30.502c-.52 0-1.017.207-1.384.574l-3.474 3.48a2.96 2.96 0 0 1-2.092.867H15.76a2.96 2.96 0 0 1-2.092-.868l-3.474-3.479A1.96 1.96 0 0 0 8.81 32.5H2.457C1.377 32.5.5 33.378.5 34.46Z"/></g></svg>