<svg xmlns="http://www.w3.org/2000/svg" width="20" height="20" aria-hidden="true" class="svg-icon"><path fill="#575E75" d="m17.195 7.068-2.563.93a5.23 5.23 0 0 0-2.207-2.115 3.43 3.43 0 0 0 1.027-2.448A3.44 3.44 0 0 0 10.02 0a3.44 3.44 0 0 0-3.433 3.435c0 .958.394 1.825 1.027 2.448q-.326.165-.629.377a5.2 5.2 0 0 0-1.577 1.739l-2.563-.931a.782.782 0 0 0-1.048.734v8.716c0 .328.206.622.515.734l7.441 2.702a.8.8 0 0 0 .533 0l7.442-2.702a.78.78 0 0 0 .514-.734V7.802a.782.782 0 0 0-1.047-.734M10.02 1.563a1.873 1.873 0 0 1 0 3.745 1.873 1.873 0 0 1 0-3.745m-.782 16.541L3.36 15.97V8.917l5.88 2.134zm.782-8.431-3.114-1.13A3.74 3.74 0 0 1 10.02 6.87c1.268 0 2.438.649 3.113 1.672zm6.66 6.297-5.88 2.134v-7.053l5.88-2.134z"/></svg>