<svg class="svg-icon" aria-hidden="true" width="20" height="20" xmlns="http://www.w3.org/2000/svg"><path d="m17.195 7.068-2.563.93a5.233 5.233 0 0 0-2.207-2.115 3.426 3.426 0 0 0 1.027-2.448A3.438 3.438 0 0 0 10.02 0a3.438 3.438 0 0 0-3.433 3.435c0 .958.394 1.825 1.027 2.448a5.235 5.235 0 0 0-2.206 2.115l-2.563-.93a.782.782 0 0 0-1.048.734v8.716c0 .328.206.622.515.734l7.441 2.702a.79.79 0 0 0 .533 0l7.442-2.702a.781.781 0 0 0 .514-.734V7.802a.782.782 0 0 0-1.047-.734ZM10.02 1.563a1.873 1.873 0 0 1 0 3.745 1.873 1.873 0 0 1 0-3.745Zm-.782 16.541L3.36 15.97V8.917l5.88 2.134v7.053Zm.782-8.431-3.114-1.13A3.743 3.743 0 0 1 10.02 6.87c1.268 0 2.438.649 3.113 1.672l-3.113 1.13Zm6.66 6.297-5.88 2.134v-7.053l5.88-2.134v7.053Z" fill="#575E75"/></svg>