<svg width="20" height="20" xmlns="http://www.w3.org/2000/svg"><path d="M6.748 14.63c0 .363-.296.659-.662.659a.67.67 0 0 1-.673-.66c0-.374.307-.67.673-.67.366 0 .662.296.662.67Zm4.63-8.493a4.279 4.279 0 0 0-3.58 1.043l1.156 1.15a.718.718 0 0 1-.515 1.222H3.723A.725.725 0 0 1 3 8.832V4.14c0-.64.772-.955 1.227-.513l.99.984c.9-.698 1.946-1.2 3.045-1.436a7.603 7.603 0 0 1 3.817.148c2.452.738 4.35 2.785 4.894 5.127.13.56-.226 1.131-.79 1.26a1.05 1.05 0 0 1-1.226-.65v-.01c-.603-1.566-2.057-2.687-3.58-2.913Zm-1.92 10.008a.75.75 0 0 1-.751.747.741.741 0 0 1-.742-.747c0-.414.326-.738.742-.738.415 0 .751.324.751.738Zm5.835-1.427a.903.903 0 0 1-.91.895.903.903 0 0 1-.91-.895c0-.502.405-.906.91-.906s.91.404.91.906Zm1.661-2.579a.983.983 0 0 1-.989.984.983.983 0 1 1 0-1.968.99.99 0 0 1 .99.984Zm-4.39 4.034a.825.825 0 1 1-1.652 0 .825.825 0 1 1 1.652 0Z" fill="#CF63CF" fill-rule="evenodd"/></svg>