<svg xmlns="http://www.w3.org/2000/svg" width="32" height="32"><g transform="translate(.175 29.898)"><rect style="opacity:.12000002;fill:none;stroke:#000;stroke-width:3.74534345;stroke-miterlimit:4;stroke-opacity:1;stroke-dasharray:none" width="25.86" height="14.334" x="2.895" y="-21.065" rx="7.273"/><rect rx="6.559" y="-20.068" x="4.164" height="12.339" width="23.322" style="fill:none;stroke:#fff;stroke-width:3.29999995;stroke-miterlimit:4;stroke-opacity:1;stroke-dasharray:none"/><path style="opacity:.12000002;fill:#000;fill-opacity:1;stroke:none" d="M14.102-13.492a1.56 1.56 0 1 1-3.119 0 1.56 1.56 0 0 1 3.119 0z" transform="matrix(1.43041 0 0 1.43041 -7.426 5.4)"/><path transform="translate(-2.028 -.407)" d="M14.102-13.492a1.56 1.56 0 1 1-3.119 0 1.56 1.56 0 0 1 3.119 0z" style="fill:#fff;fill-opacity:1;stroke:none"/><path transform="matrix(1.43041 0 0 1.43041 3.195 5.4)" d="M14.102-13.492a1.56 1.56 0 1 1-3.119 0 1.56 1.56 0 0 1 3.119 0z" style="opacity:.12000002;fill:#000;fill-opacity:1;stroke:none"/><path style="fill:#fff;fill-opacity:1;stroke:none" d="M14.102-13.492a1.56 1.56 0 1 1-3.119 0 1.56 1.56 0 0 1 3.119 0z" transform="translate(8.593 -.407)"/></g></svg>