<svg width="40" height="40" xmlns="http://www.w3.org/2000/svg" xmlns:xlink="http://www.w3.org/1999/xlink"><defs><path d="M32.18 25.874C32.636 28.157 30.512 30 27.433 30c-3.07 0-5.923-1.843-6.372-4.126-.458-2.285 1.665-4.136 4.743-4.136.647 0 1.283.084 1.89.234a7 7 0 0 1 .938.302c.87-.02-.104-2.294-1.835-12.229-2.134-12.303 3.06-1.87 8.768-2.753 5.708-.885.076 4.82-3.65 3.844-3.724-.987-4.65-7.153.263 14.738Zm-16.998 5.99C15.63 34.148 13.507 36 10.439 36c-3.068 0-5.92-1.852-6.379-4.136-.448-2.284 1.674-4.135 4.751-4.135 1.002 0 1.974.197 2.854.544.822-.055-.15-2.377-1.862-12.228-2.133-12.303 3.059-1.87 8.764-2.753 5.706-.894.076 4.821-3.648 3.834-3.723-.987-4.648-7.152.263 14.738Z" id="a"/></defs><g fill="none" fill-rule="evenodd"><use fill="#FFF" xlink:href="#a"/><path stroke-opacity=".1" stroke="#000" d="M28.456 21.675c-.009-.312-.087-.825-.256-1.702-.096-.495-.612-3.022-.753-3.73-.395-1.98-.76-3.92-1.142-6.113-.732-4.223-.693-6.05.344-6.527.502-.23 1.06-.081 1.842.35.413.227 2.181 1.365 2.07 1.296 1.993 1.243 3.463 1.775 4.928 1.549 1.527-.237 2.505-.06 2.877.618.348.635.015 1.416-.729 2.18-1.473 1.516-3.976 2.514-5.849 2.023-.822-.218-1.238-.464-2.38-1.266a9.737 9.737 0 0 0-.095-.066c.047.593.264 1.74.717 3.803.294 1.336 2.079 9.187 2.637 11.674l.002.012c.529 2.637-1.872 4.724-5.235 4.724-3.29 0-6.363-1.988-6.862-4.528-.53-2.64 1.873-4.734 5.233-4.734a8.411 8.411 0 0 1 2.65.437ZM11.46 27.666c-.01-.319-.091-.84-.266-1.738-.09-.46-.595-2.937-.753-3.727-.39-1.96-.752-3.892-1.131-6.07-.732-4.224-.692-6.052.344-6.527.502-.23 1.06-.082 1.841.349.414.228 2.181 1.365 2.07 1.296 1.992 1.243 3.461 1.775 4.925 1.549 1.525-.24 2.504-.064 2.876.614.348.635.015 1.415-.728 2.18-1.474 1.517-3.977 2.513-5.847 2.017-.822-.218-1.237-.463-2.38-1.266a9.729 9.729 0 0 0-.094-.065c.047.593.264 1.74.717 3.802.294 1.337 2.078 9.19 2.636 11.675l.003.013c.517 2.638-1.884 4.732-5.234 4.732-3.286 0-6.359-1.993-6.87-4.54-.518-2.639 1.885-4.73 5.242-4.73.904 0 1.802.15 2.65.436Z"/></g></svg>