<svg xmlns="http://www.w3.org/2000/svg" width="40" height="40"><g fill="none" fill-rule="evenodd" stroke="#575E75" stroke-linecap="round" stroke-linejoin="round"><path fill="#FFF" d="M8.753 34.603 4.502 36.38l1.784-4.236c1.218-2.89 2.907-5.421 5.03-7.536L31.066 4.93c.846-.842 2.65-.41 4.032.966 1.38 1.377 1.816 3.174.97 4.016L16.318 29.59c-2.123 2.116-4.664 3.799-7.565 5.012"/><path d="M29.41 6.111s-4.45-2.379-8.202 5.771c-1.734 3.766-4.35 1.546-4.35 1.546"/><path fill="#4C97FF" d="M36.42 8.825c0 .463-.14.873-.432 1.164l-9.335 9.301c.282-.29.41-.668.41-1.12 0-.874-.507-1.963-1.406-2.868-1.362-1.358-3.147-1.8-4.002-.99L30.99 5.01c.844-.84 2.65-.41 4.035.96.898.904 1.396 1.982 1.396 2.855M10.515 33.774a24 24 0 0 1-1.764.83L4.5 36.382l1.786-4.235c.258-.604.529-1.186.833-1.757.69.183 1.449.625 2.109 1.282.659.658 1.102 1.412 1.287 2.102"/><path fill="#575E75" d="M36.498 8.749c0 .463-.141.873-.433 1.163l-19.742 19.68c-2.131 2.113-4.673 3.794-7.572 5.011L4.5 36.382l.974-2.318 1.925-.807c2.899-1.218 5.441-2.9 7.572-5.011l19.742-19.68c.292-.292.432-.702.432-1.165 0-.646-.27-1.4-.779-2.122.249.172.498.377.736.614.898.904 1.396 1.983 1.396 2.856" opacity=".15"/><path fill="#575E75" d="M18.45 12.831a.904.904 0 1 1-1.807 0 .904.904 0 0 1 1.807 0"/></g></svg>