<svg width="40" height="40" xmlns="http://www.w3.org/2000/svg"><g fill="none" fill-rule="evenodd"><path d="M35.313 10.467h-3.224V8.865c0-.223.182-.404.406-.404h2.412c.224 0 .406.18.406.404v1.602ZM30.477 10.467h-3.224V8.865c0-.223.183-.404.407-.404h2.411c.225 0 .406.18.406.404v1.602ZM25.641 10.467h-3.223V8.865c0-.223.182-.404.406-.404h2.411c.225 0 .406.18.406.404v1.602ZM20.806 10.467h-3.224V8.865c0-.223.182-.404.406-.404H20.4c.224 0 .406.18.406.404v1.602ZM15.97 10.467h-3.224V8.865c0-.223.182-.404.407-.404h2.411c.225 0 .406.18.406.404v1.602ZM11.135 10.467H7.91V8.865c0-.223.183-.404.407-.404h2.412c.224 0 .406.18.406.404v1.602ZM37.73 10.467H6.3c-2.67 0-4.835 2.153-4.835 4.808v3.205h37.073V11.27a.805.805 0 0 0-.807-.802Z" stroke="#6F7893" fill="#FFF" stroke-linecap="round" stroke-linejoin="round"/><path d="M38.134 30.98H1.867a.402.402 0 0 1-.403-.4V16.236h32.71c.729 0 1.429.287 1.945.801.516.513 1.216.801 1.945.801h.473v12.74c0 .222-.18.401-.403.401Z" stroke="#6F7893" fill="#E6E7E8" stroke-linecap="round" stroke-linejoin="round"/><path stroke="#6F7893" stroke-linecap="round" stroke-linejoin="round" d="m34.83 16.237.483-2.565h3.223"/><path d="M38.536 11.268V30.58c0 .22-.18.4-.403.4H1.866a.403.403 0 0 1-.403-.4v-1.203h34.282c.651 0 1.18-.524 1.18-1.173V10.467h.805c.446 0 .806.36.806.801Z" stroke="#6F7893" fill="#6F7893" opacity=".15" stroke-linecap="round" stroke-linejoin="round"/><path d="M11.538 16.279h20.148c.222 0 .403.18.403.4v6.528c0 .222-.18.401-.403.401H11.538a.402.402 0 0 1-.404-.4V16.68c0-.221.181-.401.404-.401" fill="#E6E7E8"/><path d="M11.538 16.279h20.148c.222 0 .403.18.403.4v6.528c0 .222-.18.401-.403.401H11.538a.402.402 0 0 1-.404-.4V16.68c0-.221.181-.401.404-.401Z" stroke="#6F7893" stroke-linecap="round" stroke-linejoin="round"/><path d="M32.089 16.279v6.928c0 .222-.18.401-.403.401H11.537a.403.403 0 0 1-.402-.4v-1.202h18.162c.652 0 1.18-.525 1.18-1.173v-4.554h1.612Z" stroke="#6F7893" fill="#6E7792" opacity=".15" stroke-linecap="round" stroke-linejoin="round"/><path d="M30.477 16.279h-3.224v-1.603c0-.223.183-.404.407-.404h2.411c.225 0 .406.18.406.404v1.603ZM15.97 16.279h-3.224v-1.603c0-.223.182-.404.407-.404h2.411c.225 0 .406.18.406.404v1.603ZM25.641 16.279h-3.223v-1.603c0-.223.182-.404.406-.404h2.411c.225 0 .406.18.406.404v1.603ZM20.806 16.279h-3.224v-1.603c0-.223.182-.404.406-.404H20.4c.224 0 .406.18.406.404v1.603Z" stroke="#6F7893" fill="#E6E7E8" stroke-linecap="round" stroke-linejoin="round"/><path d="M18.557 19.91a1.864 1.864 0 0 1-1.869 1.857 1.864 1.864 0 0 1-1.868-1.858c0-1.026.837-1.857 1.868-1.857 1.032 0 1.869.83 1.869 1.857ZM23.48 19.91a1.864 1.864 0 0 1-1.868 1.857 1.864 1.864 0 0 1-1.869-1.858c0-1.026.837-1.857 1.869-1.857s1.868.83 1.868 1.857ZM28.404 19.91a1.864 1.864 0 0 1-1.868 1.857 1.864 1.864 0 0 1-1.869-1.858c0-1.026.837-1.857 1.869-1.857 1.031 0 1.868.83 1.868 1.857Z" stroke="#6F7893" stroke-linecap="round" stroke-linejoin="round"/><path d="M18.557 19.922a1.864 1.864 0 0 1-1.869 1.858 1.864 1.864 0 0 1-1.868-1.858c0-1.025.837-1.857 1.868-1.857 1.032 0 1.869.832 1.869 1.857M23.48 19.922a1.864 1.864 0 0 1-1.868 1.858 1.864 1.864 0 0 1-1.869-1.858c0-1.025.837-1.857 1.869-1.857s1.868.832 1.868 1.857M28.404 19.922a1.864 1.864 0 0 1-1.868 1.858 1.864 1.864 0 0 1-1.869-1.858c0-1.025.837-1.857 1.869-1.857 1.031 0 1.868.832 1.868 1.857" fill="#6F7893" opacity=".5"/></g></svg>