<svg xmlns="http://www.w3.org/2000/svg" width="512" height="512"><path fill="#2a3282" d="M470.1 9.5H36.45C21.75 9.5 9.5 23.733 9.5 39.258V360.12c0 15.525 12.25 25.876 26.95 25.876h148.225c15.925 59.513-6.125 72.451-99.225 72.451V489.5H426v-31.053c-94.325 0-123.725-12.938-107.8-72.45h151.9c14.7 0 29.4-10.352 29.4-25.877V39.258c0-15.525-14.7-29.758-29.4-29.758m-7.35 38.814v297.573H46.251V48.314z"/><g stroke="#000" stroke-width="8"><path fill="#99e6ff" d="M54.5 54.5h400v20h-400z"/><path fill="#fff" d="M259.5 87h195v152.5h-195zm150 167.5h45v65h-45zM54.5 87h55v232.5h-55zm70 0h120v232.5h-120z"/></g><path fill="#99e6ff" stroke="#99e6ff" stroke-width="2" d="M59.5 91h45v10h-45z"/><g fill="#fff"><path stroke="#000" stroke-width="8" d="M54.5 334.5h400v5h-400z"/><path d="M259.5 254.5h135v65h-135z"/><path stroke="#000" stroke-width="8" d="M259.5 254.5H397v65H259.5z"/></g></svg>